<?xml version="1.0" encoding="utf-8"?>
<!-- Generator: Adobe Illustrator 18.0.0, SVG Export Plug-In . SVG Version: 6.00 Build 0)  -->
<!DOCTYPE svg PUBLIC "-//W3C//DTD SVG 1.1//EN" "http://www.w3.org/Graphics/SVG/1.1/DTD/svg11.dtd">
<svg version="1.1" id="Layer_1" xmlns="http://www.w3.org/2000/svg" xmlns:xlink="http://www.w3.org/1999/xlink" x="0px" y="0px"
	 viewBox="0 0 200 200" enable-background="new 0 0 200 200" xml:space="preserve">
<g>
	<g>
		<path d="M69.5,122.8h3.1L87,104.7l5.3,6.6L106.1,94l7.8,9.6V86.7H69.5L69.5,122.8z M78.7,89.6c3.9,0,7,3.1,7,7c0,3.9-3.1,7-7,7
			c-3.9,0-7-3.1-7-7C71.7,92.7,74.8,89.6,78.7,89.6z"/>
		<path d="M100,29.3C61,29.3,29.3,61,29.3,100S61,170.7,100,170.7s70.7-31.7,70.7-70.7S139,29.3,100,29.3z M119.2,130.8
			c0,2.4-1.6,4.4-3.7,5c-0.1,0-0.1,0-0.2,0.1c-0.4,0.1-0.9,0.2-1.3,0.2h0H69.5h0c-0.5,0-0.9-0.1-1.4-0.2c-0.1,0-0.1,0-0.2-0.1
			c-2.2-0.7-3.7-2.7-3.7-5V86.4c0-2.9,2.4-5.3,5.3-5.3h0h44.4h0c2.9,0,5.3,2.4,5.3,5.3V130.8z M127.5,122.3c0,2.4-1.6,4.4-3.7,5
			c-0.1,0-0.1,0-0.2,0.1c-0.4,0.1-0.9,0.2-1.3,0.2h0V82.6c0.1-4.8-4.7-4.5-4.7-4.5h-45v-0.3c0-2.9,2.4-5.3,5.3-5.3h0h44.4h0
			c2.9,0,5.3,2.4,5.3,5.3V122.3z M135.8,113.6c0,2.4-1.6,4.4-3.7,5c-0.1,0-0.1,0-0.2,0.1c-0.4,0.1-0.9,0.2-1.4,0.2h0V73.9
			c0.1-4.8-4.7-4.5-4.7-4.5h-45v-0.3c0-2.9,2.4-5.3,5.3-5.3h0h44.4h0c2.9,0,5.3,2.4,5.3,5.3V113.6z"/>
	</g>
	<path d="M100,10c-49.6,0-90,40.4-90,90s40.4,90,90,90s90-40.4,90-90S149.6,10,100,10z M100,184.6c-46.7,0-84.6-38-84.6-84.6
		s38-84.6,84.6-84.6s84.6,38,84.6,84.6S146.7,184.6,100,184.6z"/>
</g>
</svg>
