<?xml version="1.0" standalone="no"?>
<!DOCTYPE svg PUBLIC "-//W3C//DTD SVG 20010904//EN"
 "http://www.w3.org/TR/2001/REC-SVG-20010904/DTD/svg10.dtd">
<svg version="1.0" xmlns="http://www.w3.org/2000/svg"
 width="3750.000000pt" height="3375.000000pt" viewBox="0 0 3750.000000 3375.000000"
 preserveAspectRatio="xMidYMid meet">
<metadata>
Created by potrace 1.11, written by Peter Selinger 2001-2013
</metadata>
<g transform="translate(0.000000,3375.000000) scale(0.100000,-0.100000)"
fill="#000000" stroke="none">
<path d="M1440 33743 c-94 -10 -260 -47 -352 -79 -245 -85 -423 -197 -614
-388 -239 -240 -380 -500 -446 -829 l-23 -112 0 -11710 0 -11710 23 -112 c66
-329 207 -589 446 -829 238 -237 494 -376 823 -446 l108 -23 1172 -3 1172 -3
3 -1172 3 -1172 23 -108 c70 -329 209 -585 446 -823 238 -237 494 -376 823
-446 l108 -23 1172 -3 1172 -3 3 -1172 3 -1172 23 -108 c70 -329 209 -585 446
-823 240 -239 500 -380 829 -446 l112 -23 13585 0 13585 0 112 23 c329 66 589
207 829 446 239 240 380 500 446 829 l23 112 0 11710 0 11710 -23 112 c-66
329 -207 589 -446 829 -238 237 -494 376 -823 446 l-108 23 -1172 3 -1172 3
-3 1172 -3 1172 -23 108 c-70 329 -209 585 -446 823 -238 237 -494 376 -823
446 l-108 23 -1172 3 -1172 3 -3 1172 -3 1172 -23 108 c-70 329 -209 585 -446
823 -238 237 -494 376 -823 446 l-108 23 -13560 1 c-7458 0 -13576 -1 -13595
-3z m26688 -2805 l2 -938 -11487 -2 -11488 -3 -108 -23 c-329 -70 -585 -209
-823 -446 -237 -238 -376 -494 -446 -823 l-23 -108 -3 -9613 -2 -9612 -938 2
-937 3 0 1678 c0 922 1 5986 3 11252 l2 9575 13123 -2 13122 -3 3 -937z m3750
-3750 l2 -938 -11487 -2 -11488 -3 -108 -23 c-329 -70 -585 -209 -823 -446
-237 -238 -376 -494 -446 -823 l-23 -108 -3 -9613 -2 -9612 -938 2 -937 3 0
1678 c0 922 1 5986 3 11252 l2 9575 13123 -2 13122 -3 3 -937z m3747 -14063
l0 -11250 -13119 -3 c-7216 -1 -13123 1 -13126 5 -4 5 -5 5069 -2 11256 l4
11247 13122 -2 13121 -3 0 -11250z"/>
<path d="M28805 22490 c-668 -68 -1264 -349 -1730 -815 -706 -705 -983 -1721
-735 -2689 74 -290 175 -527 337 -788 208 -337 548 -679 888 -892 706 -444
1589 -550 2385 -287 1203 399 1991 1558 1919 2826 -31 563 -223 1084 -567
1545 -103 138 -368 407 -502 510 -406 311 -837 496 -1326 570 -159 24 -521 35
-669 20z"/>
<path d="M14531 13126 l-3281 -5625 0 -1875 0 -1876 11250 0 11250 0 0 5625 0
5625 -3277 -2810 -3278 -2809 -942 -1 -943 0 -3741 4678 c-2058 2572 -3745
4681 -3749 4685 -4 5 -1484 -2523 -3289 -5617z"/>
</g>
</svg>
