<?xml version="1.0" encoding="utf-8"?>
<!-- Generator: Adobe Illustrator 18.0.0, SVG Export Plug-In . SVG Version: 6.00 Build 0)  -->
<!DOCTYPE svg PUBLIC "-//W3C//DTD SVG 1.1//EN" "http://www.w3.org/Graphics/SVG/1.1/DTD/svg11.dtd">
<svg version="1.1" id="Layer_1" xmlns="http://www.w3.org/2000/svg" xmlns:xlink="http://www.w3.org/1999/xlink" x="0px" y="0px"
	 viewBox="0 0 200 200" enable-background="new 0 0 200 200" xml:space="preserve">
<path d="M48.8,102.5c0.1,0.4,0.2,0.7,0.3,1.1c0.1,0.4,0.2,0.9,0.4,1.3c0.2,0.4,0.4,0.8,0.7,1.3c0.2,0.3,0.3,0.7,0.5,1
	c0.5,0.7,1,1.4,1.6,2l77.1,77.1c5,5,13.2,5,18.2,0c5-5,5-13.2,0-18.2L78.7,100L123,56.6l24.6-24.6c5-5,5-13.2,0-18.2
	c-2.5-2.5-5.8-3.8-9.1-3.8c-3.3,0-6.6,1.3-9.1,3.8L52.3,90.9c-0.6,0.6-1.1,1.3-1.6,2c-0.2,0.3-0.3,0.6-0.5,1
	c-0.2,0.4-0.5,0.8-0.7,1.3c-0.2,0.4-0.3,0.9-0.4,1.3c-0.1,0.4-0.3,0.7-0.3,1.1C48.5,99.1,48.5,100.9,48.8,102.5z"/>
</svg>
