<?xml version="1.0" encoding="utf-8"?>
<!-- Generator: Adobe Illustrator 18.0.0, SVG Export Plug-In . SVG Version: 6.00 Build 0)  -->
<!DOCTYPE svg PUBLIC "-//W3C//DTD SVG 1.1//EN" "http://www.w3.org/Graphics/SVG/1.1/DTD/svg11.dtd">
<svg version="1.1" id="Layer_1" xmlns="http://www.w3.org/2000/svg" xmlns:xlink="http://www.w3.org/1999/xlink" x="0px" y="0px"
	 viewBox="0 0 200 200" enable-background="new 0 0 200 200" xml:space="preserve">
<g>
	<path d="M175.6,53.2h-29.8l-17.3-17.3c0,0,0,0-0.1-0.1l0,0v0c-2.6-2.6-6.2-4.2-10.1-4.2h-36c-4.2,0-7.9,1.8-10.5,4.7l0,0l-17,17
		H24.4c-8,0-14.4,6.4-14.4,14.4V154c0,8,6.4,14.4,14.4,14.4h151.2c8,0,14.4-6.4,14.4-14.4V67.6C190,59.6,183.6,53.2,175.6,53.2z
		 M100,146.8c-21.8,0-39.6-17.8-39.6-39.6c0-21.8,17.8-39.6,39.6-39.6s39.6,17.8,39.6,39.6C139.6,129,121.8,146.8,100,146.8z"/>
	<path d="M100,74.8c-17.9,0-32.4,14.5-32.4,32.4c0,17.9,14.5,32.4,32.4,32.4s32.4-14.5,32.4-32.4C132.4,89.3,117.9,74.8,100,74.8z"
		/>
</g>
</svg>
