<?xml version="1.0" standalone="no"?>
<!DOCTYPE svg PUBLIC "-//W3C//DTD SVG 20010904//EN"
 "http://www.w3.org/TR/2001/REC-SVG-20010904/DTD/svg10.dtd">
<svg version="1.0" xmlns="http://www.w3.org/2000/svg"
 width="3750.000000pt" height="3282.000000pt" viewBox="0 0 3750.000000 3282.000000"
 preserveAspectRatio="xMidYMid meet">
<metadata>
Created by potrace 1.11, written by Peter Selinger 2001-2013
</metadata>
<g transform="translate(0.000000,3282.000000) scale(0.100000,-0.100000)"
fill="#000000" stroke="none">
<path d="M1780 32809 c-202 -23 -435 -89 -614 -173 -643 -301 -1077 -905
-1156 -1611 -14 -125 -14 -29105 0 -29230 79 -706 513 -1310 1156 -1611 186
-87 412 -150 629 -174 125 -14 33785 -14 33910 0 740 83 1368 557 1649 1245
48 119 95 284 123 435 17 91 18 762 21 14650 2 10333 0 14588 -8 14669 -89
942 -834 1695 -1785 1801 -113 12 -33815 11 -33925 -1z m33370 -16399 l0
-14060 -16405 0 -16405 0 0 14060 0 14060 16405 0 16405 0 0 -14060z"/>
<path d="M26695 28124 c-269 -27 -413 -50 -604 -99 -883 -223 -1637 -774
-2129 -1555 -235 -373 -408 -835 -481 -1280 -36 -219 -44 -329 -44 -575 0
-246 8 -356 44 -575 179 -1093 876 -2046 1872 -2558 366 -189 761 -308 1207
-364 65 -8 213 -13 390 -13 357 0 557 23 859 100 883 223 1637 774 2129 1555
235 373 408 835 481 1280 36 219 44 329 44 575 0 246 -8 356 -44 575 -179
1093 -876 2046 -1872 2558 -352 182 -734 299 -1157 357 -110 15 -599 29 -695
19z"/>
<path d="M12837 23348 c-30 -51 -1875 -3215 -4101 -7030 l-4046 -6937 0 -2345
0 -2346 14060 0 14060 0 0 7031 c0 3866 -3 7028 -7 7026 -5 -3 -1851 -1585
-4103 -3516 l-4095 -3511 -1170 2 -1170 3 -4687 5858 -4686 5858 -55 -93z"/>
</g>
</svg>
