<?xml version="1.0" encoding="utf-8"?>
<!-- Generator: Adobe Illustrator 18.0.0, SVG Export Plug-In . SVG Version: 6.00 Build 0)  -->
<!DOCTYPE svg PUBLIC "-//W3C//DTD SVG 1.1//EN" "http://www.w3.org/Graphics/SVG/1.1/DTD/svg11.dtd">
<svg version="1.1" id="Layer_1" xmlns="http://www.w3.org/2000/svg" xmlns:xlink="http://www.w3.org/1999/xlink" x="0px" y="0px"
	 viewBox="0 0 200 200" enable-background="new 0 0 200 200" xml:space="preserve">
<g>
	<path d="M100,10c-49.6,0-90,40.4-90,90s40.4,90,90,90s90-40.4,90-90S149.6,10,100,10z M100,184.6c-46.7,0-84.6-38-84.6-84.6
		s38-84.6,84.6-84.6s84.6,38,84.6,84.6S146.7,184.6,100,184.6z"/>
	<g>
		<path d="M100,29.3C61,29.3,29.3,61,29.3,100S61,170.7,100,170.7s70.7-31.7,70.7-70.7S139,29.3,100,29.3z M145.6,127.4
			c0,4-3.3,7.3-7.3,7.3H61.7c-4,0-7.3-3.3-7.3-7.3V83.6c0-4,3.3-7.3,7.3-7.3h15.4l8.6-8.6l0,0c1.3-1.4,3.2-2.4,5.3-2.4h18.2
			c2,0,3.8,0.8,5.1,2.1v0l0,0c0,0,0,0,0,0l8.8,8.8h15.1c4,0,7.3,3.3,7.3,7.3V127.4z"/>
		<path d="M100,83.6c-11.1,0-20.1,9-20.1,20.1c0,11.1,9,20.1,20.1,20.1c11.1,0,20.1-9,20.1-20.1C120.1,92.6,111.1,83.6,100,83.6z
			 M100,118.2c-8.2,0-14.9-6.7-14.9-14.9c0-8.2,6.7-14.9,14.9-14.9s14.9,6.7,14.9,14.9C114.9,111.5,108.2,118.2,100,118.2z"/>
	</g>
</g>
</svg>
