<?xml version="1.0" encoding="utf-8"?>
<!-- Generator: Adobe Illustrator 18.0.0, SVG Export Plug-In . SVG Version: 6.00 Build 0)  -->
<!DOCTYPE svg PUBLIC "-//W3C//DTD SVG 1.1//EN" "http://www.w3.org/Graphics/SVG/1.1/DTD/svg11.dtd">
<svg version="1.1" id="Layer_1" xmlns="http://www.w3.org/2000/svg" xmlns:xlink="http://www.w3.org/1999/xlink" x="0px" y="0px"
	 viewBox="0 0 200 200" enable-background="new 0 0 200 200" xml:space="preserve">
<path d="M108.3,24c0,0-35.3,0-47.1,0c-21.1,0-41,16-41,34.5c0,18.9,14.4,34.2,35.9,34.2c1.5,0,2.9,0,4.4-0.1
	c-1.4,2.7-2.4,5.7-2.4,8.8c0,5.3,2.8,9.5,6.4,13c-2.7,0-5.3,0.1-8.2,0.1c-26.2,0-46.3,16.7-46.3,33.9c0,17,22.1,27.7,48.2,27.7
	c29.8,0,46.3-16.9,46.3-33.9c0-13.6-4-21.8-16.5-30.6c-4.3-3-12.4-10.3-12.4-14.6c0-5,1.4-7.5,9-13.5C92.5,77.3,98,68.7,98,58.8
	c0-11.8-5.3-23.4-15.2-27.2h14.9L108.3,24z M91.8,139.2c0.4,1.6,0.6,3.2,0.6,4.9c0,13.7-8.9,24.5-34.3,24.5
	C40,168.5,27,157.1,27,143.3c0-13.5,16.2-24.7,34.3-24.5c4.2,0,8.2,0.7,11.7,1.9C82.8,127.5,89.8,131.4,91.8,139.2z M62.9,87.9
	c-12.1-0.4-23.7-13.6-25.8-29.5c-2.1-15.9,6-28.1,18.2-27.8C67.4,31,79,43.8,81.1,59.7C83.1,75.6,75,88.3,62.9,87.9z M156.2,57.7V24
	H145v33.8h-33.8V69H145v33.8h11.2V69H190V57.7H156.2z"/>
</svg>
