<?xml version="1.0" encoding="utf-8"?>
<!-- Generator: Adobe Illustrator 18.0.0, SVG Export Plug-In . SVG Version: 6.00 Build 0)  -->
<!DOCTYPE svg PUBLIC "-//W3C//DTD SVG 1.1//EN" "http://www.w3.org/Graphics/SVG/1.1/DTD/svg11.dtd">
<svg version="1.1" id="Layer_1" xmlns="http://www.w3.org/2000/svg" xmlns:xlink="http://www.w3.org/1999/xlink" x="0px" y="0px"
	 viewBox="0 0 200 200" enable-background="new 0 0 200 200" xml:space="preserve">
<g display="none">
	<path display="inline" d="M175.6,53.2h-29.8l-17.3-17.3c0,0,0,0-0.1-0.1l0,0l0,0c-2.6-2.6-6.2-4.2-10.1-4.2h-36
		c-4.2,0-7.9,1.8-10.5,4.7l0,0l-17,17H24.4c-8,0-14.4,6.4-14.4,14.4V154c0,8,6.4,14.4,14.4,14.4h151.2c8,0,14.4-6.4,14.4-14.4V67.6
		C190,59.6,183.6,53.2,175.6,53.2z M100,146.8c-21.8,0-39.6-17.8-39.6-39.6S78.2,67.6,100,67.6s39.6,17.8,39.6,39.6
		S121.8,146.8,100,146.8z"/>
	<path display="inline" d="M100,74.8c-17.9,0-32.4,14.5-32.4,32.4s14.5,32.4,32.4,32.4s32.4-14.5,32.4-32.4S117.9,74.8,100,74.8z"/>
</g>
<g display="none">
	<path display="inline" d="M100,29.3C61,29.3,29.3,61,29.3,100c0,39,31.7,70.7,70.7,70.7s70.7-31.7,70.7-70.7
		C170.7,61,139,29.3,100,29.3z M144.3,103.6l-65.1,36.2c-0.4,0.2-0.8,0.3-1.2,0.3c-0.9,0-1.6-0.7-1.6-2V66c0-1.2,0.6-2,1.6-2
		c0.4,0,0.8,0.1,1.2,0.3l65.1,36.2C145.8,101.4,145.8,102.8,144.3,103.6z"/>
	<g display="inline">
		<path d="M100,190c-49.6,0-90-40.4-90-90s40.4-90,90-90s90,40.4,90,90S149.6,190,100,190z M100,15.4c-46.7,0-84.6,38-84.6,84.6
			s38,84.6,84.6,84.6s84.6-38,84.6-84.6S146.7,15.4,100,15.4z"/>
	</g>
</g>
<g>
	<g>
		<path d="M86,119.2c-0.6,0-1.2,0.5-1.2,1.2s0.5,1.2,1.2,1.2h11.7c0.6,0,1.2-0.5,1.2-1.2s-0.5-1.2-1.2-1.2H93V97
			c0-0.5-0.3-0.9-0.7-1.1c-0.4-0.2-0.9-0.1-1.3,0.3l-5.8,5.8c-0.5,0.5-0.5,1.2,0,1.7c0.5,0.5,1.2,0.5,1.7,0l3.8-3.8v19.4H86z"/>
		<rect x="79" y="65.5" width="7" height="9.3"/>
		<path d="M100,29.3C61,29.3,29.3,61,29.3,100S61,170.7,100,170.7s70.7-31.7,70.7-70.7S139,29.3,100,29.3z M135,132.1
			c0,0.6-0.5,1.2-1.2,1.2H66.1c-0.6,0-1.2-0.5-1.2-1.2V86.5H135V132.1z M135,84.2H65V71.3c0-0.6,0.5-1.2,1.2-1.2h10.5v-5.8
			c0-0.6,0.5-1.2,1.2-1.2h9.3c0.6,0,1.2,0.5,1.2,1.2v5.8h23.4v-5.8c0-0.6,0.5-1.2,1.2-1.2h9.3c0.6,0,1.2,0.5,1.2,1.2v5.8h10.5
			c0.6,0,1.2,0.5,1.2,1.2V84.2z"/>
		<path d="M101.2,100.8c0.6,0,1.2-0.5,1.2-1.2v-1.5h11.1l-3.7,9.3h-5.3c-0.6,0-1.2,0.5-1.2,1.2c0,0.6,0.5,1.2,1.2,1.2h4.4l-4,10
			c-0.2,0.6,0.1,1.3,0.7,1.5c0.1,0.1,0.3,0.1,0.4,0.1c0.5,0,0.9-0.3,1.1-0.7l4.3-10.8h1.9c0.6,0,1.2-0.5,1.2-1.2
			c0-0.6-0.5-1.2-1.2-1.2h-1l4-10.1c0.1-0.4,0.1-0.8-0.1-1.1c-0.2-0.3-0.6-0.5-1-0.5h-14c-0.6,0-1.2,0.5-1.2,1.2v2.6
			C100,100.3,100.5,100.8,101.2,100.8z"/>
		<rect x="114" y="65.5" width="7" height="9.3"/>
	</g>
	<path d="M100,10c-49.6,0-90,40.4-90,90s40.4,90,90,90s90-40.4,90-90S149.6,10,100,10z M100,184.6c-46.7,0-84.6-38-84.6-84.6
		s38-84.6,84.6-84.6s84.6,38,84.6,84.6S146.7,184.6,100,184.6z"/>
</g>
</svg>
