<?xml version="1.0" encoding="utf-8"?>
<!-- Generator: Adobe Illustrator 18.0.0, SVG Export Plug-In . SVG Version: 6.00 Build 0)  -->
<!DOCTYPE svg PUBLIC "-//W3C//DTD SVG 1.1//EN" "http://www.w3.org/Graphics/SVG/1.1/DTD/svg11.dtd">
<svg version="1.1" id="Layer_1" xmlns="http://www.w3.org/2000/svg" xmlns:xlink="http://www.w3.org/1999/xlink" x="0px" y="0px"
	 viewBox="0 0 200 200" enable-background="new 0 0 200 200" xml:space="preserve">
<g display="none">
	<path display="inline" d="M175.6,53.2h-29.8l-17.3-17.3c0,0,0,0-0.1-0.1l0,0l0,0c-2.6-2.6-6.2-4.2-10.1-4.2h-36
		c-4.2,0-7.9,1.8-10.5,4.7l0,0l-17,17H24.4c-8,0-14.4,6.4-14.4,14.4V154c0,8,6.4,14.4,14.4,14.4h151.2c8,0,14.4-6.4,14.4-14.4V67.6
		C190,59.6,183.6,53.2,175.6,53.2z M100,146.8c-21.8,0-39.6-17.8-39.6-39.6S78.2,67.6,100,67.6s39.6,17.8,39.6,39.6
		S121.8,146.8,100,146.8z"/>
	<path display="inline" d="M100,74.8c-17.9,0-32.4,14.5-32.4,32.4s14.5,32.4,32.4,32.4s32.4-14.5,32.4-32.4S117.9,74.8,100,74.8z"/>
</g>
<g>
	<path d="M100,10c-49.6,0-90,40.4-90,90s40.4,90,90,90s90-40.4,90-90S149.6,10,100,10z M100,184.6c-46.7,0-84.6-38-84.6-84.6
		s38-84.6,84.6-84.6s84.6,38,84.6,84.6S146.7,184.6,100,184.6z"/>
	<g>
		<path d="M100,79.5c-12.7,0-22.9,10.3-22.9,22.9c0,12.7,10.3,22.9,22.9,22.9c12.7,0,22.9-10.3,22.9-22.9
			C122.9,89.8,112.7,79.5,100,79.5z M100,119.3c-9.3,0-16.8-7.5-16.8-16.8c0-9.3,7.5-16.8,16.8-16.8c9.3,0,16.8,7.5,16.8,16.8
			C116.8,111.7,109.3,119.3,100,119.3z"/>
		<rect x="125.8" y="84.4" width="10.3" height="5.2"/>
		<path d="M100,29.3C61,29.3,29.3,61,29.3,100S61,170.7,100,170.7s70.7-31.7,70.7-70.7S139,29.3,100,29.3z M141.3,125.7
			c0,2.8-2.3,5.2-5.2,5.2H63.8c-2.8,0-5.2-2.3-5.2-5.2V79.2c0-2.8,2.3-5.2,5.2-5.2h18.1c1.3-5.2,2.6-10.3,7.8-10.3h20.7
			c5.2,0,6.5,5.2,7.8,10.3h18.1c2.8,0,5.2,2.3,5.2,5.2V125.7z"/>
	</g>
</g>
</svg>
