<?xml version="1.0" encoding="utf-8"?>
<!-- Generator: Adobe Illustrator 18.0.0, SVG Export Plug-In . SVG Version: 6.00 Build 0)  -->
<!DOCTYPE svg PUBLIC "-//W3C//DTD SVG 1.1//EN" "http://www.w3.org/Graphics/SVG/1.1/DTD/svg11.dtd">
<svg version="1.1" id="Layer_1" xmlns="http://www.w3.org/2000/svg" xmlns:xlink="http://www.w3.org/1999/xlink" x="0px" y="0px"
	 viewBox="0 0 1000 1000" enable-background="new 0 0 1000 1000" xml:space="preserve">
<g display="none">
	<path display="inline" d="M878,266H729l-86.5-86.5c0,0,0,0-0.5-0.5l0,0l0,0c-13-13-31-21-50.5-21h-180c-21,0-39.5,9-52.5,23.5l0,0
		l-85,85H122c-40,0-72,32-72,72V770c0,40,32,72,72,72h756c40,0,72-32,72-72V338C950,298,918,266,878,266z M500,734
		c-109,0-198-89-198-198s89-198,198-198s198,89,198,198S609,734,500,734z"/>
	<path display="inline" d="M500,374c-89.5,0-162,72.5-162,162s72.5,162,162,162s162-72.5,162-162S589.5,374,500,374z"/>
</g>
<g display="none">
	<path display="inline" d="M500,146.5C305,146.5,146.5,305,146.5,500S305,853.5,500,853.5S853.5,695,853.5,500S695,146.5,500,146.5z
		 M721.5,518L396,699c-2,1-4,1.5-6,1.5c-4.5,0-8-3.5-8-10V330c0-6,3-10,8-10c2,0,4,0.5,6,1.5l325.5,181C729,507,729,514,721.5,518z"
		/>
	<g display="inline">
		<path d="M500,950C252,950,50,748,50,500S252,50,500,50s450,202,450,450S748,950,500,950z M500,77C266.5,77,77,267,77,500
			s190,423,423,423s423-190,423-423S733.5,77,500,77z"/>
	</g>
</g>
<g>
	<g>
		<path display="none" d="M430,596c-3,0-6,2.5-6,6c0,3.5,2.5,6,6,6h58.5c3,0,6-2.5,6-6c0-3.5-2.5-6-6-6H465V485
			c0-2.5-1.5-4.5-3.5-5.5c-2-1-4.5-0.5-6.5,1.5l-29,29c-2.5,2.5-2.5,6,0,8.5s6,2.5,8.5,0l19-19v97H430V596z"/>
		<rect x="395" y="327.5" width="35" height="46.5"/>
		<path d="M500,146.5C305,146.5,146.5,305,146.5,500S305,853.5,500,853.5S853.5,695,853.5,500S695,146.5,500,146.5z M675,660.5
			c0,3-2.5,6-6,6H330.5c-3,0-6-2.5-6-6v-228H675V660.5z M675,421H325v-64.5c0-3,2.5-6,6-6h52.5v-29c0-3,2.5-6,6-6H436c3,0,6,2.5,6,6
			v29h117v-29c0-3,2.5-6,6-6h46.5c3,0,6,2.5,6,6v29H670c3,0,6,2.5,6,6V421H675z"/>
		<path display="none" d="M506,504c3,0,6-2.5,6-6v-7.5h55.5L549,537h-26.5c-3,0-6,2.5-6,6c0,3,2.5,6,6,6h22l-20,50
			c-1,3,0.5,6.5,3.5,7.5c0.5,0.5,1.5,0.5,2,0.5c2.5,0,4.5-1.5,5.5-3.5l21.5-54h9.5c3,0,6-2.5,6-6c0-3-2.5-6-6-6h-5l20-50.5
			c0.5-2,0.5-4-0.5-5.5c-1-1.5-3-2.5-5-2.5h-70c-3,0-6,2.5-6,6v13C500,501.5,502.5,504,506,504z"/>
		<rect x="570" y="327.5" width="35" height="46.5"/>
	</g>
	<path d="M500,50C252,50,50,252,50,500s202,450,450,450s450-202,450-450S748,50,500,50z M500,923C266.5,923,77,733,77,500
		S267,77,500,77s423,190,423,423S733.5,923,500,923z"/>
</g>
</svg>
