<?xml version="1.0" encoding="utf-8"?>
<!-- Generator: Adobe Illustrator 18.0.0, SVG Export Plug-In . SVG Version: 6.00 Build 0)  -->
<!DOCTYPE svg PUBLIC "-//W3C//DTD SVG 1.1//EN" "http://www.w3.org/Graphics/SVG/1.1/DTD/svg11.dtd">
<svg version="1.1" id="Layer_1" xmlns="http://www.w3.org/2000/svg" xmlns:xlink="http://www.w3.org/1999/xlink" x="0px" y="0px"
	 viewBox="0 0 200 200" enable-background="new 0 0 200 200" xml:space="preserve">
<path d="M181.8,53.4c-0.1,0-0.1-0.1-0.2-0.1l-152.8-36c-1.9-0.4-3.9,0.7-4.3,2.7c-0.5,1.9,0.7,3.9,2.7,4.3l122.6,28.9H20.1
	c-5.6,0-10.1,4.5-10.1,10.1v109.4c0,5.6,4.5,10.1,10.1,10.1h159.8c5.6,0,10.1-4.5,10.1-10.1V63.3C190,58.4,186.5,54.3,181.8,53.4z
	 M112.6,89.2c3,0,5.4,2.4,5.4,5.4c0,3-2.4,5.4-5.4,5.4c-3,0-5.4-2.4-5.4-5.4C107.2,91.6,109.6,89.2,112.6,89.2z M94.6,100
	c3,0,5.4,2.4,5.4,5.4c0,3-2.4,5.4-5.4,5.4c-3,0-5.4-2.4-5.4-5.4C89.2,102.4,91.6,100,94.6,100z M51.4,74.8c3,0,5.4,2.4,5.4,5.4
	c0,3-2.4,5.4-5.4,5.4c-3,0-5.4-2.4-5.4-5.4C46,77.2,48.4,74.8,51.4,74.8z M24.4,116.2c0-3,2.4-5.4,5.4-5.4c3,0,5.4,2.4,5.4,5.4
	c0,3-2.4,5.4-5.4,5.4C26.8,121.6,24.4,119.2,24.4,116.2z M37,143.3c-3,0-5.4-2.4-5.4-5.4c0-3,2.4-5.4,5.4-5.4c3,0,5.4,2.4,5.4,5.4
	C42.4,140.9,40,143.3,37,143.3z M37,100c-3,0-5.4-2.4-5.4-5.4c0-3,2.4-5.4,5.4-5.4c3,0,5.4,2.4,5.4,5.4C42.4,97.6,40,100,37,100z
	 M51.1,157.6c-3,0-5.4-2.4-5.4-5.4c0-3,2.4-5.4,5.4-5.4c3,0,5.4,2.4,5.4,5.4C56.5,155.2,54.1,157.6,51.1,157.6z M55,132.1
	c-3,0-5.4-2.4-5.4-5.4c0-3,2.4-5.4,5.4-5.4c3,0,5.4,2.4,5.4,5.4C60.4,129.7,58,132.1,55,132.1z M55,110.8c-3,0-5.4-2.4-5.4-5.4
	c0-3,2.4-5.4,5.4-5.4c3,0,5.4,2.4,5.4,5.4C60.4,108.4,58,110.8,55,110.8z M74.8,164.8c-3,0-5.4-2.4-5.4-5.4c0-3,2.4-5.4,5.4-5.4
	c3,0,5.4,2.4,5.4,5.4C80.2,162.4,77.7,164.8,74.8,164.8z M74.8,143.3c-3,0-5.4-2.4-5.4-5.4c0-3,2.4-5.4,5.4-5.4c3,0,5.4,2.4,5.4,5.4
	C80.2,140.9,77.7,143.3,74.8,143.3z M74.8,121.6c-3,0-5.4-2.4-5.4-5.4c0-3,2.4-5.4,5.4-5.4c3,0,5.4,2.4,5.4,5.4
	C80.2,119.2,77.7,121.6,74.8,121.6z M74.8,100c-3,0-5.4-2.4-5.4-5.4c0-3,2.4-5.4,5.4-5.4c3,0,5.4,2.4,5.4,5.4
	C80.2,97.6,77.7,100,74.8,100z M74.8,78.4c-3,0-5.4-2.4-5.4-5.4c0-3,2.4-5.4,5.4-5.4c3,0,5.4,2.4,5.4,5.4
	C80.2,76,77.7,78.4,74.8,78.4z M89.2,127c0-3,2.4-5.4,5.4-5.4c3,0,5.4,2.4,5.4,5.4c0,3-2.4,5.4-5.4,5.4
	C91.6,132.4,89.2,130,89.2,127z M98.1,157.6c-3,0-5.4-2.4-5.4-5.4c0-3,2.4-5.4,5.4-5.4c3,0,5.4,2.4,5.4,5.4
	C103.5,155.2,101,157.6,98.1,157.6z M98.1,85.6c-3,0-5.4-2.4-5.4-5.4c0-3,2.4-5.4,5.4-5.4c3,0,5.4,2.4,5.4,5.4
	C103.5,83.2,101,85.6,98.1,85.6z M112.6,143.3c-3,0-5.4-2.4-5.4-5.4c0-3,2.4-5.4,5.4-5.4c3,0,5.4,2.4,5.4,5.4
	C118,140.9,115.6,143.3,112.6,143.3z M119.8,121.6c-3,0-5.4-2.4-5.4-5.4c0-3,2.4-5.4,5.4-5.4c3,0,5.4,2.4,5.4,5.4
	C125.2,119.2,122.8,121.6,119.8,121.6z M157.6,125.2c-6,0-10.8-4.8-10.8-10.8c0-6,4.8-10.8,10.8-10.8c6,0,10.8,4.8,10.8,10.8
	C168.4,120.4,163.6,125.2,157.6,125.2z M157.6,96.4c-6,0-10.8-4.8-10.8-10.8c0-6,4.8-10.8,10.8-10.8c6,0,10.8,4.8,10.8,10.8
	C168.4,91.6,163.6,96.4,157.6,96.4z"/>
</svg>
