<?xml version="1.0" encoding="utf-8"?>
<!-- Generator: Adobe Illustrator 18.1.1, SVG Export Plug-In . SVG Version: 6.00 Build 0)  -->
<svg version="1.1" id="Layer_1" xmlns="http://www.w3.org/2000/svg" xmlns:xlink="http://www.w3.org/1999/xlink" x="0px" y="0px"
	 viewBox="0 0 600 600" enable-background="new 0 0 600 600" xml:space="preserve">
<circle stroke="#000000" stroke-miterlimit="10" cx="300" cy="138.6" r="30.8"/>
<path fill="none" stroke="#000000" stroke-miterlimit="10" d="M177,570"/>
<polygon stroke="#000000" stroke-miterlimit="10" points="177,570 275.4,200.9 321.5,200.9 423,570 386.1,570 300,237.8 213.9,570 
	"/>
<polygon stroke="#000000" stroke-miterlimit="10" points="229.8,508.5 354.2,447 347.8,422.4 236.2,483.9 "/>
<polygon stroke="#000000" stroke-miterlimit="10" points="370.2,508.5 245.8,447 252.2,422.4 363.8,483.9 "/>
<polygon stroke="#000000" stroke-miterlimit="10" points="336.9,160.4 366.4,216 374.7,207.7 424.3,246.4 378.4,175.8 366.1,188.2 
	"/>
<polygon stroke="#000000" stroke-miterlimit="10" points="336.9,117.4 392.5,87.9 384.3,79.6 422.9,30 352.3,75.8 364.7,88.2 "/>
<polygon stroke="#000000" stroke-miterlimit="10" points="263.1,118.4 233.6,62.8 225.3,71 175.7,32.4 221.6,102.9 233.9,90.6 "/>
<polygon stroke="#000000" stroke-miterlimit="10" points="263.1,161.4 207.5,190.9 215.7,199.1 177.1,248.7 247.7,202.9 
	235.3,190.5 "/>
</svg>
