<?xml version="1.0" encoding="utf-8"?>
<!-- Generator: Adobe Illustrator 18.0.0, SVG Export Plug-In . SVG Version: 6.00 Build 0)  -->
<!DOCTYPE svg PUBLIC "-//W3C//DTD SVG 1.1//EN" "http://www.w3.org/Graphics/SVG/1.1/DTD/svg11.dtd">
<svg version="1.1" id="Layer_1" xmlns="http://www.w3.org/2000/svg" xmlns:xlink="http://www.w3.org/1999/xlink" x="0px" y="0px"
	 viewBox="0 0 612 792" enable-background="new 0 0 612 792" xml:space="preserve">
<path d="M544.5,257.8C569.1,300,581.4,346,581.4,396s-12.3,96-36.9,138.2c-24.6,42.2-58,75.6-100.2,100.2
	C402,659.1,356,671.4,306,671.4c-50,0-96-12.3-138.2-36.9c-42.2-24.6-75.6-58-100.2-100.2C42.9,492,30.6,446,30.6,396
	s12.3-96,36.9-138.2c24.6-42.2,58-75.6,100.2-100.2C210,132.9,256,120.6,306,120.6c50,0,96,12.3,138.2,36.9
	C486.4,182.2,519.8,215.6,544.5,257.8z M504.9,479.7c11.4-26.6,17.1-54.5,17.1-83.7s-5.7-57.2-17.1-83.7
	c-11.4-26.6-26.8-49.6-46.2-69c-19.4-19.4-42.4-34.8-69-46.2C363.2,185.7,335.2,180,306,180c-29.3,0-57.2,5.7-83.7,17.1
	c-26.6,11.4-49.6,26.8-69,46.2c-19.4,19.4-34.8,42.4-46.2,69S90,366.8,90,396s5.7,57.2,17.1,83.7c11.4,26.6,26.8,49.6,46.2,69
	c19.4,19.4,42.4,34.8,69,46.2c26.6,11.4,54.5,17.1,83.7,17.1c29.2,0,57.2-5.7,83.7-17.1c26.6-11.4,49.6-26.8,69-46.2
	C478.1,529.3,493.5,506.3,504.9,479.7z M420.7,407.5v23c0,3.1-1.1,5.8-3.4,8.1c-2.3,2.3-5,3.4-8.1,3.4H271.6c-3.1,0-5.8-1.1-8.1-3.4
	c-2.3-2.3-3.4-5-3.4-8.1V269.8c0-3.1,1.1-5.8,3.4-8.1c2.3-2.3,5-3.4,8.1-3.4h22.9c3.1,0,5.8,1.1,8.1,3.4c2.3,2.3,3.4,5,3.4,8.1V396
	h103.3c3.1,0,5.8,1.1,8.1,3.4C419.6,401.7,420.7,404.4,420.7,407.5z"/>
</svg>
