<?xml version="1.0" encoding="utf-8"?>
<!-- Generator: Adobe Illustrator 18.0.0, SVG Export Plug-In . SVG Version: 6.00 Build 0)  -->
<!DOCTYPE svg PUBLIC "-//W3C//DTD SVG 1.1//EN" "http://www.w3.org/Graphics/SVG/1.1/DTD/svg11.dtd">
<svg version="1.1" id="Layer_1" xmlns="http://www.w3.org/2000/svg" xmlns:xlink="http://www.w3.org/1999/xlink" x="0px" y="0px"
	 viewBox="0 0 200 200" enable-background="new 0 0 200 200" xml:space="preserve">
<g>
	<path d="M150.9,142.6c-23.6-8.6-31.1-15.9-31.1-31.4c0-9.3,7.2-6.3,10.4-23.4c1.3-7.1,7.7-0.1,8.9-16.3c0-6.4-3.5-8-3.5-8
		s1.8-9.5,2.5-16.9c0.9-9.1-5.3-32.8-38-32.8S61.1,37.5,62,46.6c0.7,7.3,2.5,16.9,2.5,16.9s-3.5,1.6-3.5,8
		c1.2,16.2,7.6,9.2,8.9,16.3c3.2,17.1,10.4,14,10.4,23.4c0,15.5-7.5,22.8-31.1,31.4C25.4,151.2,10,160,10,166c0,6,0,20.2,0,20.2h90
		h90c0,0,0-14.2,0-20.2C190,160,174.6,151.2,150.9,142.6z"/>
</g>
</svg>
