<?xml version="1.0" encoding="utf-8"?>
<!-- Generator: Adobe Illustrator 18.0.0, SVG Export Plug-In . SVG Version: 6.00 Build 0)  -->
<!DOCTYPE svg PUBLIC "-//W3C//DTD SVG 1.1//EN" "http://www.w3.org/Graphics/SVG/1.1/DTD/svg11.dtd">
<svg version="1.1" id="Layer_1" xmlns="http://www.w3.org/2000/svg" xmlns:xlink="http://www.w3.org/1999/xlink" x="0px" y="0px"
	 viewBox="0 0 200 200" enable-background="new 0 0 200 200" xml:space="preserve">
<path d="M100,10c-49.7,0-90,40.3-90,90c0,49.7,40.3,90,90,90c49.7,0,90-40.3,90-90C190,50.3,149.7,10,100,10z M163.4,152.7
	c-8.2-3.4-27.6-10.2-39.7-13.7c-1-0.3-1.2-0.4-1.2-4.6c0-3.5,1.4-7.1,2.9-10.1c1.5-3.3,3.4-8.7,4-13.7c1.8-2.1,4.3-6.3,5.9-14.2
	c1.4-7,0.7-9.6-0.2-12c-0.1-0.3-0.2-0.5-0.3-0.8c-0.4-1.6,0.1-10.2,1.3-16.8c0.8-4.5-0.2-14.2-6.5-22.2c-4-5.1-11.5-11.3-25.3-12.1
	l-7.6,0c-13.6,0.9-21.2,7.1-25.1,12.1c-6.3,8-7.3,17.7-6.5,22.2c1.2,6.6,1.7,15.2,1.3,16.8c-0.1,0.3-0.2,0.5-0.3,0.8
	c-0.9,2.4-1.6,4.9-0.2,12c1.6,8,4.1,12.1,5.9,14.2c0.6,4.9,2.5,10.4,4,13.7c1.1,2.4,1.6,5.6,1.6,10.2c0,4.3-0.2,4.3-1.1,4.6
	c-12.4,3.7-32.2,10.8-39.6,14c-12.1-14.4-19.5-32.9-19.5-53.1c0-45.5,37-82.5,82.5-82.5c45.5,0,82.5,37,82.5,82.5
	C182.5,120,175.3,138.4,163.4,152.7z"/>
</svg>
