<?xml version="1.0" encoding="utf-8"?>
<!-- Generator: Adobe Illustrator 18.0.0, SVG Export Plug-In . SVG Version: 6.00 Build 0)  -->
<!DOCTYPE svg PUBLIC "-//W3C//DTD SVG 1.1//EN" "http://www.w3.org/Graphics/SVG/1.1/DTD/svg11.dtd">
<svg version="1.1" id="Layer_1" xmlns="http://www.w3.org/2000/svg" xmlns:xlink="http://www.w3.org/1999/xlink" x="0px" y="0px"
	 viewBox="0 0 200 200" enable-background="new 0 0 200 200" xml:space="preserve">
<g id="Lozenge">
	<g>
		<path d="M188.2,64c0,0-1.8-12.4-7.2-17.9c-6.8-7.2-14.5-7.2-18-7.6c-25.2-1.8-63-1.8-63-1.8H100c0,0-37.8,0-63,1.8
			c-3.5,0.4-11.2,0.5-18,7.6C13.6,51.6,11.8,64,11.8,64S10,78.6,10,93.1v13.7c0,14.6,1.8,29.1,1.8,29.1s1.8,12.4,7.2,17.9
			c6.8,7.2,15.8,6.9,19.8,7.7c14.4,1.4,61.2,1.8,61.2,1.8s37.8-0.1,63-1.9c3.5-0.4,11.2-0.5,18-7.6c5.4-5.5,7.2-17.9,7.2-17.9
			s1.8-14.6,1.8-29.1V93.1C190,78.6,188.2,64,188.2,64z M81.4,123.3l0-50.6L130,98.1L81.4,123.3z"/>
	</g>
</g>
</svg>
