<?xml version="1.0" encoding="utf-8"?>
<!-- Generator: Adobe Illustrator 25.2.1, SVG Export Plug-In . SVG Version: 6.00 Build 0)  -->
<svg version="1.1" xmlns="http://www.w3.org/2000/svg" xmlns:xlink="http://www.w3.org/1999/xlink" x="0px" y="0px"
	 viewBox="0 0 1223.4 685.1" style="enable-background:new 0 0 1223.4 685.1;" xml:space="preserve">
<style type="text/css">
	.st0{display:none;}
	.st1{display:inline;fill:#050070;}
	.st2{fill:#FFFFFF;}
</style>
<g id="Layer_1" class="st0">
	<rect x="0" class="st1" width="1223.4" height="685.1"/>
</g>
<g id="Layer_2">
	<g>
		<path class="st2" d="M53.3,465.2L79,515.8l25.6-50.7H120l-33.2,64.2H71.1l-33.3-64.2H53.3z"/>
		<path class="st2" d="M237.3,529.4v-64.2H251v64.2H237.3z"/>
		<path class="st2" d="M418,465.2c19.9,0,24.6,6.8,24.6,22.9v18.5c0,16.1-4.7,22.9-24.6,22.9h-39.6v-64.2H418z M392.1,477v40.6H418
			c8,0,10.9-2.4,10.9-10.7v-19c0-8.3-3-10.8-10.9-10.8H392.1z"/>
		<path class="st2" d="M628.5,529.4H589c-19.9,0-24.6-6.8-24.6-22.9V488c0-16.1,4.7-22.9,24.6-22.9h39.5V477H589
			c-8.2,0-10.9,2.5-10.9,10.8v3.4h45.6v11.9H578v3.7c0,8.3,2.7,10.7,10.9,10.7h39.5V529.4z"/>
		<path class="st2" d="M749.9,488c0-16.1,4.7-22.9,24.6-22.9h18.6c20,0,24.7,6.8,24.7,22.9v18.5c0,16.1-4.7,22.9-24.7,22.9h-18.6
			c-19.9,0-24.6-6.8-24.6-22.9V488z M804.2,487.8c0-8.3-2.7-10.8-11-10.8h-18.6c-8.2,0-10.9,2.5-10.9,10.8v19
			c0,8.3,2.7,10.7,10.9,10.7h18.6c8.3,0,11-2.4,11-10.7V487.8z"/>
	</g>
	<g>
		<g>
			<path class="st2" d="M1043.9,350.3"/>
			<path class="st2" d="M1029,335.5l-39.7-26.4l-81.6-55c-0.1,0-0.1-0.1-0.1-0.1l-3.8-2.6c-24.9-16.8-31.5-50.7-14.7-75.7
				c16.8-25,50.7-31.5,75.7-14.7l126.3,85.2c0,0,0.1,0,0.1,0.1l37.2,26.6L1029,335.5z"/>
		</g>
		<g>
			<path class="st2" d="M970.5,385.1l164.8-106.8c0,0,16.9,11.6,24.5,17.7c0.2,0.1,0.4,0.3,0.6,0.4c1,0.7,1.9,1.4,2.8,2.1
				c0.8,0.6,1.6,1.2,2.3,1.9c1,0.8,2,1.7,2.9,2.7l0.1,0.1c1,1,3,3.1,3.9,4.2c0.5,0.5,0.9,1.1,1.4,1.7c0.2,0.2,0.3,0.3,0.4,0.5
				c0.4,0.5,0.9,1.1,1.2,1.7c0.3,0.4,0.6,0.8,0.8,1.2c1.8,2.7,3.4,5.5,4.6,8.3c0.4,1,0.8,2,1.2,3c0.4,1,0.7,2.1,1.1,3.1
				c0.3,1,0.6,2.1,0.9,3.1c0.2,1,0.5,2,0.7,3c0,0.1,0,0.2,0.1,0.4c0.2,1,0.3,2,0.4,3.1c0.1,1.1,0.2,2.2,0.3,3.3
				c0.1,1,0.1,2.1,0.1,3.1v0.1c0,1,0,2.1-0.1,3.1c-0.1,1.1-0.2,2.2-0.3,3.3c-0.1,1.1-0.3,2.2-0.5,3.2c0,0.1,0,0.1,0,0.2
				c-0.2,1-0.4,2-0.7,3c-0.8,3.2-1.8,6.3-3.2,9.3c-0.4,1-0.9,2-1.4,2.9l0,0c-0.5,1-1.1,1.9-1.6,2.9c-0.5,0.8-1,1.7-1.5,2.5
				c-1.4,2-2.8,3.8-4.4,5.6c-0.8,0.9-1.5,1.7-2.3,2.5c-2.4,2.4-5.1,4.6-8,6.6l-1.8,1.2l-0.6,0.4l-17.8,12c0,0,0,0,0,0c0,0,0,0-0.1,0
				c0,0,0,0-0.1,0v0c0,0-0.1,0.1-0.2,0.1l-68.8,45.7L970.5,385.1z"/>
		</g>
		<path class="st2" d="M1065.1,453.8l-104.2,70.4c-9.3,6.3-20,9.3-30.5,9.3c-10.9,0-21.8-3.3-30.9-9.6c-0.3-0.2-0.6-0.4-0.8-0.6
			c-5.2-3.6-9.8-8.3-13.6-13.9c-5.9-8.7-8.9-18.6-9.3-28.4V337.4l87.3,53.6l81.4,50c0,0,0.1,0,0.1,0.1l18.2,11.2L1065.1,453.8z"/>
	</g>
	<g>
		<path class="st2" d="M265.5,274.4c-16.1-13-41.2-19.1-78.9-19.1h-48.1c-25.5,0-39.4-3.4-39.4-21.4c0-14.5,6.1-21.8,39.4-21.8
			h131.1v-54.2H138.5c-36.9,0-62.6,6.4-78.4,19.6c-14.8,12.3-21.7,30.4-21.7,56.9c0,26.3,6.9,44.2,21.7,56.3
			c16,13.2,41,19.3,78.4,19.3h48.1c33.6,0,39.8,7.2,39.8,21.4c0,14.2-6.3,21.8-39.8,21.8H38.4v54.2h148.2c37.2,0,63.1-6.5,79.1-19.7
			c14.8-12.3,21.8-30.3,21.8-56.7C287.5,304.5,280.5,286.5,265.5,274.4z"/>
		<polygon class="st2" points="295,212 389.2,212 389.2,407.3 450.3,407.3 450.3,212 544.5,212 544.5,157.8 295,157.8 		"/>
		<polygon class="st2" points="758.3,157.8 758.3,317.7 629.2,157.8 569.9,157.8 569.9,407.3 631,407.3 631,247.7 760.2,407.3 
			819.4,407.3 819.4,157.8 		"/>
	</g>
</g>
</svg>
