<?xml version="1.0" encoding="utf-8"?>
<!-- Generator: Adobe Illustrator 25.2.1, SVG Export Plug-In . SVG Version: 6.00 Build 0)  -->
<svg version="1.1" xmlns="http://www.w3.org/2000/svg" xmlns:xlink="http://www.w3.org/1999/xlink" x="0px" y="0px"
	 viewBox="0 0 1223.4 685.1" style="enable-background:new 0 0 1223.4 685.1;" xml:space="preserve">
<style type="text/css">
	.st0{display:none;}
	.st1{fill:#FFFFFF;}
</style>
<g id="Layer_1">
</g>
<g id="Layer_2">
	<rect x="0" y="0" class="st0" width="1223.4" height="685.1"/>
	<g>
		<g>
			<g>
				<path class="st1" d="M135.8,492.1l32.7,64.3l32.5-64.3h19.6l-42.1,81.6h-20l-42.2-81.6H135.8z"/>
				<path class="st1" d="M369.6,573.7v-81.6H387v81.6H369.6z"/>
				<path class="st1" d="M866.4,573.7h-50.2c-25.3,0-31.3-8.6-31.3-29v-23.5c0-20.4,6-29,31.3-29h50.2v15h-50.2
					c-10.4,0-13.9,3.2-13.9,13.8v4.3h58v15.1h-58v4.7c0,10.6,3.5,13.6,13.9,13.6h50.2V573.7z"/>
				<path class="st1" d="M1020.7,521.1c0-20.4,6-29,31.3-29h23.6c25.4,0,31.4,8.6,31.4,29v23.5c0,20.4-6,29-31.4,29H1052
					c-25.3,0-31.3-8.6-31.3-29V521.1z M1089.7,520.8c0-10.6-3.5-13.8-14-13.8H1052c-10.4,0-13.9,3.2-13.9,13.8V545
					c0,10.6,3.5,13.6,13.9,13.6h23.6c10.6,0,14-3.1,14-13.6V520.8z"/>
			</g>
		</g>
		<g>
			<path class="st1" d="M404.4,224.3C384,207.7,352.1,200,304.3,200h-61.1c-32.4,0-50-4.3-50-27.2c0-18.4,7.7-27.7,50-27.7h166.3
				V76.4H243.2c-46.9,0-79.4,8.1-99.5,24.8c-18.7,15.6-27.5,38.5-27.5,72.1c0,33.3,8.7,56,27.5,71.5c20.3,16.7,52,24.5,99.5,24.5
				h61.1c42.7,0,50.5,9.2,50.5,27.2c0,18-8,27.7-50.5,27.7h-188V393h188c47.3,0,80.1-8.2,100.4-25c18.8-15.6,27.6-38.5,27.6-72
				C432.3,262.5,423.4,239.7,404.4,224.3z"/>
			<polygon class="st1" points="441.8,145.1 561.3,145.1 561.3,393 638.8,393 638.8,145.1 758.4,145.1 758.4,76.4 441.8,76.4 			"/>
			<polygon class="st1" points="1029.6,76.4 1029.6,279.3 865.8,76.4 790.6,76.4 790.6,393 868.2,393 868.2,190.5 1032,393 
				1107.2,393 1107.2,76.4 			"/>
		</g>
	</g>
	<g>
		<g>
			<path class="st1" d="M614.3,525.9"/>
			<path class="st1" d="M607.5,519.1l-14.8-9.5l-32.3-21.8c0,0,0,0,0,0l-1.5-1c-9.9-6.7-12.5-20.1-5.8-30c6.7-9.9,20.1-12.5,30-5.8
				l50.1,33.8c0,0,0,0,0,0l13.8,9.6L607.5,519.1z"/>
		</g>
		<g>
			<path class="st1" d="M586,538.9l64.5-41.5c0,0,6.7,4.6,9.7,7c0.1,0.1,0.2,0.1,0.2,0.1c0.4,0.3,0.8,0.5,1.1,0.8
				c0.3,0.2,0.6,0.5,0.9,0.7c0.4,0.3,0.8,0.7,1.1,1.1l0,0c0.4,0.4,1.2,1.2,1.6,1.7c0.2,0.2,0.4,0.4,0.5,0.7c0.1,0.1,0.1,0.1,0.2,0.2
				c0.2,0.2,0.3,0.4,0.5,0.7c0.1,0.1,0.2,0.3,0.3,0.5c0.7,1.1,1.3,2.2,1.8,3.3c0.2,0.4,0.3,0.8,0.5,1.2c0.2,0.4,0.3,0.8,0.4,1.2
				c0.1,0.4,0.2,0.8,0.3,1.2c0.1,0.4,0.2,0.8,0.3,1.2c0,0.1,0,0.1,0,0.1c0.1,0.4,0.1,0.8,0.2,1.2c0.1,0.4,0.1,0.9,0.1,1.3
				c0,0.4,0,0.8,0,1.2v0.1c0,0.4,0,0.8,0,1.2c0,0.4-0.1,0.9-0.1,1.3c-0.1,0.4-0.1,0.9-0.2,1.3c0,0,0,0.1,0,0.1
				c-0.1,0.4-0.2,0.8-0.3,1.2c-0.3,1.3-0.7,2.5-1.3,3.7c-0.2,0.4-0.4,0.8-0.6,1.2l0,0c-0.2,0.4-0.4,0.8-0.6,1.1
				c-0.2,0.3-0.4,0.7-0.6,1c-0.5,0.8-1.1,1.5-1.7,2.2c-0.3,0.3-0.6,0.7-0.9,1c-1,1-2,1.8-3.2,2.6l-0.7,0.5l-0.2,0.2l-7.1,4.8
				c0,0,0,0,0,0c0,0,0,0,0,0c0,0,0,0,0,0v0c0,0,0,0-0.1,0.1l-26.4,17.3L586,538.9z"/>
		</g>
		<path class="st1" d="M622.7,566.9l-41.3,27.9c-3.7,2.5-7.9,3.7-12.1,3.7c-4.3,0-8.6-1.3-12.2-3.8c-0.1-0.1-0.2-0.2-0.3-0.2
			c-2-1.4-3.9-3.3-5.4-5.5c-2.3-3.5-3.5-7.4-3.7-11.3v-56.9l34.6,21.3l32.3,19.8c0,0,0,0,0,0l7.2,4.4L622.7,566.9z"/>
	</g>
</g>
</svg>
