<?xml version="1.0" encoding="utf-8"?>
<!-- Generator: Adobe Illustrator 18.0.0, SVG Export Plug-In . SVG Version: 6.00 Build 0)  -->
<!DOCTYPE svg PUBLIC "-//W3C//DTD SVG 1.1//EN" "http://www.w3.org/Graphics/SVG/1.1/DTD/svg11.dtd">
<svg version="1.1" id="Layer_1" xmlns="http://www.w3.org/2000/svg" xmlns:xlink="http://www.w3.org/1999/xlink" x="0px" y="0px"
	 viewBox="0 0 200 200" enable-background="new 0 0 200 200" xml:space="preserve">
<path d="M151.2,97.5c-0.1-0.4-0.2-0.7-0.3-1.1c-0.1-0.4-0.2-0.9-0.4-1.3c-0.2-0.4-0.4-0.8-0.7-1.3c-0.2-0.3-0.3-0.7-0.5-1
	c-0.5-0.7-1-1.4-1.6-2L70.5,13.8c-5-5-13.2-5-18.2,0c-5,5-5,13.2,0,18.2l68.9,68.1L77,143.4l-24.6,24.6c-5,5-5,13.2,0,18.2
	c2.5,2.5,5.8,3.8,9.1,3.8c3.3,0,6.6-1.3,9.1-3.8l77.1-77.1c0.6-0.6,1.1-1.3,1.6-2c0.2-0.3,0.3-0.6,0.5-1c0.2-0.4,0.5-0.8,0.7-1.3
	c0.2-0.4,0.3-0.9,0.4-1.3c0.1-0.4,0.3-0.7,0.3-1.1C151.5,100.9,151.5,99.1,151.2,97.5z"/>
</svg>
