<?xml version="1.0" encoding="utf-8"?>
<!-- Generator: Adobe Illustrator 18.1.1, SVG Export Plug-In . SVG Version: 6.00 Build 0)  -->
<svg version="1.1" id="Layer_1" xmlns="http://www.w3.org/2000/svg" xmlns:xlink="http://www.w3.org/1999/xlink" x="0px" y="0px"
	 viewBox="0 0 612 792" enable-background="new 0 0 612 792" xml:space="preserve">
<g display="none">
	<g display="inline">
		<path d="M212.7,465.8h9.5l44.1-55.4l16.2,20.2l42.2-52.9l23.9,29.4v-51.7H212.7V465.8z M240.8,364.2c11.9,0,21.4,9.5,21.4,21.4
			c0,11.9-9.5,21.4-21.4,21.4s-21.4-9.5-21.4-21.4C219.4,373.7,228.9,364.2,240.8,364.2z"/>
		<path d="M306,179.7c-119.3,0-216.3,97-216.3,216.3s97,216.3,216.3,216.3s216.3-97,216.3-216.3S425.3,179.7,306,179.7z
			 M364.8,490.2c0,7.3-4.9,13.5-11.3,15.3c-0.3,0-0.3,0-0.6,0.3c-1.2,0.3-2.8,0.6-4,0.6l0,0H212.7l0,0c-1.5,0-2.8-0.3-4.3-0.6
			c-0.3,0-0.3,0-0.6-0.3c-6.7-2.1-11.3-8.3-11.3-15.3V354.4c0-8.9,7.3-16.2,16.2-16.2l0,0h135.9l0,0c8.9,0,16.2,7.3,16.2,16.2
			L364.8,490.2L364.8,490.2z M390.1,464.2c0,7.3-4.9,13.5-11.3,15.3c-0.3,0-0.3,0-0.6,0.3c-1.2,0.3-2.8,0.6-4,0.6l0,0V342.8
			c0.3-14.7-14.4-13.8-14.4-13.8H222.2v-0.9c0-8.9,7.3-16.2,16.2-16.2l0,0h135.9l0,0c8.9,0,16.2,7.3,16.2,16.2v136.2H390.1z
			 M415.5,437.6c0,7.3-4.9,13.5-11.3,15.3c-0.3,0-0.3,0-0.6,0.3c-1.2,0.3-2.8,0.6-4.3,0.6l0,0V316.1c0.3-14.7-14.4-13.8-14.4-13.8
			H247.2v-0.9c0-8.9,7.3-16.2,16.2-16.2l0,0h135.9l0,0c8.9,0,16.2,7.3,16.2,16.2L415.5,437.6L415.5,437.6z"/>
	</g>
	<path display="inline" d="M306,120.6C154.2,120.6,30.6,244.2,30.6,396S154.2,671.4,306,671.4S581.4,547.8,581.4,396
		S457.8,120.6,306,120.6z M306,654.9C163.1,654.9,47.1,538.6,47.1,396S163.4,137.1,306,137.1S564.9,253.4,564.9,396
		S448.9,654.9,306,654.9z"/>
</g>
<g>
	<path d="M293,440.9c3.4,3.4,8.1,5.4,13,5.4s9.5-1.9,13-5.4l184.9-184.9c7.2-7.2,7.2-18.8,0-25.9c-7.2-7.2-18.8-7.2-25.9,0L306,402
		L134,230c-7.2-7.2-18.8-7.2-25.9,0c-7.2,7.2-7.2,18.8,0,25.9L293,440.9z"/>
	<path d="M562.7,530.7H49.3c-10.1,0-18.3,8.2-18.3,18.3c0,10.1,8.2,18.3,18.3,18.3h513.3c10.1,0,18.3-8.2,18.3-18.3
		C581,538.9,572.8,530.7,562.7,530.7z"/>
</g>
</svg>
