<?xml version="1.0" encoding="utf-8"?>
<!-- Generator: Adobe Illustrator 18.0.0, SVG Export Plug-In . SVG Version: 6.00 Build 0)  -->
<!DOCTYPE svg PUBLIC "-//W3C//DTD SVG 1.1//EN" "http://www.w3.org/Graphics/SVG/1.1/DTD/svg11.dtd">
<svg version="1.1" id="Layer_1" xmlns="http://www.w3.org/2000/svg" xmlns:xlink="http://www.w3.org/1999/xlink" x="0px" y="0px"
	 viewBox="0 0 200 200" enable-background="new 0 0 200 200" xml:space="preserve">
<g display="none">
	<path display="inline" d="M175.6,53.2h-29.8l-17.3-17.3c0,0,0,0-0.1-0.1l0,0l0,0c-2.6-2.6-6.2-4.2-10.1-4.2h-36
		c-4.2,0-7.9,1.8-10.5,4.7l0,0l-17,17H24.4c-8,0-14.4,6.4-14.4,14.4V154c0,8,6.4,14.4,14.4,14.4h151.2c8,0,14.4-6.4,14.4-14.4V67.6
		C190,59.6,183.6,53.2,175.6,53.2z M100,146.8c-21.8,0-39.6-17.8-39.6-39.6S78.2,67.6,100,67.6s39.6,17.8,39.6,39.6
		S121.8,146.8,100,146.8z"/>
	<path display="inline" d="M100,74.8c-17.9,0-32.4,14.5-32.4,32.4s14.5,32.4,32.4,32.4s32.4-14.5,32.4-32.4S117.9,74.8,100,74.8z"/>
</g>
<path fill-rule="evenodd" clip-rule="evenodd" d="M33.1,10h133.8c12.7,0,23.1,10.4,23.1,23.1v133.8c0,12.7-10.4,23.1-23.1,23.1H33.1
	C20.4,190,10,179.6,10,166.9V33.1C10,20.4,20.4,10,33.1,10L33.1,10z M141.1,30c-4.5,0-8.1,3.6-8.1,8.1v19.4c0,4.5,3.6,8.1,8.1,8.1
	h20.3c4.5,0,8.1-3.6,8.1-8.1V38.1c0-4.5-3.6-8.1-8.1-8.1H141.1L141.1,30z M169.7,86.1h-15.8c1.5,4.9,2.3,10.1,2.3,15.4
	c0,29.9-25,54.2-55.9,54.2c-30.9,0-55.9-24.3-55.9-54.2c0-5.4,0.8-10.5,2.3-15.4H30v76c0,3.9,3.2,7.2,7.2,7.2h125.3
	c3.9,0,7.2-3.2,7.2-7.2V86.1L169.7,86.1z M100.2,64.6c-20,0-36.2,15.7-36.2,35c0,19.3,16.2,35,36.2,35c20,0,36.2-15.7,36.2-35
	C136.3,80.3,120.1,64.6,100.2,64.6z"/>
</svg>
