<?xml version="1.0" encoding="utf-8"?>
<!-- Generator: Adobe Illustrator 18.0.0, SVG Export Plug-In . SVG Version: 6.00 Build 0)  -->
<!DOCTYPE svg PUBLIC "-//W3C//DTD SVG 1.1//EN" "http://www.w3.org/Graphics/SVG/1.1/DTD/svg11.dtd">
<svg version="1.1" id="Layer_1" xmlns="http://www.w3.org/2000/svg" xmlns:xlink="http://www.w3.org/1999/xlink" x="0px" y="0px"
	 viewBox="0 0 200 200" enable-background="new 0 0 200 200" xml:space="preserve">
<g>
	<path d="M100,10c-49.6,0-90,40.4-90,90s40.4,90,90,90s90-40.4,90-90S149.6,10,100,10z M100,184.6c-46.7,0-84.6-38-84.6-84.6
		s38-84.6,84.6-84.6s84.6,38,84.6,84.6S146.7,184.6,100,184.6z"/>
	<g>
		<path d="M119.2,105.3c-0.9-0.9-2.1-1.4-3.4-1.4c-1.4,0-2.6,0.5-3.6,1.6c1.6,1.6,3.6,3,3.6,5.5c0,2.6-2.1,4.7-4.7,4.7
			c-2.5,0-3.9-1.9-5.5-3.6c-1,1-1.6,2.1-1.6,3.6c0,1.2,0.5,2.5,1.4,3.4l10.2,10.2c0.9,0.9,2.1,1.3,3.4,1.3c1.2,0,2.5-0.4,3.4-1.3
			l7.3-7.2c0.9-0.9,1.4-2.1,1.4-3.3c0-1.3-0.5-2.5-1.4-3.4L119.2,105.3z"/>
		<path d="M100,29.3C61,29.3,29.3,61,29.3,100S61,170.7,100,170.7s70.7-31.7,70.7-70.7S139,29.3,100,29.3z M136.1,129l-7.3,7.2
			c-2.7,2.7-6.3,4.1-10,4.1c-3.8,0-7.4-1.5-10.1-4.2l-10.2-10.2c-2.7-2.7-4.1-6.3-4.1-10c0-3.9,1.6-7.6,4.3-10.3l-4.3-4.3
			c-2.7,2.8-6.4,4.3-10.3,4.3c-3.7,0-7.4-1.5-10.1-4.1L63.9,91.1c-2.7-2.7-4.1-6.3-4.1-10.1c0-3.7,1.5-7.4,4.2-10l7.3-7.2
			c2.7-2.7,6.3-4.1,10-4.1c3.8,0,7.4,1.5,10.1,4.2l10.2,10.2c2.7,2.7,4.1,6.3,4.1,10c0,3.9-1.6,7.6-4.3,10.3l4.3,4.3
			c2.7-2.8,6.4-4.3,10.3-4.3c3.7,0,7.4,1.5,10.1,4.1l10.3,10.3c2.7,2.7,4.1,6.3,4.1,10.1C140.3,122.7,138.8,126.4,136.1,129z"/>
		<path d="M84.5,70.6c-0.9-0.9-2.1-1.4-3.4-1.4c-1.2,0-2.5,0.5-3.4,1.3l-7.3,7.2c-0.9,0.9-1.4,2.1-1.4,3.3c0,1.3,0.5,2.5,1.4,3.4
			l10.3,10.3c0.9,0.9,2.1,1.3,3.4,1.3c1.4,0,2.6-0.5,3.6-1.5c-1.6-1.6-3.6-3-3.6-5.5c0-2.6,2.1-4.7,4.7-4.7c2.5,0,3.9,1.9,5.5,3.6
			c1-1,1.6-2.1,1.6-3.6c0-1.2-0.5-2.5-1.4-3.4L84.5,70.6z"/>
	</g>
</g>
</svg>
