<?xml version="1.0" encoding="utf-8"?>
<!-- Generator: Adobe Illustrator 18.0.0, SVG Export Plug-In . SVG Version: 6.00 Build 0)  -->
<!DOCTYPE svg PUBLIC "-//W3C//DTD SVG 1.1//EN" "http://www.w3.org/Graphics/SVG/1.1/DTD/svg11.dtd">
<svg version="1.1" id="Layer_1" xmlns="http://www.w3.org/2000/svg" xmlns:xlink="http://www.w3.org/1999/xlink" x="0px" y="0px"
	 viewBox="0 0 256 256" enable-background="new 0 0 256 256" xml:space="preserve">
<path d="M238.4,151c0,0.5,0,0.9-0.1,1.1c-6.4,26.8-19.8,48.5-40.2,65.2s-44.3,25-71.7,25c-14.6,0-28.7-2.7-42.4-8.2
	s-25.8-13.3-36.5-23.6l-19.4,19.4c-1.9,1.9-4.2,2.9-6.8,2.9s-4.8-0.9-6.8-2.9s-2.8-4.2-2.8-6.8v-67.2c0-2.6,0.9-4.8,2.8-6.8
	s4.2-2.9,6.8-2.9h67.2c2.6,0,4.8,0.9,6.8,2.9c1.9,1.9,2.8,4.2,2.8,6.8s-0.9,4.8-2.8,6.8l-20.5,20.6c7.1,6.6,15.1,11.7,24.1,15.3
	c9,3.6,18.3,5.4,28.1,5.4c13.4,0,25.9-3.3,37.5-9.8s20.9-15.4,27.9-26.9c1.1-1.7,3.8-7.5,8-17.6c0.8-2.3,2.3-3.4,4.5-3.4h28.8
	c1.3,0,2.4,0.5,3.4,1.4C238,148.6,238.4,149.7,238.4,151z M242.2,31v67.2c0,2.6-0.9,4.8-2.8,6.8c-1.9,1.9-4.2,2.9-6.8,2.9h-67.2
	c-2.6,0-4.8-0.9-6.8-2.9c-1.9-1.9-2.8-4.2-2.8-6.8c0-2.6,0.9-4.8,2.8-6.8l20.7-20.7c-14.8-13.7-32.2-20.5-52.4-20.5
	c-13.4,0-25.9,3.3-37.5,9.8S68.6,75.4,61.6,86.8c-1.1,1.7-3.8,7.5-7.9,17.5c-0.8,2.3-2.3,3.5-4.5,3.5H19.3c-1.3,0-2.4-0.5-3.4-1.4
	s-1.4-2.1-1.4-3.4v-1.1C21,75.1,34.5,53.4,55,36.8s44.5-25,72-25c14.6,0,28.8,2.8,42.6,8.3c13.8,5.5,26.1,13.4,36.8,23.5l19.5-19.3
	c1.9-1.9,4.2-2.9,6.8-2.9c2.6,0,4.8,0.9,6.8,2.9C241.3,26.2,242.2,28.4,242.2,31z"/>
</svg>
