<?xml version="1.0" encoding="utf-8"?>
<!-- Generator: Adobe Illustrator 18.0.0, SVG Export Plug-In . SVG Version: 6.00 Build 0)  -->
<!DOCTYPE svg PUBLIC "-//W3C//DTD SVG 1.1//EN" "http://www.w3.org/Graphics/SVG/1.1/DTD/svg11.dtd">
<svg version="1.1" id="Layer_1" xmlns="http://www.w3.org/2000/svg" xmlns:xlink="http://www.w3.org/1999/xlink" x="0px" y="0px"
	 viewBox="0 0 200 200" enable-background="new 0 0 200 200" xml:space="preserve">
<g display="none">
	<path display="inline" d="M175.6,53.2h-29.8l-17.3-17.3c0,0,0,0-0.1-0.1l0,0l0,0c-2.6-2.6-6.2-4.2-10.1-4.2h-36
		c-4.2,0-7.9,1.8-10.5,4.7l0,0l-17,17H24.4c-8,0-14.4,6.4-14.4,14.4V154c0,8,6.4,14.4,14.4,14.4h151.2c8,0,14.4-6.4,14.4-14.4V67.6
		C190,59.6,183.6,53.2,175.6,53.2z M100,146.8c-21.8,0-39.6-17.8-39.6-39.6S78.2,67.6,100,67.6s39.6,17.8,39.6,39.6
		S121.8,146.8,100,146.8z"/>
	<path display="inline" d="M100,74.8c-17.9,0-32.4,14.5-32.4,32.4s14.5,32.4,32.4,32.4s32.4-14.5,32.4-32.4S117.9,74.8,100,74.8z"/>
</g>
<g>
	<path d="M100,29.3C61,29.3,29.3,61,29.3,100c0,39,31.7,70.7,70.7,70.7s70.7-31.7,70.7-70.7C170.7,61,139,29.3,100,29.3z
		 M144.3,103.6l-65.1,36.2c-0.4,0.2-0.8,0.3-1.2,0.3c-0.9,0-1.6-0.7-1.6-2V66c0-1.2,0.6-2,1.6-2c0.4,0,0.8,0.1,1.2,0.3l65.1,36.2
		C145.8,101.4,145.8,102.8,144.3,103.6z"/>
	<g>
		<path d="M100,190c-49.6,0-90-40.4-90-90s40.4-90,90-90s90,40.4,90,90S149.6,190,100,190z M100,15.4c-46.7,0-84.6,38-84.6,84.6
			s38,84.6,84.6,84.6s84.6-38,84.6-84.6S146.7,15.4,100,15.4z"/>
	</g>
</g>
</svg>
