<?xml version="1.0" standalone="no"?>
<!DOCTYPE svg PUBLIC "-//W3C//DTD SVG 20010904//EN"
 "http://www.w3.org/TR/2001/REC-SVG-20010904/DTD/svg10.dtd">
<svg version="1.0" xmlns="http://www.w3.org/2000/svg"
 width="3750.000000pt" height="3750.000000pt" viewBox="0 0 3750.000000 3750.000000"
 preserveAspectRatio="xMidYMid meet">
<metadata>
Created by potrace 1.11, written by Peter Selinger 2001-2013
</metadata>
<g transform="translate(0.000000,3750.000000) scale(0.100000,-0.100000)"
fill="#000000" stroke="none">
<path d="M18150 37494 c-714 -32 -1081 -60 -1590 -120 -2908 -341 -5695 -1362
-8135 -2981 -1817 -1206 -3396 -2698 -4705 -4448 -1186 -1585 -2109 -3341
-2741 -5212 -510 -1513 -817 -3040 -933 -4643 -35 -477 -41 -676 -41 -1340 0
-771 14 -1098 75 -1760 251 -2708 1111 -5365 2498 -7720 1271 -2158 2961
-4042 4977 -5550 1585 -1186 3341 -2109 5212 -2741 1513 -510 3040 -817 4643
-933 477 -35 676 -41 1340 -41 771 0 1098 14 1760 75 2708 251 5365 1111 7720
2498 1990 1172 3753 2705 5200 4522 1351 1696 2399 3618 3091 5667 510 1513
817 3040 933 4643 35 477 41 676 41 1340 0 771 -14 1098 -75 1760 -251 2708
-1111 5365 -2498 7720 -1172 1990 -2705 3753 -4522 5200 -1848 1472 -3978
2591 -6225 3270 -1476 446 -2862 687 -4490 781 -179 10 -1372 20 -1535 13z
m1510 -1143 c102 -6 304 -20 450 -31 4438 -338 8589 -2366 11630 -5680 1648
-1796 2927 -3955 3705 -6251 469 -1385 762 -2818 874 -4274 40 -521 46 -688
46 -1365 0 -677 -6 -844 -46 -1365 -200 -2609 -972 -5111 -2277 -7385 -1050
-1830 -2430 -3467 -4062 -4822 -1521 -1261 -3250 -2262 -5100 -2951 -1529
-570 -3123 -920 -4765 -1046 -521 -40 -688 -46 -1365 -46 -677 0 -844 6 -1365
46 -2591 199 -5073 959 -7335 2247 -1690 962 -3242 2227 -4525 3687 -2046
2328 -3439 5126 -4046 8125 -146 722 -242 1410 -298 2145 -40 521 -46 688 -46
1365 0 677 6 844 46 1365 230 2995 1226 5874 2900 8381 1129 1691 2521 3161
4144 4373 1489 1114 3154 1990 4902 2582 1526 516 3151 824 4743 899 124 6
257 12 295 14 154 7 1322 -3 1495 -13z"/>
<path d="M18170 33739 c-3050 -122 -5932 -1138 -8370 -2952 -2172 -1616 -3870
-3792 -4909 -6290 -556 -1336 -921 -2790 -1065 -4237 -54 -541 -71 -890 -71
-1510 0 -530 8 -757 41 -1170 183 -2347 900 -4580 2113 -6585 1481 -2450 3637
-4429 6206 -5700 1713 -846 3545 -1349 5465 -1499 413 -33 640 -41 1170 -41
530 0 757 8 1170 41 2347 183 4580 900 6585 2113 1650 998 3111 2322 4263
3866 851 1140 1523 2365 2020 3680 499 1322 806 2705 916 4125 33 423 40 630
40 1165 1 536 -7 759 -40 1175 -222 2834 -1222 5502 -2917 7780 -1616 2172
-3792 3870 -6290 4909 -1509 628 -3138 1005 -4792 1111 -460 29 -1087 37
-1535 19z m7893 -8051 c113 -31 242 -96 329 -166 114 -90 225 -252 272 -395
49 -146 46 223 46 -6368 0 -4309 -3 -6171 -11 -6226 -48 -354 -302 -637 -649
-724 l-95 -24 -7210 0 -7210 0 -98 27 c-113 31 -242 96 -329 166 -114 90 -225
252 -272 395 -49 146 -46 -224 -46 6377 0 6601 -3 6231 46 6377 47 143 158
305 272 395 63 51 202 128 265 148 21 7 77 20 125 30 84 18 337 19 7277 17
l7190 -2 98 -27z"/>
<path d="M11790 18750 l0 -5970 6960 0 6960 0 0 5970 0 5970 -6960 0 -6960 0
0 -5970z m10580 4965 c179 -11 368 -67 548 -160 390 -203 667 -562 770 -999
23 -101 26 -130 26 -321 0 -227 -10 -302 -69 -480 -144 -438 -514 -804 -955
-943 -182 -57 -247 -67 -460 -67 -213 0 -278 10 -460 67 -501 158 -885 583
-1002 1108 -20 91 -23 132 -23 310 0 178 3 219 23 309 131 583 568 1023 1146
1152 87 19 283 38 336 33 14 -2 68 -6 120 -9z m-4114 -4470 l1988 -2485 495 0
496 1 1737 1489 c955 820 1739 1490 1742 1490 3 0 6 -1341 6 -2980 l0 -2980
-5970 0 -5970 0 0 991 0 992 1707 2926 c939 1609 1722 2952 1740 2984 19 31
36 57 37 57 2 0 899 -1118 1992 -2485z"/>
</g>
</svg>
