<?xml version="1.0" standalone="no"?>
<!DOCTYPE svg PUBLIC "-//W3C//DTD SVG 20010904//EN"
 "http://www.w3.org/TR/2001/REC-SVG-20010904/DTD/svg10.dtd">
<svg version="1.0" xmlns="http://www.w3.org/2000/svg"
 width="3750.000000pt" height="3750.000000pt" viewBox="0 0 3750.000000 3750.000000"
 preserveAspectRatio="xMidYMid meet">
<metadata>
Created by potrace 1.11, written by Peter Selinger 2001-2013
</metadata>
<g transform="translate(0.000000,3750.000000) scale(0.100000,-0.100000)"
fill="#000000" stroke="none">
<path d="M18150 37494 c-714 -32 -1081 -60 -1590 -120 -2908 -341 -5695 -1362
-8135 -2981 -1817 -1206 -3396 -2698 -4705 -4448 -1186 -1585 -2109 -3341
-2741 -5212 -510 -1513 -817 -3040 -933 -4643 -35 -477 -41 -676 -41 -1340 0
-771 14 -1098 75 -1760 251 -2708 1111 -5365 2498 -7720 1271 -2158 2961
-4042 4977 -5550 1585 -1186 3341 -2109 5212 -2741 1513 -510 3040 -817 4643
-933 477 -35 676 -41 1340 -41 771 0 1098 14 1760 75 2708 251 5365 1111 7720
2498 1990 1172 3753 2705 5200 4522 1351 1696 2399 3618 3091 5667 510 1513
817 3040 933 4643 35 477 41 676 41 1340 0 771 -14 1098 -75 1760 -251 2708
-1111 5365 -2498 7720 -1172 1990 -2705 3753 -4522 5200 -1848 1472 -3978
2591 -6225 3270 -1476 446 -2862 687 -4490 781 -179 10 -1372 20 -1535 13z
m1510 -1143 c102 -6 304 -20 450 -31 4438 -338 8589 -2366 11630 -5680 1648
-1796 2927 -3955 3705 -6251 469 -1385 762 -2818 874 -4274 40 -521 46 -688
46 -1365 0 -677 -6 -844 -46 -1365 -200 -2609 -972 -5111 -2277 -7385 -1050
-1830 -2430 -3467 -4062 -4822 -1521 -1261 -3250 -2262 -5100 -2951 -1529
-570 -3123 -920 -4765 -1046 -521 -40 -688 -46 -1365 -46 -677 0 -844 6 -1365
46 -2591 199 -5073 959 -7335 2247 -1690 962 -3242 2227 -4525 3687 -2046
2328 -3439 5126 -4046 8125 -146 722 -242 1410 -298 2145 -40 521 -46 688 -46
1365 0 677 6 844 46 1365 230 2995 1226 5874 2900 8381 1129 1691 2521 3161
4144 4373 1489 1114 3154 1990 4902 2582 1526 516 3151 824 4743 899 124 6
257 12 295 14 154 7 1322 -3 1495 -13z"/>
<path d="M17980 33460 c0 -20 -7 -20 -295 -20 -288 0 -295 0 -295 -20 0 -19
-7 -20 -205 -20 -198 0 -205 -1 -205 -20 0 -19 -7 -20 -145 -20 l-145 0 0 -25
0 -25 -150 0 c-143 0 -150 -1 -150 -20 0 -19 -7 -20 -125 -20 -118 0 -125 -1
-125 -20 0 -19 -7 -20 -100 -20 -93 0 -100 -1 -100 -20 0 -19 -7 -20 -105 -20
-98 0 -105 -1 -105 -20 0 -19 -7 -20 -105 -20 -98 0 -105 -1 -105 -20 0 -18
-7 -20 -85 -20 -84 0 -85 0 -85 -25 0 -25 -1 -25 -80 -25 -73 0 -80 -2 -80
-20 0 -18 -7 -20 -85 -20 -78 0 -85 -2 -85 -20 0 -18 -7 -20 -85 -20 -78 0
-85 -2 -85 -20 0 -18 -7 -20 -80 -20 -73 0 -80 -2 -80 -20 0 -18 -7 -20 -65
-20 -58 0 -65 -2 -65 -20 0 -18 -7 -20 -60 -20 -57 0 -60 -1 -60 -25 0 -24 -2
-25 -65 -25 -58 0 -65 -2 -65 -20 0 -18 -7 -20 -85 -20 -78 0 -85 -2 -85 -20
0 -18 -7 -20 -60 -20 -53 0 -60 -2 -60 -20 0 -17 -7 -20 -40 -20 -33 0 -40 -3
-40 -20 0 -18 -7 -20 -65 -20 -58 0 -65 -2 -65 -20 0 -18 -7 -20 -60 -20 -57
0 -60 -1 -60 -25 0 -24 -2 -25 -65 -25 -58 0 -65 -2 -65 -20 0 -17 -7 -20 -40
-20 -33 0 -40 -3 -40 -20 0 -18 -7 -20 -65 -20 -58 0 -65 -2 -65 -20 0 -18 -7
-20 -60 -20 -53 0 -60 -2 -60 -20 0 -17 -7 -20 -45 -20 -38 0 -45 -3 -45 -20
0 -17 -7 -20 -40 -20 -36 0 -40 -2 -40 -25 0 -24 -3 -25 -60 -25 -53 0 -60 -2
-60 -20 0 -17 -7 -20 -45 -20 -38 0 -45 -3 -45 -20 0 -17 -7 -20 -40 -20 -33
0 -40 -3 -40 -20 0 -18 -7 -20 -65 -20 -58 0 -65 -2 -65 -20 0 -17 -7 -20 -40
-20 -33 0 -40 -3 -40 -20 0 -17 -7 -20 -40 -20 -36 0 -40 -2 -40 -25 0 -23 -4
-25 -45 -25 -38 0 -45 -3 -45 -20 0 -17 -7 -20 -40 -20 -33 0 -40 -3 -40 -20
0 -17 -7 -20 -40 -20 -33 0 -40 -3 -40 -20 0 -17 -7 -20 -45 -20 -38 0 -45 -3
-45 -20 0 -17 -7 -20 -40 -20 -33 0 -40 -3 -40 -20 0 -17 -7 -20 -40 -20 -36
0 -40 -2 -40 -25 0 -23 -4 -25 -45 -25 -38 0 -45 -3 -45 -20 0 -17 -7 -20 -40
-20 -33 0 -40 -3 -40 -20 0 -17 -7 -20 -40 -20 -33 0 -40 -3 -40 -20 0 -13 -7
-20 -20 -20 -13 0 -20 -7 -20 -20 0 -17 -7 -20 -45 -20 -38 0 -45 -3 -45 -20
0 -17 -7 -20 -40 -20 -36 0 -40 -2 -40 -25 0 -22 -4 -25 -40 -25 -33 0 -40 -3
-40 -20 0 -17 -7 -20 -45 -20 -38 0 -45 -3 -45 -20 0 -13 -7 -20 -20 -20 -13
0 -20 -7 -20 -20 0 -17 -7 -20 -40 -20 -33 0 -40 -3 -40 -20 0 -17 -7 -20 -40
-20 -33 0 -40 -3 -40 -20 0 -15 -7 -20 -25 -20 -20 0 -25 -5 -25 -25 0 -22 -4
-25 -40 -25 -33 0 -40 -3 -40 -20 0 -17 -7 -20 -40 -20 -33 0 -40 -3 -40 -20
0 -13 -7 -20 -20 -20 -13 0 -20 -7 -20 -20 0 -17 -7 -20 -45 -20 -38 0 -45 -3
-45 -20 0 -13 -7 -20 -20 -20 -13 0 -20 -7 -20 -20 0 -17 -7 -20 -40 -20 -36
0 -40 -2 -40 -25 0 -18 -5 -25 -20 -25 -13 0 -20 -7 -20 -20 0 -17 -7 -20 -45
-20 -38 0 -45 -3 -45 -20 0 -13 -7 -20 -20 -20 -13 0 -20 -7 -20 -20 0 -17 -7
-20 -40 -20 -33 0 -40 -3 -40 -20 0 -13 -7 -20 -20 -20 -13 0 -20 -7 -20 -20
0 -17 -7 -20 -45 -20 -41 0 -45 -2 -45 -25 0 -18 -5 -25 -20 -25 -13 0 -20 -7
-20 -20 0 -17 -7 -20 -40 -20 -33 0 -40 -3 -40 -20 0 -13 -7 -20 -20 -20 -13
0 -20 -7 -20 -20 0 -15 -7 -20 -25 -20 -18 0 -25 -5 -25 -20 0 -17 -7 -20 -40
-20 -33 0 -40 -3 -40 -20 0 -13 -7 -20 -20 -20 -15 0 -20 -7 -20 -25 0 -18 -5
-25 -20 -25 -13 0 -20 -7 -20 -20 0 -17 -7 -20 -45 -20 -38 0 -45 -3 -45 -20
0 -13 -7 -20 -20 -20 -13 0 -20 -7 -20 -20 0 -13 -7 -20 -20 -20 -13 0 -20 -7
-20 -20 0 -17 -7 -20 -40 -20 -33 0 -40 -3 -40 -20 0 -13 -7 -20 -20 -20 -15
0 -20 -7 -20 -25 0 -20 -5 -25 -25 -25 -18 0 -25 -5 -25 -20 0 -13 -7 -20 -20
-20 -13 0 -20 -7 -20 -20 0 -17 -7 -20 -40 -20 -33 0 -40 -3 -40 -20 0 -13 -7
-20 -20 -20 -13 0 -20 -7 -20 -20 0 -13 -7 -20 -20 -20 -13 0 -20 -7 -20 -20
0 -15 -7 -20 -25 -20 -20 0 -25 -5 -25 -25 0 -18 -5 -25 -20 -25 -13 0 -20 -7
-20 -20 0 -17 -7 -20 -40 -20 -33 0 -40 -3 -40 -20 0 -13 -7 -20 -20 -20 -13
0 -20 -7 -20 -20 0 -13 -7 -20 -20 -20 -13 0 -20 -7 -20 -20 0 -15 -7 -20 -25
-20 -18 0 -25 -5 -25 -20 0 -13 -7 -20 -20 -20 -15 0 -20 -7 -20 -25 0 -18 -5
-25 -20 -25 -13 0 -20 -7 -20 -20 0 -17 -7 -20 -40 -20 -33 0 -40 -3 -40 -20
0 -13 -7 -20 -20 -20 -13 0 -20 -7 -20 -20 0 -15 -7 -20 -25 -20 -18 0 -25 -5
-25 -20 0 -13 -7 -20 -20 -20 -13 0 -20 -7 -20 -20 0 -13 -7 -20 -20 -20 -15
0 -20 -7 -20 -25 0 -18 -5 -25 -20 -25 -13 0 -20 -7 -20 -20 0 -13 -7 -20 -20
-20 -13 0 -20 -7 -20 -20 0 -13 -7 -20 -20 -20 -13 0 -20 -7 -20 -20 0 -15 -7
-20 -25 -20 -18 0 -25 -5 -25 -20 0 -13 -7 -20 -20 -20 -13 0 -20 -7 -20 -20
0 -13 -7 -20 -20 -20 -15 0 -20 -7 -20 -25 0 -18 -5 -25 -20 -25 -13 0 -20 -7
-20 -20 0 -13 -7 -20 -20 -20 -13 0 -20 -7 -20 -20 0 -13 -7 -20 -20 -20 -13
0 -20 -7 -20 -20 0 -15 -7 -20 -25 -20 -18 0 -25 -5 -25 -20 0 -13 -7 -20 -20
-20 -13 0 -20 -7 -20 -20 0 -13 -7 -20 -20 -20 -15 0 -20 -7 -20 -25 0 -18 -5
-25 -20 -25 -13 0 -20 -7 -20 -20 0 -13 -7 -20 -20 -20 -13 0 -20 -7 -20 -20
0 -13 -7 -20 -20 -20 -13 0 -20 -7 -20 -20 0 -15 -7 -20 -25 -20 -18 0 -25 -5
-25 -20 0 -13 -7 -20 -20 -20 -13 0 -20 -7 -20 -20 0 -13 -7 -20 -20 -20 -15
0 -20 -7 -20 -25 0 -18 -5 -25 -20 -25 -13 0 -20 -7 -20 -20 0 -13 -7 -20 -20
-20 -13 0 -20 -7 -20 -20 0 -13 -7 -20 -20 -20 -13 0 -20 -7 -20 -20 0 -15 -7
-20 -25 -20 -18 0 -25 -5 -25 -20 0 -13 -7 -20 -20 -20 -13 0 -20 -7 -20 -20
0 -13 -7 -20 -20 -20 -15 0 -20 -7 -20 -25 0 -18 -5 -25 -20 -25 -17 0 -20 -7
-20 -40 0 -33 -3 -40 -20 -40 -13 0 -20 -7 -20 -20 0 -13 -7 -20 -20 -20 -13
0 -20 -7 -20 -20 0 -15 -7 -20 -25 -20 -18 0 -25 -5 -25 -20 0 -13 -7 -20 -20
-20 -15 0 -20 -7 -20 -25 0 -18 -5 -25 -20 -25 -13 0 -20 -7 -20 -20 0 -13 -7
-20 -20 -20 -17 0 -20 -7 -20 -40 0 -33 -3 -40 -20 -40 -13 0 -20 -7 -20 -20
0 -13 -7 -20 -20 -20 -13 0 -20 -7 -20 -20 0 -15 -7 -20 -25 -20 -20 0 -25 -5
-25 -25 0 -18 -5 -25 -20 -25 -13 0 -20 -7 -20 -20 0 -13 -7 -20 -20 -20 -17
0 -20 -7 -20 -40 0 -33 -3 -40 -20 -40 -13 0 -20 -7 -20 -20 0 -13 -7 -20 -20
-20 -13 0 -20 -7 -20 -20 0 -13 -7 -20 -20 -20 -15 0 -20 -7 -20 -25 0 -20 -5
-25 -25 -25 -22 0 -25 -4 -25 -40 0 -33 -3 -40 -20 -40 -13 0 -20 -7 -20 -20
0 -13 -7 -20 -20 -20 -13 0 -20 -7 -20 -20 0 -13 -7 -20 -20 -20 -17 0 -20 -7
-20 -45 0 -38 -3 -45 -20 -45 -13 0 -20 -7 -20 -20 0 -13 -7 -20 -20 -20 -13
0 -20 -7 -20 -20 0 -15 -7 -20 -25 -20 -22 0 -25 -4 -25 -40 0 -33 -3 -40 -20
-40 -13 0 -20 -7 -20 -20 0 -13 -7 -20 -20 -20 -15 0 -20 -7 -20 -25 0 -18 -5
-25 -20 -25 -17 0 -20 -7 -20 -40 0 -33 -3 -40 -20 -40 -13 0 -20 -7 -20 -20
0 -13 -7 -20 -20 -20 -17 0 -20 -7 -20 -40 0 -36 -2 -40 -25 -40 -20 0 -25 -5
-25 -25 0 -18 -5 -25 -20 -25 -17 0 -20 -7 -20 -40 0 -33 -3 -40 -20 -40 -13
0 -20 -7 -20 -20 0 -13 -7 -20 -20 -20 -17 0 -20 -7 -20 -40 0 -33 -3 -40 -20
-40 -15 0 -20 -7 -20 -25 0 -18 -5 -25 -20 -25 -17 0 -20 -7 -20 -40 0 -36 -2
-40 -25 -40 -18 0 -25 -5 -25 -20 0 -13 -7 -20 -20 -20 -17 0 -20 -7 -20 -40
0 -33 -3 -40 -20 -40 -15 0 -20 -7 -20 -25 0 -18 -5 -25 -20 -25 -17 0 -20 -7
-20 -40 0 -33 -3 -40 -20 -40 -17 0 -20 -7 -20 -40 0 -33 -3 -40 -20 -40 -13
0 -20 -7 -20 -20 0 -15 -7 -20 -25 -20 -23 0 -25 -4 -25 -45 0 -38 -3 -45 -20
-45 -17 0 -20 -7 -20 -40 0 -33 -3 -40 -20 -40 -13 0 -20 -7 -20 -20 0 -13 -7
-20 -20 -20 -17 0 -20 -7 -20 -45 0 -38 -3 -45 -20 -45 -17 0 -20 -7 -20 -40
0 -33 -3 -40 -20 -40 -17 0 -20 -7 -20 -40 0 -36 -2 -40 -25 -40 -23 0 -25 -4
-25 -45 0 -38 -3 -45 -20 -45 -13 0 -20 -7 -20 -20 0 -13 -7 -20 -20 -20 -17
0 -20 -7 -20 -40 0 -33 -3 -40 -20 -40 -17 0 -20 -7 -20 -40 0 -33 -3 -40 -20
-40 -17 0 -20 -7 -20 -45 0 -38 -3 -45 -20 -45 -17 0 -20 -7 -20 -40 0 -36 -2
-40 -25 -40 -22 0 -25 -4 -25 -40 0 -33 -3 -40 -20 -40 -17 0 -20 -7 -20 -45
0 -38 -3 -45 -20 -45 -17 0 -20 -7 -20 -40 0 -33 -3 -40 -20 -40 -17 0 -20 -7
-20 -40 0 -33 -3 -40 -20 -40 -17 0 -20 -7 -20 -45 0 -38 -3 -45 -20 -45 -17
0 -20 -7 -20 -40 0 -36 -2 -40 -25 -40 -22 0 -25 -4 -25 -40 0 -33 -3 -40 -20
-40 -18 0 -20 -7 -20 -65 0 -58 -2 -65 -20 -65 -17 0 -20 -7 -20 -40 0 -33 -3
-40 -20 -40 -17 0 -20 -7 -20 -45 0 -38 -3 -45 -20 -45 -18 0 -20 -7 -20 -60
0 -53 -2 -60 -20 -60 -17 0 -20 -7 -20 -40 0 -36 -2 -40 -25 -40 -23 0 -25 -4
-25 -45 0 -38 -3 -45 -20 -45 -18 0 -20 -7 -20 -60 0 -53 -2 -60 -20 -60 -18
0 -20 -7 -20 -65 0 -58 -2 -65 -20 -65 -17 0 -20 -7 -20 -40 0 -33 -3 -40 -20
-40 -18 0 -20 -7 -20 -65 0 -58 -2 -65 -20 -65 -18 0 -20 -7 -20 -60 0 -57 -1
-60 -25 -60 -22 0 -25 -4 -25 -40 0 -33 -3 -40 -20 -40 -18 0 -20 -7 -20 -65
0 -58 -2 -65 -20 -65 -18 0 -20 -7 -20 -60 0 -53 -2 -60 -20 -60 -18 0 -20 -7
-20 -85 0 -78 -2 -85 -20 -85 -18 0 -20 -7 -20 -65 0 -58 -2 -65 -20 -65 -18
0 -20 -7 -20 -60 0 -57 -1 -60 -25 -60 -24 0 -25 -2 -25 -65 0 -58 -2 -65 -20
-65 -18 0 -20 -7 -20 -80 0 -73 -2 -80 -20 -80 -18 0 -20 -7 -20 -85 0 -78 -2
-85 -20 -85 -18 0 -20 -7 -20 -85 0 -78 -2 -85 -20 -85 -18 0 -20 -7 -20 -80
0 -73 -2 -80 -20 -80 -18 0 -20 -7 -20 -85 0 -84 0 -85 -25 -85 l-25 0 0 -105
c0 -98 -1 -105 -20 -105 -19 0 -20 -7 -20 -105 0 -98 -1 -105 -20 -105 -19 0
-20 -7 -20 -100 0 -93 -1 -100 -20 -100 -19 0 -20 -7 -20 -125 0 -118 -1 -125
-20 -125 -19 0 -20 -7 -20 -150 0 -143 -1 -150 -20 -150 -19 0 -20 -7 -20
-145 l0 -145 -25 0 -25 0 0 -205 c0 -198 -1 -205 -20 -205 -20 0 -20 -7 -20
-295 0 -288 0 -295 -20 -295 -20 0 -20 -7 -20 -770 0 -763 0 -770 20 -770 20
0 20 -7 20 -290 0 -283 0 -290 20 -290 19 0 20 -7 20 -210 l0 -210 25 0 25 0
0 -145 c0 -138 1 -145 20 -145 19 0 20 -7 20 -145 0 -138 1 -145 20 -145 19 0
20 -7 20 -125 0 -118 1 -125 20 -125 19 0 20 -7 20 -105 0 -98 1 -105 20 -105
19 0 20 -7 20 -105 0 -98 1 -105 20 -105 19 0 20 -7 20 -105 l0 -105 25 0 c25
0 25 -1 25 -80 0 -73 2 -80 20 -80 18 0 20 -7 20 -85 0 -78 2 -85 20 -85 18 0
20 -7 20 -85 0 -78 2 -85 20 -85 18 0 20 -7 20 -80 0 -73 2 -80 20 -80 18 0
20 -7 20 -85 0 -78 2 -85 20 -85 18 0 20 -7 20 -65 0 -63 1 -65 25 -65 24 0
25 -3 25 -60 0 -53 2 -60 20 -60 18 0 20 -7 20 -65 0 -58 2 -65 20 -65 18 0
20 -7 20 -80 0 -73 2 -80 20 -80 18 0 20 -7 20 -65 0 -58 2 -65 20 -65 18 0
20 -7 20 -60 0 -53 2 -60 20 -60 17 0 20 -7 20 -45 0 -41 2 -45 25 -45 24 0
25 -3 25 -60 0 -53 2 -60 20 -60 18 0 20 -7 20 -65 0 -58 2 -65 20 -65 17 0
20 -7 20 -40 0 -33 3 -40 20 -40 18 0 20 -7 20 -60 0 -53 2 -60 20 -60 18 0
20 -7 20 -65 0 -58 2 -65 20 -65 17 0 20 -7 20 -40 0 -36 3 -40 25 -40 23 0
25 -4 25 -45 0 -38 3 -45 20 -45 18 0 20 -7 20 -60 0 -53 2 -60 20 -60 17 0
20 -7 20 -40 0 -33 3 -40 20 -40 17 0 20 -7 20 -45 0 -38 3 -45 20 -45 18 0
20 -7 20 -60 0 -53 2 -60 20 -60 17 0 20 -7 20 -45 0 -41 2 -45 25 -45 23 0
25 -4 25 -40 0 -33 3 -40 20 -40 17 0 20 -7 20 -40 0 -33 3 -40 20 -40 17 0
20 -7 20 -45 0 -38 3 -45 20 -45 17 0 20 -7 20 -40 0 -33 3 -40 20 -40 17 0
20 -7 20 -40 0 -33 3 -40 20 -40 17 0 20 -7 20 -45 0 -41 2 -45 25 -45 23 0
25 -4 25 -40 0 -33 3 -40 20 -40 17 0 20 -7 20 -40 0 -33 3 -40 20 -40 17 0
20 -7 20 -45 0 -38 3 -45 20 -45 17 0 20 -7 20 -40 0 -33 3 -40 20 -40 13 0
20 -7 20 -20 0 -13 7 -20 20 -20 17 0 20 -7 20 -40 0 -36 3 -40 25 -40 23 0
25 -4 25 -45 0 -38 3 -45 20 -45 17 0 20 -7 20 -40 0 -33 3 -40 20 -40 17 0
20 -7 20 -40 0 -33 3 -40 20 -40 15 0 20 -7 20 -25 0 -18 5 -25 20 -25 17 0
20 -7 20 -40 0 -33 3 -40 20 -40 17 0 20 -7 20 -40 0 -36 3 -40 25 -40 18 0
25 -5 25 -20 0 -13 7 -20 20 -20 17 0 20 -7 20 -45 0 -38 3 -45 20 -45 17 0
20 -7 20 -40 0 -33 3 -40 20 -40 13 0 20 -7 20 -20 0 -13 7 -20 20 -20 17 0
20 -7 20 -45 0 -38 3 -45 20 -45 13 0 20 -7 20 -20 0 -15 7 -20 25 -20 23 0
25 -4 25 -40 0 -33 3 -40 20 -40 13 0 20 -7 20 -20 0 -13 7 -20 20 -20 17 0
20 -7 20 -45 0 -38 3 -45 20 -45 13 0 20 -7 20 -20 0 -13 7 -20 20 -20 17 0
20 -7 20 -40 0 -33 3 -40 20 -40 13 0 20 -7 20 -20 0 -15 7 -20 25 -20 23 0
25 -4 25 -45 0 -38 3 -45 20 -45 13 0 20 -7 20 -20 0 -13 7 -20 20 -20 17 0
20 -7 20 -40 0 -33 3 -40 20 -40 13 0 20 -7 20 -20 0 -13 7 -20 20 -20 13 0
20 -7 20 -20 0 -13 7 -20 20 -20 17 0 20 -7 20 -45 0 -41 2 -45 25 -45 18 0
25 -5 25 -20 0 -13 7 -20 20 -20 13 0 20 -7 20 -20 0 -13 7 -20 20 -20 17 0
20 -7 20 -40 0 -33 3 -40 20 -40 15 0 20 -7 20 -25 0 -18 5 -25 20 -25 13 0
20 -7 20 -20 0 -13 7 -20 20 -20 17 0 20 -7 20 -40 0 -36 3 -40 25 -40 18 0
25 -5 25 -20 0 -13 7 -20 20 -20 13 0 20 -7 20 -20 0 -13 7 -20 20 -20 15 0
20 -7 20 -25 0 -18 5 -25 20 -25 17 0 20 -7 20 -40 0 -33 3 -40 20 -40 13 0
20 -7 20 -20 0 -13 7 -20 20 -20 13 0 20 -7 20 -20 0 -15 7 -20 25 -20 18 0
25 -5 25 -20 0 -13 7 -20 20 -20 15 0 20 -7 20 -25 0 -18 5 -25 20 -25 17 0
20 -7 20 -40 0 -33 3 -40 20 -40 13 0 20 -7 20 -20 0 -13 7 -20 20 -20 13 0
20 -7 20 -20 0 -13 7 -20 20 -20 13 0 20 -7 20 -20 0 -15 7 -20 25 -20 20 0
25 -5 25 -25 0 -18 5 -25 20 -25 13 0 20 -7 20 -20 0 -13 7 -20 20 -20 17 0
20 -7 20 -40 0 -33 3 -40 20 -40 13 0 20 -7 20 -20 0 -13 7 -20 20 -20 13 0
20 -7 20 -20 0 -13 7 -20 20 -20 15 0 20 -7 20 -25 0 -20 5 -25 25 -25 18 0
25 -5 25 -20 0 -13 7 -20 20 -20 13 0 20 -7 20 -20 0 -13 7 -20 20 -20 13 0
20 -7 20 -20 0 -13 7 -20 20 -20 13 0 20 -7 20 -20 0 -13 7 -20 20 -20 13 0
20 -7 20 -20 0 -13 7 -20 20 -20 15 0 20 -7 20 -25 0 -20 5 -25 25 -25 18 0
25 -5 25 -20 0 -13 7 -20 20 -20 13 0 20 -7 20 -20 0 -13 7 -20 20 -20 13 0
20 -7 20 -20 0 -13 7 -20 20 -20 13 0 20 -7 20 -20 0 -13 7 -20 20 -20 13 0
20 -7 20 -20 0 -13 7 -20 20 -20 15 0 20 -7 20 -25 0 -20 5 -25 25 -25 18 0
25 -5 25 -20 0 -13 7 -20 20 -20 13 0 20 -7 20 -20 0 -13 7 -20 20 -20 13 0
20 -7 20 -20 0 -13 7 -20 20 -20 13 0 20 -7 20 -20 0 -13 7 -20 20 -20 13 0
20 -7 20 -20 0 -13 7 -20 20 -20 15 0 20 -7 20 -25 0 -20 5 -25 25 -25 18 0
25 -5 25 -20 0 -13 7 -20 20 -20 13 0 20 -7 20 -20 0 -13 7 -20 20 -20 13 0
20 -7 20 -20 0 -13 7 -20 20 -20 13 0 20 -7 20 -20 0 -13 7 -20 20 -20 13 0
20 -7 20 -20 0 -13 7 -20 20 -20 15 0 20 -7 20 -25 0 -20 5 -25 25 -25 18 0
25 -5 25 -20 0 -13 7 -20 20 -20 13 0 20 -7 20 -20 0 -17 7 -20 40 -20 33 0
40 -3 40 -20 0 -13 7 -20 20 -20 13 0 20 -7 20 -20 0 -13 7 -20 20 -20 13 0
20 -7 20 -20 0 -15 7 -20 25 -20 20 0 25 -5 25 -25 0 -18 5 -25 20 -25 13 0
20 -7 20 -20 0 -13 7 -20 20 -20 13 0 20 -7 20 -20 0 -17 7 -20 40 -20 33 0
40 -3 40 -20 0 -13 7 -20 20 -20 13 0 20 -7 20 -20 0 -15 7 -20 25 -20 18 0
25 -5 25 -20 0 -13 7 -20 20 -20 15 0 20 -7 20 -25 0 -18 5 -25 20 -25 13 0
20 -7 20 -20 0 -17 7 -20 40 -20 33 0 40 -3 40 -20 0 -13 7 -20 20 -20 13 0
20 -7 20 -20 0 -15 7 -20 25 -20 18 0 25 -5 25 -20 0 -13 7 -20 20 -20 13 0
20 -7 20 -20 0 -17 7 -20 40 -20 36 0 40 -2 40 -25 0 -18 5 -25 20 -25 13 0
20 -7 20 -20 0 -13 7 -20 20 -20 13 0 20 -7 20 -20 0 -17 7 -20 45 -20 38 0
45 -3 45 -20 0 -13 7 -20 20 -20 13 0 20 -7 20 -20 0 -13 7 -20 20 -20 13 0
20 -7 20 -20 0 -17 7 -20 40 -20 36 0 40 -2 40 -25 0 -20 5 -25 25 -25 18 0
25 -5 25 -20 0 -13 7 -20 20 -20 13 0 20 -7 20 -20 0 -17 7 -20 40 -20 33 0
40 -3 40 -20 0 -13 7 -20 20 -20 13 0 20 -7 20 -20 0 -17 7 -20 45 -20 38 0
45 -3 45 -20 0 -13 7 -20 20 -20 15 0 20 -7 20 -25 0 -22 4 -25 40 -25 33 0
40 -3 40 -20 0 -13 7 -20 20 -20 13 0 20 -7 20 -20 0 -17 7 -20 45 -20 38 0
45 -3 45 -20 0 -13 7 -20 20 -20 13 0 20 -7 20 -20 0 -17 7 -20 40 -20 33 0
40 -3 40 -20 0 -13 7 -20 20 -20 15 0 20 -7 20 -25 0 -23 4 -25 45 -25 38 0
45 -3 45 -20 0 -13 7 -20 20 -20 13 0 20 -7 20 -20 0 -17 7 -20 40 -20 33 0
40 -3 40 -20 0 -17 7 -20 40 -20 33 0 40 -3 40 -20 0 -15 7 -20 25 -20 18 0
25 -5 25 -20 0 -17 7 -20 40 -20 36 0 40 -2 40 -25 0 -22 4 -25 40 -25 33 0
40 -3 40 -20 0 -13 7 -20 20 -20 13 0 20 -7 20 -20 0 -17 7 -20 45 -20 38 0
45 -3 45 -20 0 -17 7 -20 40 -20 33 0 40 -3 40 -20 0 -17 7 -20 40 -20 33 0
40 -3 40 -20 0 -17 7 -20 45 -20 41 0 45 -2 45 -25 0 -18 5 -25 20 -25 13 0
20 -7 20 -20 0 -17 7 -20 40 -20 33 0 40 -3 40 -20 0 -17 7 -20 40 -20 33 0
40 -3 40 -20 0 -17 7 -20 45 -20 38 0 45 -3 45 -20 0 -17 7 -20 40 -20 33 0
40 -3 40 -20 0 -17 7 -20 40 -20 36 0 40 -2 40 -25 0 -23 4 -25 45 -25 38 0
45 -3 45 -20 0 -17 7 -20 40 -20 33 0 40 -3 40 -20 0 -17 7 -20 40 -20 33 0
40 -3 40 -20 0 -17 7 -20 45 -20 38 0 45 -3 45 -20 0 -17 7 -20 40 -20 33 0
40 -3 40 -20 0 -17 7 -20 40 -20 36 0 40 -2 40 -25 0 -24 2 -25 65 -25 58 0
65 -2 65 -20 0 -17 7 -20 40 -20 33 0 40 -3 40 -20 0 -17 7 -20 45 -20 38 0
45 -3 45 -20 0 -18 7 -20 60 -20 53 0 60 -2 60 -20 0 -17 7 -20 40 -20 33 0
40 -3 40 -20 0 -17 7 -20 45 -20 41 0 45 -2 45 -25 0 -24 3 -25 60 -25 53 0
60 -2 60 -20 0 -18 7 -20 65 -20 58 0 65 -2 65 -20 0 -17 7 -20 40 -20 33 0
40 -3 40 -20 0 -18 7 -20 65 -20 58 0 65 -2 65 -20 0 -18 7 -20 60 -20 53 0
60 -2 60 -20 0 -17 7 -20 40 -20 36 0 40 -2 40 -25 0 -24 2 -25 65 -25 58 0
65 -2 65 -20 0 -18 7 -20 60 -20 53 0 60 -2 60 -20 0 -18 7 -20 85 -20 78 0
85 -2 85 -20 0 -18 7 -20 65 -20 58 0 65 -2 65 -20 0 -18 7 -20 60 -20 53 0
60 -2 60 -20 0 -18 7 -20 65 -20 63 0 65 -1 65 -25 0 -25 1 -25 80 -25 73 0
80 -2 80 -20 0 -18 7 -20 85 -20 78 0 85 -2 85 -20 0 -18 7 -20 85 -20 78 0
85 -2 85 -20 0 -18 7 -20 80 -20 73 0 80 -2 80 -20 0 -18 7 -20 85 -20 78 0
85 -2 85 -20 0 -19 7 -20 105 -20 l105 0 0 -25 0 -25 105 0 c98 0 105 -1 105
-20 0 -19 7 -20 100 -20 93 0 100 -1 100 -20 0 -19 7 -20 125 -20 118 0 125
-1 125 -20 0 -19 7 -20 150 -20 143 0 150 -1 150 -20 0 -19 7 -20 145 -20 138
0 145 -1 145 -20 0 -19 7 -20 205 -20 l205 0 0 -25 0 -25 295 0 c288 0 295 0
295 -20 0 -20 7 -20 770 -20 763 0 770 0 770 20 0 20 7 20 290 20 l290 0 0 25
0 25 210 0 c203 0 210 1 210 20 0 19 7 20 145 20 138 0 145 1 145 20 0 19 7
20 145 20 138 0 145 1 145 20 0 19 7 20 125 20 118 0 125 1 125 20 0 19 7 20
105 20 98 0 105 1 105 20 0 19 7 20 105 20 l105 0 0 25 0 25 105 0 c98 0 105
1 105 20 0 18 7 20 80 20 73 0 80 2 80 20 0 18 7 20 85 20 78 0 85 2 85 20 0
18 7 20 85 20 78 0 85 2 85 20 0 18 7 20 80 20 73 0 80 2 80 20 0 18 7 20 85
20 84 0 85 0 85 25 0 24 2 25 65 25 58 0 65 2 65 20 0 18 7 20 60 20 53 0 60
2 60 20 0 18 7 20 85 20 78 0 85 2 85 20 0 18 7 20 60 20 53 0 60 2 60 20 0
18 7 20 65 20 58 0 65 2 65 20 0 18 7 20 60 20 57 0 60 1 60 25 0 23 4 25 45
25 38 0 45 3 45 20 0 18 7 20 60 20 53 0 60 2 60 20 0 18 7 20 65 20 58 0 65
2 65 20 0 17 7 20 40 20 33 0 40 3 40 20 0 18 7 20 60 20 53 0 60 2 60 20 0
18 7 20 65 20 63 0 65 1 65 25 0 23 4 25 40 25 33 0 40 3 40 20 0 17 7 20 45
20 38 0 45 3 45 20 0 18 7 20 60 20 53 0 60 2 60 20 0 17 7 20 40 20 33 0 40
3 40 20 0 17 7 20 45 20 38 0 45 3 45 20 0 18 7 20 60 20 57 0 60 1 60 25 0
23 4 25 45 25 38 0 45 3 45 20 0 17 7 20 40 20 33 0 40 3 40 20 0 17 7 20 40
20 33 0 40 3 40 20 0 17 7 20 45 20 38 0 45 3 45 20 0 17 7 20 40 20 33 0 40
3 40 20 0 17 7 20 40 20 36 0 40 3 40 25 0 23 4 25 45 25 38 0 45 3 45 20 0
17 7 20 40 20 33 0 40 3 40 20 0 17 7 20 40 20 33 0 40 3 40 20 0 17 7 20 45
20 38 0 45 3 45 20 0 17 7 20 40 20 33 0 40 3 40 20 0 13 7 20 20 20 15 0 20
7 20 25 0 23 4 25 40 25 33 0 40 3 40 20 0 17 7 20 45 20 38 0 45 3 45 20 0
17 7 20 40 20 33 0 40 3 40 20 0 17 7 20 40 20 33 0 40 3 40 20 0 15 7 20 25
20 18 0 25 5 25 20 0 17 7 20 40 20 36 0 40 3 40 25 0 23 4 25 40 25 33 0 40
3 40 20 0 13 7 20 20 20 13 0 20 7 20 20 0 17 7 20 45 20 38 0 45 3 45 20 0
17 7 20 40 20 33 0 40 3 40 20 0 13 7 20 20 20 13 0 20 7 20 20 0 17 7 20 45
20 41 0 45 2 45 25 0 18 5 25 20 25 13 0 20 7 20 20 0 17 7 20 40 20 33 0 40
3 40 20 0 13 7 20 20 20 13 0 20 7 20 20 0 17 7 20 45 20 38 0 45 3 45 20 0
13 7 20 20 20 13 0 20 7 20 20 0 17 7 20 40 20 36 0 40 3 40 25 0 18 5 25 20
25 13 0 20 7 20 20 0 17 7 20 45 20 38 0 45 3 45 20 0 13 7 20 20 20 13 0 20
7 20 20 0 17 7 20 40 20 33 0 40 3 40 20 0 13 7 20 20 20 13 0 20 7 20 20 0
13 7 20 20 20 15 0 20 7 20 25 0 23 4 25 45 25 38 0 45 3 45 20 0 13 7 20 20
20 13 0 20 7 20 20 0 13 7 20 20 20 13 0 20 7 20 20 0 17 7 20 40 20 33 0 40
3 40 20 0 15 7 20 25 20 18 0 25 5 25 20 0 13 7 20 20 20 15 0 20 7 20 25 0
23 4 25 40 25 33 0 40 3 40 20 0 13 7 20 20 20 13 0 20 7 20 20 0 13 7 20 20
20 13 0 20 7 20 20 0 15 7 20 25 20 18 0 25 5 25 20 0 17 7 20 40 20 33 0 40
3 40 20 0 13 7 20 20 20 15 0 20 7 20 25 0 18 5 25 20 25 13 0 20 7 20 20 0
13 7 20 20 20 13 0 20 7 20 20 0 15 7 20 25 20 18 0 25 5 25 20 0 17 7 20 40
20 33 0 40 3 40 20 0 13 7 20 20 20 13 0 20 7 20 20 0 13 7 20 20 20 15 0 20
7 20 25 0 18 5 25 20 25 13 0 20 7 20 20 0 15 7 20 25 20 18 0 25 5 25 20 0
13 7 20 20 20 13 0 20 7 20 20 0 17 7 20 40 20 33 0 40 3 40 20 0 13 7 20 20
20 13 0 20 7 20 20 0 13 7 20 20 20 15 0 20 7 20 25 0 20 5 25 25 25 18 0 25
5 25 20 0 13 7 20 20 20 13 0 20 7 20 20 0 13 7 20 20 20 13 0 20 7 20 20 0
13 7 20 20 20 13 0 20 7 20 20 0 13 7 20 20 20 13 0 20 7 20 20 0 13 7 20 20
20 15 0 20 7 20 25 0 20 5 25 25 25 18 0 25 5 25 20 0 13 7 20 20 20 13 0 20
7 20 20 0 13 7 20 20 20 13 0 20 7 20 20 0 13 7 20 20 20 13 0 20 7 20 20 0
13 7 20 20 20 13 0 20 7 20 20 0 13 7 20 20 20 15 0 20 7 20 25 0 20 5 25 25
25 18 0 25 5 25 20 0 13 7 20 20 20 13 0 20 7 20 20 0 13 7 20 20 20 13 0 20
7 20 20 0 13 7 20 20 20 13 0 20 7 20 20 0 13 7 20 20 20 13 0 20 7 20 20 0
13 7 20 20 20 15 0 20 7 20 25 0 20 5 25 25 25 18 0 25 5 25 20 0 13 7 20 20
20 13 0 20 7 20 20 0 13 7 20 20 20 13 0 20 7 20 20 0 13 7 20 20 20 13 0 20
7 20 20 0 13 7 20 20 20 13 0 20 7 20 20 0 13 7 20 20 20 15 0 20 7 20 25 0
20 5 25 25 25 18 0 25 5 25 20 0 13 7 20 20 20 13 0 20 7 20 20 0 13 7 20 20
20 17 0 20 7 20 40 0 33 3 40 20 40 13 0 20 7 20 20 0 13 7 20 20 20 15 0 20
7 20 25 0 18 5 25 20 25 13 0 20 7 20 20 0 15 7 20 25 20 18 0 25 5 25 20 0
13 7 20 20 20 13 0 20 7 20 20 0 13 7 20 20 20 17 0 20 7 20 40 0 33 3 40 20
40 15 0 20 7 20 25 0 18 5 25 20 25 13 0 20 7 20 20 0 13 7 20 20 20 13 0 20
7 20 20 0 15 7 20 25 20 18 0 25 5 25 20 0 13 7 20 20 20 17 0 20 7 20 40 0
33 3 40 20 40 15 0 20 7 20 25 0 18 5 25 20 25 13 0 20 7 20 20 0 13 7 20 20
20 13 0 20 7 20 20 0 13 7 20 20 20 17 0 20 7 20 40 0 36 3 40 25 40 18 0 25
5 25 20 0 13 7 20 20 20 15 0 20 7 20 25 0 18 5 25 20 25 17 0 20 7 20 40 0
33 3 40 20 40 13 0 20 7 20 20 0 13 7 20 20 20 13 0 20 7 20 20 0 13 7 20 20
20 17 0 20 7 20 45 0 41 2 45 25 45 18 0 25 5 25 20 0 13 7 20 20 20 13 0 20
7 20 20 0 13 7 20 20 20 17 0 20 7 20 40 0 33 3 40 20 40 13 0 20 7 20 20 0
13 7 20 20 20 17 0 20 7 20 45 0 38 3 45 20 45 13 0 20 7 20 20 0 15 7 20 25
20 23 0 25 4 25 40 0 33 3 40 20 40 13 0 20 7 20 20 0 13 7 20 20 20 17 0 20
7 20 45 0 38 3 45 20 45 13 0 20 7 20 20 0 13 7 20 20 20 17 0 20 7 20 40 0
33 3 40 20 40 13 0 20 7 20 20 0 15 7 20 25 20 23 0 25 4 25 45 0 38 3 45 20
45 13 0 20 7 20 20 0 13 7 20 20 20 17 0 20 7 20 40 0 33 3 40 20 40 17 0 20
7 20 45 0 38 3 45 20 45 13 0 20 7 20 20 0 13 7 20 20 20 17 0 20 7 20 40 0
36 3 40 25 40 23 0 25 4 25 40 0 33 3 40 20 40 15 0 20 7 20 25 0 18 5 25 20
25 17 0 20 7 20 40 0 33 3 40 20 40 17 0 20 7 20 40 0 33 3 40 20 40 17 0 20
7 20 45 0 38 3 45 20 45 17 0 20 7 20 40 0 36 3 40 25 40 18 0 25 5 25 20 0
13 7 20 20 20 17 0 20 7 20 40 0 33 3 40 20 40 17 0 20 7 20 45 0 38 3 45 20
45 17 0 20 7 20 40 0 33 3 40 20 40 17 0 20 7 20 40 0 33 3 40 20 40 17 0 20
7 20 45 0 41 2 45 25 45 23 0 25 4 25 40 0 33 3 40 20 40 17 0 20 7 20 40 0
33 3 40 20 40 17 0 20 7 20 45 0 38 3 45 20 45 17 0 20 7 20 40 0 33 3 40 20
40 17 0 20 7 20 40 0 33 3 40 20 40 17 0 20 7 20 45 0 41 2 45 25 45 24 0 25
3 25 60 0 53 2 60 20 60 17 0 20 7 20 45 0 38 3 45 20 45 17 0 20 7 20 40 0
33 3 40 20 40 18 0 20 7 20 60 0 53 2 60 20 60 17 0 20 7 20 45 0 38 3 45 20
45 17 0 20 7 20 40 0 36 3 40 25 40 24 0 25 2 25 65 0 58 2 65 20 65 18 0 20
7 20 60 0 53 2 60 20 60 17 0 20 7 20 40 0 33 3 40 20 40 18 0 20 7 20 65 0
58 2 65 20 65 18 0 20 7 20 60 0 53 2 60 20 60 17 0 20 7 20 45 0 41 2 45 25
45 24 0 25 3 25 60 0 53 2 60 20 60 18 0 20 7 20 65 0 58 2 65 20 65 18 0 20
7 20 80 0 73 2 80 20 80 18 0 20 7 20 65 0 58 2 65 20 65 18 0 20 7 20 60 0
53 2 60 20 60 18 0 20 7 20 65 0 63 1 65 25 65 25 0 25 1 25 85 0 78 2 85 20
85 18 0 20 7 20 80 0 73 2 80 20 80 18 0 20 7 20 85 0 78 2 85 20 85 18 0 20
7 20 85 0 78 2 85 20 85 18 0 20 7 20 80 0 73 2 80 20 80 19 0 20 7 20 105 l0
105 25 0 25 0 0 105 c0 98 1 105 20 105 19 0 20 7 20 105 0 98 1 105 20 105
19 0 20 7 20 125 0 118 1 125 20 125 19 0 20 7 20 145 0 138 1 145 20 145 19
0 20 7 20 145 0 138 1 145 20 145 19 0 20 7 20 210 l0 210 25 0 25 0 0 290 c0
283 0 290 20 290 20 0 20 7 20 770 0 763 0 770 -20 770 -20 0 -20 7 -20 295
l0 295 -25 0 -25 0 0 205 c0 198 -1 205 -20 205 -19 0 -20 7 -20 145 0 138 -1
145 -20 145 -19 0 -20 7 -20 150 0 143 -1 150 -20 150 -19 0 -20 7 -20 125 0
118 -1 125 -20 125 -19 0 -20 7 -20 100 0 93 -1 100 -20 100 -19 0 -20 7 -20
105 l0 105 -25 0 -25 0 0 105 c0 98 -1 105 -20 105 -18 0 -20 7 -20 85 0 78
-2 85 -20 85 -18 0 -20 7 -20 80 0 73 -2 80 -20 80 -18 0 -20 7 -20 85 0 78
-2 85 -20 85 -18 0 -20 7 -20 85 0 78 -2 85 -20 85 -18 0 -20 7 -20 80 0 79 0
80 -25 80 -24 0 -25 2 -25 65 0 58 -2 65 -20 65 -18 0 -20 7 -20 60 0 53 -2
60 -20 60 -18 0 -20 7 -20 65 0 58 -2 65 -20 65 -18 0 -20 7 -20 85 0 78 -2
85 -20 85 -18 0 -20 7 -20 60 0 53 -2 60 -20 60 -18 0 -20 7 -20 65 0 63 -1
65 -25 65 -22 0 -25 4 -25 40 0 33 -3 40 -20 40 -18 0 -20 7 -20 60 0 53 -2
60 -20 60 -18 0 -20 7 -20 65 0 58 -2 65 -20 65 -17 0 -20 7 -20 40 0 33 -3
40 -20 40 -18 0 -20 7 -20 65 0 58 -2 65 -20 65 -18 0 -20 7 -20 60 0 57 -1
60 -25 60 -23 0 -25 4 -25 45 0 38 -3 45 -20 45 -17 0 -20 7 -20 40 0 33 -3
40 -20 40 -18 0 -20 7 -20 60 0 53 -2 60 -20 60 -17 0 -20 7 -20 45 0 38 -3
45 -20 45 -17 0 -20 7 -20 40 0 33 -3 40 -20 40 -18 0 -20 7 -20 65 0 63 -1
65 -25 65 -22 0 -25 4 -25 40 0 33 -3 40 -20 40 -17 0 -20 7 -20 40 0 33 -3
40 -20 40 -17 0 -20 7 -20 45 0 38 -3 45 -20 45 -17 0 -20 7 -20 40 0 33 -3
40 -20 40 -17 0 -20 7 -20 40 0 33 -3 40 -20 40 -17 0 -20 7 -20 45 0 41 -2
45 -25 45 -22 0 -25 4 -25 40 0 33 -3 40 -20 40 -17 0 -20 7 -20 40 0 33 -3
40 -20 40 -17 0 -20 7 -20 45 0 38 -3 45 -20 45 -17 0 -20 7 -20 40 0 33 -3
40 -20 40 -17 0 -20 7 -20 40 0 33 -3 40 -20 40 -13 0 -20 7 -20 20 0 15 -7
20 -25 20 -23 0 -25 4 -25 45 0 38 -3 45 -20 45 -17 0 -20 7 -20 40 0 33 -3
40 -20 40 -17 0 -20 7 -20 40 0 33 -3 40 -20 40 -17 0 -20 7 -20 45 0 38 -3
45 -20 45 -13 0 -20 7 -20 20 0 13 -7 20 -20 20 -17 0 -20 7 -20 40 0 36 -2
40 -25 40 -23 0 -25 4 -25 45 0 38 -3 45 -20 45 -13 0 -20 7 -20 20 0 13 -7
20 -20 20 -17 0 -20 7 -20 40 0 33 -3 40 -20 40 -17 0 -20 7 -20 40 0 33 -3
40 -20 40 -15 0 -20 7 -20 25 0 18 -5 25 -20 25 -17 0 -20 7 -20 40 0 36 -2
40 -25 40 -18 0 -25 5 -25 20 0 13 -7 20 -20 20 -17 0 -20 7 -20 40 0 33 -3
40 -20 40 -15 0 -20 7 -20 25 0 18 -5 25 -20 25 -17 0 -20 7 -20 40 0 33 -3
40 -20 40 -13 0 -20 7 -20 20 0 13 -7 20 -20 20 -17 0 -20 7 -20 40 0 36 -2
40 -25 40 -20 0 -25 5 -25 25 0 18 -5 25 -20 25 -17 0 -20 7 -20 40 0 33 -3
40 -20 40 -13 0 -20 7 -20 20 0 13 -7 20 -20 20 -17 0 -20 7 -20 40 0 33 -3
40 -20 40 -15 0 -20 7 -20 25 0 18 -5 25 -20 25 -13 0 -20 7 -20 20 0 15 -7
20 -25 20 -22 0 -25 4 -25 40 0 33 -3 40 -20 40 -13 0 -20 7 -20 20 0 13 -7
20 -20 20 -13 0 -20 7 -20 20 0 13 -7 20 -20 20 -17 0 -20 7 -20 45 0 38 -3
45 -20 45 -13 0 -20 7 -20 20 0 13 -7 20 -20 20 -13 0 -20 7 -20 20 0 15 -7
20 -25 20 -22 0 -25 4 -25 40 0 33 -3 40 -20 40 -15 0 -20 7 -20 25 0 18 -5
25 -20 25 -13 0 -20 7 -20 20 0 13 -7 20 -20 20 -13 0 -20 7 -20 20 0 13 -7
20 -20 20 -17 0 -20 7 -20 40 0 33 -3 40 -20 40 -13 0 -20 7 -20 20 0 15 -7
20 -25 20 -20 0 -25 5 -25 25 0 18 -5 25 -20 25 -13 0 -20 7 -20 20 0 13 -7
20 -20 20 -13 0 -20 7 -20 20 0 13 -7 20 -20 20 -17 0 -20 7 -20 40 0 33 -3
40 -20 40 -13 0 -20 7 -20 20 0 13 -7 20 -20 20 -15 0 -20 7 -20 25 0 20 -5
25 -25 25 -18 0 -25 5 -25 20 0 13 -7 20 -20 20 -13 0 -20 7 -20 20 0 13 -7
20 -20 20 -13 0 -20 7 -20 20 0 13 -7 20 -20 20 -17 0 -20 7 -20 40 0 33 -3
40 -20 40 -15 0 -20 7 -20 25 0 18 -5 25 -20 25 -13 0 -20 7 -20 20 0 15 -7
20 -25 20 -18 0 -25 5 -25 20 0 13 -7 20 -20 20 -13 0 -20 7 -20 20 0 13 -7
20 -20 20 -13 0 -20 7 -20 20 0 13 -7 20 -20 20 -13 0 -20 7 -20 20 0 13 -7
20 -20 20 -15 0 -20 7 -20 25 0 18 -5 25 -20 25 -13 0 -20 7 -20 20 0 15 -7
20 -25 20 -18 0 -25 5 -25 20 0 13 -7 20 -20 20 -13 0 -20 7 -20 20 0 13 -7
20 -20 20 -13 0 -20 7 -20 20 0 13 -7 20 -20 20 -13 0 -20 7 -20 20 0 13 -7
20 -20 20 -15 0 -20 7 -20 25 0 18 -5 25 -20 25 -13 0 -20 7 -20 20 0 15 -7
20 -25 20 -18 0 -25 5 -25 20 0 13 -7 20 -20 20 -13 0 -20 7 -20 20 0 13 -7
20 -20 20 -13 0 -20 7 -20 20 0 13 -7 20 -20 20 -13 0 -20 7 -20 20 0 13 -7
20 -20 20 -15 0 -20 7 -20 25 0 18 -5 25 -20 25 -13 0 -20 7 -20 20 0 15 -7
20 -25 20 -18 0 -25 5 -25 20 0 13 -7 20 -20 20 -13 0 -20 7 -20 20 0 13 -7
20 -20 20 -13 0 -20 7 -20 20 0 13 -7 20 -20 20 -13 0 -20 7 -20 20 0 13 -7
20 -20 20 -15 0 -20 7 -20 25 0 18 -5 25 -20 25 -13 0 -20 7 -20 20 0 15 -7
20 -25 20 -18 0 -25 5 -25 20 0 13 -7 20 -20 20 -13 0 -20 7 -20 20 0 13 -7
20 -20 20 -13 0 -20 7 -20 20 0 17 -7 20 -40 20 -33 0 -40 3 -40 20 0 13 -7
20 -20 20 -15 0 -20 7 -20 25 0 20 -5 25 -25 25 -18 0 -25 5 -25 20 0 13 -7
20 -20 20 -13 0 -20 7 -20 20 0 13 -7 20 -20 20 -13 0 -20 7 -20 20 0 13 -7
20 -20 20 -13 0 -20 7 -20 20 0 17 -7 20 -40 20 -33 0 -40 3 -40 20 0 15 -7
20 -25 20 -20 0 -25 5 -25 25 0 18 -5 25 -20 25 -13 0 -20 7 -20 20 0 13 -7
20 -20 20 -13 0 -20 7 -20 20 0 13 -7 20 -20 20 -13 0 -20 7 -20 20 0 17 -7
20 -40 20 -33 0 -40 3 -40 20 0 15 -7 20 -25 20 -18 0 -25 5 -25 20 0 13 -7
20 -20 20 -15 0 -20 7 -20 25 0 18 -5 25 -20 25 -13 0 -20 7 -20 20 0 17 -7
20 -40 20 -33 0 -40 3 -40 20 0 13 -7 20 -20 20 -13 0 -20 7 -20 20 0 15 -7
20 -25 20 -18 0 -25 5 -25 20 0 17 -7 20 -40 20 -33 0 -40 3 -40 20 0 13 -7
20 -20 20 -15 0 -20 7 -20 25 0 18 -5 25 -20 25 -13 0 -20 7 -20 20 0 17 -7
20 -45 20 -38 0 -45 3 -45 20 0 13 -7 20 -20 20 -13 0 -20 7 -20 20 0 13 -7
20 -20 20 -13 0 -20 7 -20 20 0 17 -7 20 -40 20 -33 0 -40 3 -40 20 0 13 -7
20 -20 20 -15 0 -20 7 -20 25 0 23 -4 25 -45 25 -38 0 -45 3 -45 20 0 13 -7
20 -20 20 -13 0 -20 7 -20 20 0 17 -7 20 -40 20 -33 0 -40 3 -40 20 0 13 -7
20 -20 20 -13 0 -20 7 -20 20 0 17 -7 20 -45 20 -38 0 -45 3 -45 20 0 13 -7
20 -20 20 -15 0 -20 7 -20 25 0 23 -4 25 -40 25 -33 0 -40 3 -40 20 0 13 -7
20 -20 20 -13 0 -20 7 -20 20 0 17 -7 20 -45 20 -38 0 -45 3 -45 20 0 13 -7
20 -20 20 -13 0 -20 7 -20 20 0 17 -7 20 -40 20 -33 0 -40 3 -40 20 0 17 -7
20 -45 20 -41 0 -45 2 -45 25 0 18 -5 25 -20 25 -13 0 -20 7 -20 20 0 17 -7
20 -40 20 -33 0 -40 3 -40 20 0 17 -7 20 -40 20 -33 0 -40 3 -40 20 0 15 -7
20 -25 20 -18 0 -25 5 -25 20 0 17 -7 20 -40 20 -33 0 -40 3 -40 20 0 17 -7
20 -40 20 -36 0 -40 3 -40 25 0 23 -4 25 -45 25 -38 0 -45 3 -45 20 0 17 -7
20 -40 20 -33 0 -40 3 -40 20 0 13 -7 20 -20 20 -13 0 -20 7 -20 20 0 17 -7
20 -40 20 -33 0 -40 3 -40 20 0 17 -7 20 -45 20 -38 0 -45 3 -45 20 0 17 -7
20 -40 20 -36 0 -40 3 -40 25 0 23 -4 25 -40 25 -33 0 -40 3 -40 20 0 17 -7
20 -45 20 -38 0 -45 3 -45 20 0 17 -7 20 -40 20 -33 0 -40 3 -40 20 0 17 -7
20 -40 20 -33 0 -40 3 -40 20 0 17 -7 20 -45 20 -38 0 -45 3 -45 20 0 17 -7
20 -40 20 -36 0 -40 3 -40 25 0 23 -4 25 -40 25 -33 0 -40 3 -40 20 0 17 -7
20 -45 20 -38 0 -45 3 -45 20 0 18 -7 20 -60 20 -53 0 -60 2 -60 20 0 17 -7
20 -45 20 -38 0 -45 3 -45 20 0 17 -7 20 -40 20 -33 0 -40 3 -40 20 0 18 -7
20 -60 20 -57 0 -60 1 -60 25 0 23 -4 25 -45 25 -38 0 -45 3 -45 20 0 17 -7
20 -40 20 -33 0 -40 3 -40 20 0 18 -7 20 -65 20 -58 0 -65 2 -65 20 0 18 -7
20 -60 20 -53 0 -60 2 -60 20 0 17 -7 20 -40 20 -33 0 -40 3 -40 20 0 18 -7
20 -65 20 -63 0 -65 1 -65 25 0 24 -3 25 -60 25 -53 0 -60 2 -60 20 0 17 -7
20 -45 20 -38 0 -45 3 -45 20 0 18 -7 20 -60 20 -53 0 -60 2 -60 20 0 18 -7
20 -65 20 -58 0 -65 2 -65 20 0 18 -7 20 -80 20 -73 0 -80 2 -80 20 0 18 -7
20 -65 20 -63 0 -65 1 -65 25 0 24 -3 25 -60 25 -53 0 -60 2 -60 20 0 18 -7
20 -65 20 -58 0 -65 2 -65 20 0 18 -7 20 -85 20 -78 0 -85 2 -85 20 0 18 -7
20 -80 20 -73 0 -80 2 -80 20 0 18 -7 20 -85 20 -78 0 -85 2 -85 20 0 18 -7
20 -85 20 -84 0 -85 0 -85 25 0 25 -1 25 -80 25 -73 0 -80 2 -80 20 0 19 -7
20 -105 20 -98 0 -105 1 -105 20 0 19 -7 20 -105 20 -98 0 -105 1 -105 20 0
19 -7 20 -105 20 -98 0 -105 1 -105 20 0 19 -7 20 -125 20 -118 0 -125 1 -125
20 0 19 -7 20 -145 20 l-145 0 0 25 0 25 -145 0 c-138 0 -145 1 -145 20 0 19
-7 20 -210 20 -203 0 -210 1 -210 20 0 20 -7 20 -290 20 -283 0 -290 0 -290
20 0 20 -7 20 -770 20 -763 0 -770 0 -770 -20z m4960 -7670 c0 -18 7 -20 60
-20 53 0 60 -2 60 -20 0 -13 7 -20 20 -20 13 0 20 -7 20 -20 0 -17 7 -20 45
-20 38 0 45 -3 45 -20 0 -13 7 -20 20 -20 13 0 20 -7 20 -20 0 -13 7 -20 20
-20 15 0 20 -7 20 -25 0 -18 5 -25 20 -25 13 0 20 -7 20 -20 0 -13 7 -20 20
-20 17 0 20 -7 20 -40 0 -33 3 -40 20 -40 18 0 20 -7 20 -65 0 -63 1 -65 25
-65 l25 0 0 -540 0 -540 560 0 c553 0 560 0 560 -20 0 -17 7 -20 40 -20 33 0
40 -3 40 -20 0 -17 7 -20 45 -20 38 0 45 -3 45 -20 0 -13 7 -20 20 -20 15 0
20 -7 20 -25 0 -18 5 -25 20 -25 13 0 20 -7 20 -20 0 -13 7 -20 20 -20 13 0
20 -7 20 -20 0 -13 7 -20 20 -20 17 0 20 -7 20 -40 0 -36 3 -40 25 -40 23 0
25 -4 25 -45 0 -38 3 -45 20 -45 19 0 20 -7 20 -100 0 -93 1 -100 20 -100 20
0 20 -7 20 -420 0 -413 0 -420 -20 -420 -17 0 -20 -7 -20 -40 l0 -40 520 0
c513 0 520 0 520 -20 0 -18 7 -20 60 -20 53 0 60 -2 60 -20 0 -17 7 -20 45
-20 41 0 45 -2 45 -25 0 -22 4 -25 40 -25 33 0 40 -3 40 -20 0 -13 7 -20 20
-20 13 0 20 -7 20 -20 0 -13 7 -20 20 -20 13 0 20 -7 20 -20 0 -15 7 -20 25
-20 23 0 25 -4 25 -40 0 -33 3 -40 20 -40 15 0 20 -7 20 -25 0 -18 5 -25 20
-25 18 0 20 -7 20 -60 0 -53 2 -60 20 -60 20 0 20 -7 20 -4980 0 -4973 0
-4980 -20 -4980 -18 0 -20 -7 -20 -60 0 -53 -2 -60 -20 -60 -17 0 -20 -7 -20
-45 0 -38 -3 -45 -20 -45 -13 0 -20 -7 -20 -20 0 -15 -7 -20 -25 -20 -18 0
-25 -5 -25 -20 0 -13 -7 -20 -20 -20 -13 0 -20 -7 -20 -20 0 -13 -7 -20 -20
-20 -13 0 -20 -7 -20 -20 0 -13 -7 -20 -20 -20 -15 0 -20 -7 -20 -25 0 -22 -4
-25 -40 -25 -33 0 -40 -3 -40 -20 0 -18 -7 -20 -65 -20 -58 0 -65 -2 -65 -20
0 -20 -7 -20 -5750 -20 -5743 0 -5750 0 -5750 20 0 18 -7 20 -60 20 -53 0 -60
2 -60 20 0 17 -7 20 -45 20 -41 0 -45 2 -45 25 0 18 -5 25 -20 25 -13 0 -20 7
-20 20 0 13 -7 20 -20 20 -13 0 -20 7 -20 20 0 13 -7 20 -20 20 -13 0 -20 7
-20 20 0 13 -7 20 -20 20 -13 0 -20 7 -20 20 0 15 -7 20 -25 20 -23 0 -25 4
-25 45 0 38 -3 45 -20 45 -18 0 -20 7 -20 60 0 53 -2 60 -20 60 -20 0 -20 7
-20 520 l0 520 -460 0 c-453 0 -460 0 -460 20 0 19 -7 20 -100 20 l-100 0 0
25 c0 23 -4 25 -45 25 -38 0 -45 3 -45 20 0 17 -7 20 -40 20 -33 0 -40 3 -40
20 0 13 -7 20 -20 20 -13 0 -20 7 -20 20 0 13 -7 20 -20 20 -13 0 -20 7 -20
20 0 15 -7 20 -25 20 -18 0 -25 5 -25 20 0 13 -7 20 -20 20 -17 0 -20 7 -20
45 0 38 -3 45 -20 45 -17 0 -20 7 -20 40 0 33 -3 40 -20 40 -19 0 -20 7 -20
105 0 98 -1 105 -20 105 -20 0 -20 7 -20 415 0 408 0 415 20 415 13 0 20 7 20
20 0 13 -7 20 -20 20 -15 0 -20 7 -20 25 l0 25 -520 0 c-513 0 -520 0 -520 20
0 18 -7 20 -65 20 -58 0 -65 2 -65 20 0 13 -7 20 -20 20 -13 0 -20 7 -20 20 0
17 -7 20 -40 20 -33 0 -40 3 -40 20 0 13 -7 20 -20 20 -13 0 -20 7 -20 20 0
15 -7 20 -25 20 -20 0 -25 5 -25 25 0 18 -5 25 -20 25 -17 0 -20 7 -20 40 0
33 -3 40 -20 40 -13 0 -20 7 -20 20 0 13 -7 20 -20 20 -18 0 -20 7 -20 65 0
58 -2 65 -20 65 -20 0 -20 7 -20 4975 0 4968 0 4975 20 4975 18 0 20 7 20 65
0 58 2 65 20 65 13 0 20 7 20 20 0 13 7 20 20 20 17 0 20 7 20 40 0 33 3 40
20 40 15 0 20 7 20 25 0 20 5 25 25 25 18 0 25 5 25 20 0 13 7 20 20 20 13 0
20 7 20 20 0 17 7 20 40 20 33 0 40 3 40 20 0 13 7 20 20 20 13 0 20 7 20 20
0 18 7 20 65 20 58 0 65 2 65 20 0 20 7 20 5750 20 5743 0 5750 0 5750 -20z"/>
<path d="M11730 20335 l0 -4685 395 0 395 0 0 40 c0 33 -3 40 -20 40 -20 0
-20 7 -20 3960 0 3953 0 3960 20 3960 18 0 20 7 20 80 0 73 2 80 20 80 17 0
20 7 20 45 0 38 3 45 20 45 17 0 20 7 20 40 0 33 3 40 20 40 13 0 20 7 20 20
0 15 7 20 25 20 18 0 25 5 25 20 0 13 7 20 20 20 15 0 20 7 20 25 0 18 5 25
20 25 13 0 20 7 20 20 0 17 7 20 40 20 33 0 40 3 40 20 0 17 7 20 45 20 38 0
45 3 45 20 0 20 7 20 4850 20 l4850 0 0 395 0 395 -5455 0 -5455 0 0 -4685z"/>
<path d="M13310 23460 c0 -13 -7 -20 -20 -20 -20 0 -20 -7 -20 -4665 0 -4658
0 -4665 20 -4665 15 0 20 -7 20 -25 l0 -25 375 0 375 0 0 4065 c0 4058 0 4065
20 4065 18 0 20 7 20 60 0 53 2 60 20 60 15 0 20 7 20 25 0 20 5 25 25 25 23
0 25 4 25 40 0 33 3 40 20 40 13 0 20 7 20 20 0 13 7 20 20 20 13 0 20 7 20
20 0 13 7 20 20 20 13 0 20 7 20 20 0 17 7 20 40 20 36 0 40 3 40 25 0 23 4
25 45 25 38 0 45 3 45 20 0 18 7 20 60 20 53 0 60 2 60 20 0 20 7 20 4815 20
l4815 0 0 375 c0 368 0 375 -20 375 -13 0 -20 7 -20 20 0 20 -7 20 -5440 20
-5433 0 -5440 0 -5440 -20z"/>
<path d="M14850 17210 l0 -4690 5460 0 5460 0 0 4690 0 4690 -5460 0 -5460 0
0 -4690z m8460 3875 c0 -25 1 -25 85 -25 78 0 85 -2 85 -20 0 -17 7 -20 40
-20 33 0 40 -3 40 -20 0 -17 7 -20 40 -20 33 0 40 -3 40 -20 0 -15 7 -20 25
-20 18 0 25 -5 25 -20 0 -17 7 -20 40 -20 33 0 40 -3 40 -20 0 -13 7 -20 20
-20 15 0 20 -7 20 -25 0 -18 5 -25 20 -25 13 0 20 -7 20 -20 0 -13 7 -20 20
-20 13 0 20 -7 20 -20 0 -15 7 -20 25 -20 18 0 25 -5 25 -20 0 -13 7 -20 20
-20 13 0 20 -7 20 -20 0 -13 7 -20 20 -20 17 0 20 -7 20 -45 0 -38 3 -45 20
-45 17 0 20 -7 20 -40 0 -33 3 -40 20 -40 17 0 20 -7 20 -40 0 -33 3 -40 20
-40 17 0 20 -7 20 -45 0 -41 2 -45 25 -45 l25 0 0 -100 c0 -93 1 -100 20 -100
19 0 20 -7 20 -170 0 -163 -1 -170 -20 -170 -18 0 -20 -7 -20 -80 0 -79 0 -80
-25 -80 -24 0 -25 -2 -25 -65 0 -58 -2 -65 -20 -65 -17 0 -20 -7 -20 -40 0
-33 -3 -40 -20 -40 -17 0 -20 -7 -20 -45 0 -38 -3 -45 -20 -45 -13 0 -20 -7
-20 -20 0 -13 -7 -20 -20 -20 -17 0 -20 -7 -20 -40 0 -33 -3 -40 -20 -40 -13
0 -20 -7 -20 -20 0 -15 -7 -20 -25 -20 -18 0 -25 -5 -25 -20 0 -13 -7 -20 -20
-20 -15 0 -20 -7 -20 -25 0 -18 -5 -25 -20 -25 -13 0 -20 -7 -20 -20 0 -17 -7
-20 -40 -20 -33 0 -40 -3 -40 -20 0 -13 -7 -20 -20 -20 -13 0 -20 -7 -20 -20
0 -17 -7 -20 -45 -20 -38 0 -45 -3 -45 -20 0 -17 -7 -20 -40 -20 -33 0 -40 -3
-40 -20 0 -17 -7 -20 -40 -20 -36 0 -40 -2 -40 -25 0 -25 -1 -25 -85 -25 -78
0 -85 -2 -85 -20 0 -19 -7 -20 -230 -20 -223 0 -230 1 -230 20 0 18 -7 20 -85
20 -84 0 -85 0 -85 25 0 23 -4 25 -40 25 -33 0 -40 3 -40 20 0 17 -7 20 -40
20 -33 0 -40 3 -40 20 0 17 -7 20 -45 20 -38 0 -45 3 -45 20 0 13 -7 20 -20
20 -13 0 -20 7 -20 20 0 13 -7 20 -20 20 -13 0 -20 7 -20 20 0 17 -7 20 -40
20 -36 0 -40 3 -40 25 0 18 -5 25 -20 25 -17 0 -20 7 -20 40 0 36 -2 40 -25
40 -18 0 -25 5 -25 20 0 13 -7 20 -20 20 -13 0 -20 7 -20 20 0 13 -7 20 -20
20 -17 0 -20 7 -20 45 0 38 -3 45 -20 45 -13 0 -20 7 -20 20 0 13 -7 20 -20
20 -18 0 -20 7 -20 60 0 53 -2 60 -20 60 -18 0 -20 7 -20 65 0 63 -1 65 -25
65 l-25 0 0 105 c0 98 -1 105 -20 105 -18 0 -20 7 -20 80 0 73 2 80 20 80 19
0 20 7 20 125 l0 125 25 0 c24 0 25 2 25 65 0 58 2 65 20 65 17 0 20 7 20 40
0 33 3 40 20 40 17 0 20 7 20 40 0 33 3 40 20 40 15 0 20 7 20 25 0 18 5 25
20 25 17 0 20 7 20 40 0 33 3 40 20 40 13 0 20 7 20 20 0 15 7 20 25 20 18 0
25 5 25 20 0 13 7 20 20 20 13 0 20 7 20 20 0 13 7 20 20 20 15 0 20 7 20 25
0 23 4 25 40 25 33 0 40 3 40 20 0 13 7 20 20 20 13 0 20 7 20 20 0 17 7 20
45 20 38 0 45 3 45 20 0 13 7 20 20 20 13 0 20 7 20 20 0 18 7 20 60 20 53 0
60 2 60 20 0 18 7 20 65 20 63 0 65 1 65 25 l0 25 270 0 270 0 0 -25z m-4920
-1585 c0 -15 7 -20 25 -20 18 0 25 -5 25 -20 0 -13 7 -20 20 -20 13 0 20 -7
20 -20 0 -13 7 -20 20 -20 17 0 20 -7 20 -45 0 -38 3 -45 20 -45 13 0 20 -7
20 -20 0 -13 7 -20 20 -20 13 0 20 -7 20 -20 0 -13 7 -20 20 -20 13 0 20 -7
20 -20 0 -15 7 -20 25 -20 23 0 25 -4 25 -40 0 -33 3 -40 20 -40 15 0 20 -7
20 -25 0 -18 5 -25 20 -25 13 0 20 -7 20 -20 0 -13 7 -20 20 -20 13 0 20 -7
20 -20 0 -13 7 -20 20 -20 17 0 20 -7 20 -40 0 -33 3 -40 20 -40 13 0 20 -7
20 -20 0 -15 7 -20 25 -20 20 0 25 -5 25 -25 0 -18 5 -25 20 -25 13 0 20 -7
20 -20 0 -13 7 -20 20 -20 17 0 20 -7 20 -40 0 -33 3 -40 20 -40 13 0 20 -7
20 -20 0 -13 7 -20 20 -20 13 0 20 -7 20 -20 0 -13 7 -20 20 -20 15 0 20 -7
20 -25 0 -20 5 -25 25 -25 23 0 25 -4 25 -40 0 -33 3 -40 20 -40 13 0 20 -7
20 -20 0 -13 7 -20 20 -20 13 0 20 -7 20 -20 0 -13 7 -20 20 -20 13 0 20 -7
20 -20 0 -13 7 -20 20 -20 17 0 20 -7 20 -45 0 -38 3 -45 20 -45 13 0 20 -7
20 -20 0 -15 7 -20 25 -20 18 0 25 -5 25 -20 0 -13 7 -20 20 -20 13 0 20 -7
20 -20 0 -13 7 -20 20 -20 17 0 20 -7 20 -45 0 -38 3 -45 20 -45 13 0 20 -7
20 -20 0 -13 7 -20 20 -20 13 0 20 -7 20 -20 0 -13 7 -20 20 -20 13 0 20 -7
20 -20 0 -15 7 -20 25 -20 23 0 25 -4 25 -40 0 -33 3 -40 20 -40 15 0 20 -7
20 -25 0 -18 5 -25 20 -25 13 0 20 -7 20 -20 0 -13 7 -20 20 -20 13 0 20 -7
20 -20 0 -13 7 -20 20 -20 17 0 20 -7 20 -40 0 -33 3 -40 20 -40 13 0 20 -7
20 -20 0 -15 7 -20 25 -20 20 0 25 -5 25 -25 0 -18 5 -25 20 -25 13 0 20 -7
20 -20 0 -13 7 -20 20 -20 17 0 20 -7 20 -40 0 -33 3 -40 20 -40 13 0 20 -7
20 -20 0 -13 7 -20 20 -20 13 0 20 -7 20 -20 0 -13 7 -20 20 -20 17 0 20 -7
20 -45 0 -41 2 -45 25 -45 18 0 25 -5 25 -20 0 -13 7 -20 20 -20 13 0 20 -7
20 -20 0 -13 7 -20 20 -20 13 0 20 -7 20 -20 0 -13 7 -20 20 -20 17 0 20 -7
20 -45 0 -38 3 -45 20 -45 13 0 20 -7 20 -20 0 -13 7 -20 20 -20 13 0 20 -7
20 -20 0 -15 7 -20 25 -20 18 0 25 -5 25 -20 0 -13 7 -20 20 -20 17 0 20 -7
20 -40 0 -33 3 -40 20 -40 15 0 20 -7 20 -25 0 -18 5 -25 20 -25 13 0 20 -7
20 -20 0 -13 7 -20 20 -20 13 0 20 -7 20 -20 0 -13 7 -20 20 -20 17 0 20 -7
20 -40 0 -36 3 -40 25 -40 18 0 25 -5 25 -20 0 -13 7 -20 20 -20 15 0 20 -7
20 -25 0 -18 5 -25 20 -25 13 0 20 -7 20 -20 0 -13 7 -20 20 -20 17 0 20 -7
20 -40 0 -33 3 -40 20 -40 13 0 20 -7 20 -20 0 -13 7 -20 20 -20 13 0 20 -7
20 -20 0 -15 7 -20 25 -20 20 0 25 -5 25 -25 0 -18 5 -25 20 -25 17 0 20 -7
20 -40 0 -33 3 -40 20 -40 13 0 20 -7 20 -20 0 -13 7 -20 20 -20 13 0 20 -7
20 -20 0 -13 7 -20 20 -20 13 0 20 -7 20 -20 0 -13 7 -20 20 -20 17 0 20 -7
20 -45 0 -41 2 -45 25 -45 18 0 25 -5 25 -20 0 -13 7 -20 20 -20 13 0 20 -7
20 -20 0 -13 7 -20 20 -20 13 0 20 -7 20 -20 0 -13 7 -20 20 -20 17 0 20 -7
20 -45 0 -38 3 -45 20 -45 13 0 20 -7 20 -20 0 -13 7 -20 20 -20 13 0 20 -7
20 -20 0 -15 7 -20 25 -20 18 0 25 -5 25 -20 0 -13 7 -20 20 -20 13 0 20 -7
20 -20 0 -20 7 -20 415 -20 408 0 415 0 415 20 0 13 7 20 20 20 13 0 20 7 20
20 0 13 7 20 20 20 13 0 20 7 20 20 0 15 7 20 25 20 18 0 25 5 25 20 0 13 7
20 20 20 15 0 20 7 20 25 0 18 5 25 20 25 13 0 20 7 20 20 0 17 7 20 40 20 33
0 40 3 40 20 0 13 7 20 20 20 13 0 20 7 20 20 0 15 7 20 25 20 18 0 25 5 25
20 0 13 7 20 20 20 13 0 20 7 20 20 0 13 7 20 20 20 15 0 20 7 20 25 0 18 5
25 20 25 13 0 20 7 20 20 0 17 7 20 40 20 33 0 40 3 40 20 0 15 7 20 25 20 18
0 25 5 25 20 0 13 7 20 20 20 13 0 20 7 20 20 0 13 7 20 20 20 13 0 20 7 20
20 0 13 7 20 20 20 15 0 20 7 20 25 0 18 5 25 20 25 13 0 20 7 20 20 0 17 7
20 45 20 38 0 45 3 45 20 0 13 7 20 20 20 13 0 20 7 20 20 0 13 7 20 20 20 13
0 20 7 20 20 0 13 7 20 20 20 13 0 20 7 20 20 0 13 7 20 20 20 15 0 20 7 20
25 0 18 5 25 20 25 13 0 20 7 20 20 0 17 7 20 45 20 38 0 45 3 45 20 0 13 7
20 20 20 13 0 20 7 20 20 0 13 7 20 20 20 13 0 20 7 20 20 0 13 7 20 20 20 13
0 20 7 20 20 0 13 7 20 20 20 15 0 20 7 20 25 0 20 5 25 25 25 18 0 25 5 25
20 0 17 7 20 40 20 33 0 40 3 40 20 0 13 7 20 20 20 13 0 20 7 20 20 0 13 7
20 20 20 13 0 20 7 20 20 0 13 7 20 20 20 13 0 20 7 20 20 0 15 7 20 25 20 20
0 25 5 25 25 0 18 5 25 20 25 13 0 20 7 20 20 0 17 7 20 40 20 33 0 40 3 40
20 0 13 7 20 20 20 13 0 20 7 20 20 0 13 7 20 20 20 13 0 20 7 20 20 0 15 7
20 25 20 18 0 25 5 25 20 0 13 7 20 20 20 15 0 20 7 20 25 0 18 5 25 20 25 13
0 20 7 20 20 0 17 7 20 40 20 33 0 40 3 40 20 0 13 7 20 20 20 13 0 20 7 20
20 0 15 7 20 25 20 18 0 25 5 25 20 0 13 7 20 20 20 13 0 20 7 20 20 0 13 7
20 20 20 15 0 20 7 20 25 0 18 5 25 20 25 13 0 20 7 20 20 0 17 7 20 40 20 33
0 40 3 40 20 0 15 7 20 25 20 18 0 25 5 25 20 0 13 7 20 20 20 13 0 20 7 20
20 0 13 7 20 20 20 13 0 20 7 20 20 0 13 7 20 20 20 15 0 20 7 20 25 0 18 5
25 20 25 13 0 20 7 20 20 0 17 7 20 45 20 l45 0 0 40 0 40 40 0 40 0 0 -40 c0
-33 -3 -40 -20 -40 -13 0 -20 -7 -20 -20 0 -13 7 -20 20 -20 20 0 20 -7 20
-2275 0 -2268 0 -2275 -20 -2275 -13 0 -20 -7 -20 -20 0 -20 -7 -20 -4670 -20
-4663 0 -4670 0 -4670 20 0 13 -7 20 -20 20 -20 0 -20 7 -20 775 0 768 0 775
20 775 17 0 20 7 20 40 0 36 3 40 25 40 23 0 25 4 25 40 0 33 3 40 20 40 13 0
20 7 20 20 0 13 7 20 20 20 17 0 20 7 20 45 0 38 3 45 20 45 17 0 20 7 20 40
0 33 3 40 20 40 13 0 20 7 20 20 0 13 7 20 20 20 17 0 20 7 20 45 0 41 2 45
25 45 23 0 25 4 25 40 0 33 3 40 20 40 17 0 20 7 20 40 0 33 3 40 20 40 13 0
20 7 20 20 0 13 7 20 20 20 17 0 20 7 20 45 0 38 3 45 20 45 17 0 20 7 20 40
0 33 3 40 20 40 13 0 20 7 20 20 0 15 7 20 25 20 23 0 25 4 25 45 0 38 3 45
20 45 17 0 20 7 20 40 0 33 3 40 20 40 17 0 20 7 20 40 0 33 3 40 20 40 13 0
20 7 20 20 0 13 7 20 20 20 17 0 20 7 20 45 0 38 3 45 20 45 17 0 20 7 20 40
0 36 3 40 25 40 18 0 25 5 25 20 0 13 7 20 20 20 17 0 20 7 20 45 0 38 3 45
20 45 17 0 20 7 20 40 0 33 3 40 20 40 17 0 20 7 20 40 0 33 3 40 20 40 13 0
20 7 20 20 0 13 7 20 20 20 17 0 20 7 20 45 0 41 2 45 25 45 23 0 25 4 25 40
0 33 3 40 20 40 13 0 20 7 20 20 0 13 7 20 20 20 17 0 20 7 20 45 0 38 3 45
20 45 17 0 20 7 20 40 0 33 3 40 20 40 17 0 20 7 20 40 0 33 3 40 20 40 13 0
20 7 20 20 0 15 7 20 25 20 23 0 25 4 25 45 0 38 3 45 20 45 17 0 20 7 20 40
0 33 3 40 20 40 13 0 20 7 20 20 0 13 7 20 20 20 17 0 20 7 20 45 0 38 3 45
20 45 17 0 20 7 20 40 0 33 3 40 20 40 17 0 20 7 20 40 0 36 3 40 25 40 18 0
25 5 25 20 0 13 7 20 20 20 17 0 20 7 20 45 0 38 3 45 20 45 17 0 20 7 20 40
0 33 3 40 20 40 13 0 20 7 20 20 0 13 7 20 20 20 17 0 20 7 20 45 0 38 3 45
20 45 17 0 20 7 20 40 0 36 3 40 25 40 23 0 25 4 25 40 0 33 3 40 20 40 13 0
20 7 20 20 0 13 7 20 20 20 17 0 20 7 20 45 0 38 3 45 20 45 17 0 20 7 20 40
0 33 3 40 20 40 13 0 20 7 20 20 0 13 7 20 20 20 17 0 20 7 20 45 0 41 2 45
25 45 23 0 25 4 25 40 0 33 3 40 20 40 17 0 20 7 20 40 0 33 3 40 20 40 13 0
20 7 20 20 0 13 7 20 20 20 17 0 20 7 20 45 0 38 3 45 20 45 17 0 20 7 20 40
0 33 3 40 20 40 17 0 20 7 20 40 0 36 3 40 25 40 20 0 25 5 25 25 0 18 5 25
20 25 17 0 20 7 20 40 0 33 3 40 20 40 17 0 20 7 20 40 0 33 3 40 20 40 13 0
20 7 20 20 0 13 7 20 20 20 17 0 20 7 20 45 0 38 3 45 20 45 17 0 20 7 20 40
0 36 3 40 25 40 23 0 25 4 25 40 0 33 3 40 20 40 15 0 20 7 20 25 0 18 5 25
20 25 17 0 20 7 20 40 0 33 3 40 20 40 17 0 20 7 20 40 l0 40 40 0 c33 0 40
-3 40 -20z"/>
</g>
</svg>
