<?xml version="1.0" encoding="utf-8"?>
<!-- Generator: Adobe Illustrator 18.0.0, SVG Export Plug-In . SVG Version: 6.00 Build 0)  -->
<!DOCTYPE svg PUBLIC "-//W3C//DTD SVG 1.1//EN" "http://www.w3.org/Graphics/SVG/1.1/DTD/svg11.dtd">
<svg version="1.1" id="Layer_1" xmlns="http://www.w3.org/2000/svg" xmlns:xlink="http://www.w3.org/1999/xlink" x="0px" y="0px"
	 viewBox="0 0 200 200" enable-background="new 0 0 200 200" xml:space="preserve">
<path d="M176.2,190c-3.7,0-7.2-1.5-9.7-4.1l-37.1-37c-12.7,8.8-27.8,13.4-43.2,13.4c-42.1,0-76.2-34.1-76.2-76.2S44.1,10,86.2,10
	s76.2,34.1,76.2,76.2c0,15.4-4.7,30.5-13.4,43.2l37.1,37.1c2.5,2.5,4,6.1,4,9.7C190,183.7,183.7,190,176.2,190z M86.2,37.7
	c-26.7,0-48.5,21.7-48.5,48.5s21.7,48.5,48.5,48.5s48.5-21.7,48.5-48.5S112.9,37.7,86.2,37.7z"/>
</svg>
