<?xml version="1.0" encoding="utf-8"?>
<!-- Generator: Adobe Illustrator 18.0.0, SVG Export Plug-In . SVG Version: 6.00 Build 0)  -->
<!DOCTYPE svg PUBLIC "-//W3C//DTD SVG 1.1//EN" "http://www.w3.org/Graphics/SVG/1.1/DTD/svg11.dtd">
<svg version="1.1" id="Layer_1" xmlns="http://www.w3.org/2000/svg" xmlns:xlink="http://www.w3.org/1999/xlink" x="0px" y="0px"
	 viewBox="0 0 256 256" enable-background="new 0 0 256 256" xml:space="preserve">
<path d="M75.8,201.4c0,4.9-1.7,9.1-5.2,12.5c-3.5,3.5-7.6,5.2-12.5,5.2c-4.8,0-9-1.8-12.5-5.3c-3.5-3.5-5.3-7.7-5.3-12.5
	c0-4.9,1.7-9.1,5.2-12.5c3.5-3.5,7.6-5.2,12.5-5.2s9.1,1.7,12.5,5.2C74,192.3,75.8,196.5,75.8,201.4z M144.7,229.9
	c0,4.9-1.7,9.1-5.2,12.5c-3.5,3.5-7.6,5.2-12.5,5.2c-4.9,0-9.1-1.7-12.5-5.2s-5.2-7.6-5.2-12.5c0-4.9,1.7-9.1,5.2-12.5
	s7.6-5.2,12.5-5.2c4.9,0,9.1,1.7,12.5,5.2C143,220.8,144.7,225,144.7,229.9z M47.2,132.4c0,4.9-1.7,9.1-5.2,12.5
	c-3.5,3.5-7.6,5.2-12.5,5.2s-9.1-1.7-12.5-5.2c-3.5-3.5-5.2-7.6-5.2-12.5c0-4.9,1.7-9.1,5.2-12.5s7.6-5.2,12.5-5.2s9.1,1.7,12.5,5.2
	C45.5,123.4,47.2,127.5,47.2,132.4z M213.7,201.4c0,4.8-1.8,9-5.3,12.5c-3.5,3.5-7.7,5.3-12.5,5.3c-4.9,0-9.1-1.7-12.5-5.2
	c-3.5-3.5-5.2-7.6-5.2-12.5c0-4.9,1.7-9.1,5.2-12.5c3.5-3.5,7.6-5.2,12.5-5.2c4.9,0,9.1,1.7,12.5,5.2
	C211.9,192.3,213.7,196.5,213.7,201.4z M80.2,63.5c0,6.1-2.2,11.3-6.5,15.6c-4.3,4.3-9.6,6.5-15.6,6.5s-11.3-2.2-15.6-6.5
	s-6.5-9.6-6.5-15.6s2.2-11.3,6.5-15.6S52,41.3,58,41.3s11.3,2.2,15.6,6.5C78,52.2,80.2,57.4,80.2,63.5z M242.2,132.4
	c0,4.9-1.7,9.1-5.2,12.5c-3.5,3.5-7.6,5.2-12.5,5.2c-4.9,0-9.1-1.7-12.5-5.2c-3.5-3.5-5.2-7.6-5.2-12.5c0-4.9,1.7-9.1,5.2-12.5
	c3.5-3.5,7.6-5.2,12.5-5.2c4.9,0,9.1,1.7,12.5,5.2C240.5,123.4,242.2,127.5,242.2,132.4z M153.6,35c0,7.4-2.6,13.7-7.8,18.8
	s-11.4,7.8-18.8,7.8c-7.4,0-13.7-2.6-18.8-7.8s-7.8-11.4-7.8-18.8s2.6-13.7,7.8-18.8s11.4-7.8,18.8-7.8c7.4,0,13.7,2.6,18.8,7.8
	S153.6,27.6,153.6,35z M227,63.5c0,8.6-3,15.9-9.1,21.9c-6.1,6-13.4,9.1-21.9,9.1c-8.6,0-15.9-3-21.9-9.1c-6-6-9.1-13.4-9.1-21.9
	c0-8.5,3-15.8,9.1-21.9c6-6.1,13.4-9.1,21.9-9.1c8.5,0,15.8,3,21.9,9.1C223.9,47.7,227,55,227,63.5z"/>
</svg>
