<?xml version="1.0" encoding="utf-8"?>
<!-- Generator: Adobe Illustrator 18.0.0, SVG Export Plug-In . SVG Version: 6.00 Build 0)  -->
<!DOCTYPE svg PUBLIC "-//W3C//DTD SVG 1.1//EN" "http://www.w3.org/Graphics/SVG/1.1/DTD/svg11.dtd">
<svg version="1.1" id="Layer_1" xmlns="http://www.w3.org/2000/svg" xmlns:xlink="http://www.w3.org/1999/xlink" x="0px" y="0px"
	 viewBox="0 0 612 792" enable-background="new 0 0 612 792" xml:space="preserve">
<g>
	<g>
		<g>
			<path d="M165,120.4c-0.3,0-0.5,0.2-0.5,0.5v549.8c0,0.3,0.2,0.5,0.5,0.5h282c0.3,0,0.5-0.2,0.5-0.5V120.9c0-0.3-0.2-0.5-0.5-0.5
				H165z M306.1,634.9c-37.5,0-68-30.4-68-68s30.4-68,68-68s68,30.4,68,68S343.6,634.9,306.1,634.9z M306.1,463.7
				c-37.5,0-68-30.4-68-68s30.4-68,68-68s68,30.4,68,68S343.6,463.7,306.1,463.7z M306.1,292.6c-37.5,0-68-30.4-68-68s30.4-68,68-68
				s68,30.4,68,68S343.6,292.6,306.1,292.6z"/>
		</g>
	</g>
	<g>
		<g>
			<g>
				<path d="M474.1,279.9c-0.2,0.2-0.4,0.1-0.4-0.1V164.4c0-0.3,0.2-0.5,0.5-0.5h115.3c0.3,0,0.3,0.2,0.1,0.4L474.1,279.9z"/>
			</g>
			<g>
				<path d="M474.1,453.6c-0.2,0.2-0.4,0.1-0.4-0.1V338.1c0-0.3,0.2-0.5,0.5-0.5h115.3c0.3,0,0.3,0.2,0.1,0.4L474.1,453.6z"/>
			</g>
			<g>
				<path d="M474.1,627.3c-0.2,0.2-0.4,0.1-0.4-0.1V511.8c0-0.3,0.2-0.5,0.5-0.5h115.3c0.3,0,0.3,0.2,0.1,0.4L474.1,627.3z"/>
			</g>
		</g>
	</g>
	<g>
		<g>
			<g>
				<path d="M138.1,279.9c0.2,0.2,0.4,0.1,0.4-0.1V164.4c0-0.3-0.2-0.5-0.5-0.5H22.6c-0.3,0-0.3,0.2-0.1,0.4L138.1,279.9z"/>
			</g>
			<g>
				<path d="M138.1,453.6c0.2,0.2,0.4,0.1,0.4-0.1V338.1c0-0.3-0.2-0.5-0.5-0.5H22.6c-0.3,0-0.3,0.2-0.1,0.4L138.1,453.6z"/>
			</g>
			<g>
				<path d="M138.1,627.3c0.2,0.2,0.4,0.1,0.4-0.1V511.8c0-0.3-0.2-0.5-0.5-0.5H22.6c-0.3,0-0.3,0.2-0.1,0.4L138.1,627.3z"/>
			</g>
		</g>
	</g>
</g>
</svg>
