<?xml version="1.0" encoding="utf-8"?>
<!-- Generator: Adobe Illustrator 18.0.0, SVG Export Plug-In . SVG Version: 6.00 Build 0)  -->
<!DOCTYPE svg PUBLIC "-//W3C//DTD SVG 1.1//EN" "http://www.w3.org/Graphics/SVG/1.1/DTD/svg11.dtd">
<svg version="1.1" id="Layer_1" xmlns="http://www.w3.org/2000/svg" xmlns:xlink="http://www.w3.org/1999/xlink" x="0px" y="0px"
	 viewBox="0 0 200 200" enable-background="new 0 0 200 200" xml:space="preserve">
<g>
	<path d="M120.1,189.1c0.6,0.6,1.5,0.9,2.3,0.9c0.5,0,0.9-0.1,1.4-0.3c1.3-0.5,2.1-1.8,2.1-3.2V85.4l-56.7,56.5L120.1,189.1z"/>
	<path d="M32.6,134.9h9.3l84-83.7V14.6c0-1.4-0.8-2.6-2.1-3.2c-1.3-0.5-2.8-0.2-3.8,0.7L59,72.9H30c-8.5,0-14.4,7.1-14.4,17.3
		l0.4,28.3C16.1,127.5,23.5,134.9,32.6,134.9z"/>
	<path d="M151.9,68.3c-1.5-1.1-3.7-0.8-4.8,0.8c-1.1,1.5-0.8,3.7,0.8,4.8c7.3,5.3,16,14.4,16,27.6c0,13.3-8.7,22.3-16,27.6
		c-1.5,1.1-1.9,3.3-0.8,4.8c0.7,0.9,1.7,1.4,2.8,1.4c0.7,0,1.4-0.2,2-0.7c12.1-8.8,18.8-20.6,18.8-33.2
		C170.7,88.9,164,77.1,151.9,68.3z"/>
	<path d="M183.1,11.3L183.1,11.3c-2-2-5.9-1.5-8.6,1.1L18.9,167.5c-2.7,2.7-3.2,6.5-1.2,8.6l0,0c2,2,5.9,1.5,8.6-1.1l37.9-37.7v0
		l61.7-61.5v0l56.1-55.9C184.6,17.2,185.2,13.3,183.1,11.3z"/>
</g>
</svg>
