<?xml version="1.0" encoding="utf-8"?>
<!-- Generator: Adobe Illustrator 18.0.0, SVG Export Plug-In . SVG Version: 6.00 Build 0)  -->
<!DOCTYPE svg PUBLIC "-//W3C//DTD SVG 1.1//EN" "http://www.w3.org/Graphics/SVG/1.1/DTD/svg11.dtd">
<svg version="1.1" id="Layer_1" xmlns="http://www.w3.org/2000/svg" xmlns:xlink="http://www.w3.org/1999/xlink" x="0px" y="0px"
	 viewBox="0 0 612 792" enable-background="new 0 0 612 792" xml:space="preserve">
<path d="M592.3,390.3c0.2,0.5,0.3,1.3,0.3,2.4c0,3-1.1,5.6-3.3,7.7c-2.2,2.2-4.8,3.3-7.7,3.3c-2.5,0-5.2-1.1-7.9-3.4
	c-11.2-10.5-21.9-18.5-32-23.8c-10.1-5.3-21.8-7.9-35.1-7.9c-15.6,0-30.3,4.3-44.1,12.7c-13.8,8.5-25.6,19.6-35.5,33.4
	c-1.6,2.3-3.6,5.5-6,9.6c-2.4,4.1-4.1,6.9-5,8.3c-2.5,3.9-5.7,5.9-9.6,5.9c-4.1,0-7.5-1.9-10-5.9c-0.9-1.4-2.6-4.1-5-8.3
	c-2.4-4.1-4.4-7.3-6-9.6c-9.9-13.8-21.6-24.9-35.3-33.4c-13.7-8.5-28.3-12.7-43.9-12.7c-15.6,0-30.2,4.3-43.9,12.7
	c-13.7,8.5-25.4,19.6-35.3,33.4c-1.6,2.3-3.6,5.5-6,9.6c-2.4,4.1-4.1,6.9-5,8.3c-2.5,3.9-5.9,5.9-10,5.9c-3.9,0-7.1-1.9-9.6-5.9
	c-0.9-1.4-2.6-4.1-5-8.3c-2.4-4.1-4.4-7.3-6-9.6c-9.9-13.8-21.7-24.9-35.5-33.4c-13.8-8.5-28.5-12.7-44.1-12.7
	c-13.3,0-25,2.6-35.1,7.9c-10.1,5.3-20.8,13.2-32,23.8c-2.8,2.3-5.4,3.4-7.9,3.4c-3,0-5.6-1.1-7.7-3.3c-2.2-2.2-3.3-4.8-3.3-7.7
	c0-1.1,0.1-1.9,0.3-2.4c10.3-42,30.1-78.7,59.4-110c29.3-31.3,63.5-54.8,102.6-70.4c39.1-15.6,80.5-23.4,124.1-23.4
	c32.1,0,63.6,4.6,94.5,13.8c30.9,9.2,59.2,22.2,84.9,39.1c25.7,16.9,48,38.3,67,64.4C571.5,329.8,584.7,358.6,592.3,390.3
	L592.3,390.3z M328.3,383.4v199.7c0,23.9-8.7,44.5-26.2,62c-17.4,17.4-38.1,26.2-62,26.2c-23.9,0-44.5-8.7-62-26.2
	c-17.4-17.4-26.2-38.1-26.2-62c0-6,2.2-11.1,6.5-15.5c4.4-4.4,9.5-6.5,15.5-6.5c6,0,11.1,2.2,15.5,6.5c4.4,4.4,6.5,9.5,6.5,15.5
	c0,11.5,4.5,21.7,13.4,30.6s19.2,13.4,30.6,13.4c11.5,0,21.7-4.5,30.6-13.4c8.9-8.9,13.4-19.2,13.4-30.6V383.4
	c7.6-2.5,14.9-3.8,22-3.8C313.3,379.6,320.7,380.9,328.3,383.4z M328.3,142.4v33.7c-9.6-0.5-17-0.7-22-0.7c-5,0-12.4,0.2-22,0.7
	v-33.7c0-6,2.2-11.1,6.5-15.5c4.4-4.4,9.5-6.5,15.5-6.5c6,0,11.1,2.2,15.5,6.5C326.1,131.3,328.3,136.5,328.3,142.4z"/>
</svg>
