<?xml version="1.0" encoding="utf-8"?>
<!-- Generator: Adobe Illustrator 24.1.3, SVG Export Plug-In . SVG Version: 6.00 Build 0)  -->
<svg version="1.1" id="Layer_1" xmlns="http://www.w3.org/2000/svg" xmlns:xlink="http://www.w3.org/1999/xlink" x="0px" y="0px"
	 viewBox="0 0 288 288" style="enable-background:new 0 0 288 288;" xml:space="preserve">
<style type="text/css">
	.st0{fill:url(#SVGID_1_);}
	.st1{fill:url(#SVGID_2_);}
</style>
<g>
	<g>
		<g>
			<linearGradient id="SVGID_1_" gradientUnits="userSpaceOnUse" x1="194.4991" y1="300.0603" x2="95.2696" y2="27.4296">
				<stop  offset="0" style="stop-color:#0E3E61"/>
				<stop  offset="1" style="stop-color:#9DD9DD"/>
			</linearGradient>
			<path class="st0" d="M240.2,244.8c-4.4,0-8.3,1.5-11.5,4l-40.9-40.9c6.2-5.6,10.8-13,12.9-21.4l28.2,3.7c0.2,2.5,1.1,5,2.7,7.1
				c4.5,5.9,12.9,6.9,18.8,2.4c5.9-4.5,6.9-12.9,2.4-18.8c-4.5-5.9-12.9-6.9-18.8-2.4c-1.5,1.2-2.8,2.7-3.6,4.3l-28.5-3.7
				c0.1-1,0.1-2,0.1-3.1c0-6.7-1.6-13.1-4.3-18.7l18.5-18.5c10.5,8.1,25.6,7.3,35.2-2.3c10.4-10.4,10.4-27.4,0-37.8
				c-10.4-10.4-27.4-10.4-37.8,0c-9.5,9.5-10.4,24.3-2.6,34.8l-17.3,17.2c-7-9.5-17.5-16-30.3-17.3V58.9
				c12.8-1.7,23.4-12.9,23.4-26.5c0-14.8-11.9-26.7-26.7-26.7c-14.8,0-26.8,12-26.8,26.7c0,13.4,9.8,24.5,22.7,26.4v74.5
				c-10.7,0.8-21.4,6.1-28.5,14.1l-27-27.1c1.4-2.4,2.3-5.2,2.3-8.2c0-8.9-7.2-16-16-16c-8.9,0-16,7.2-16,16s7.2,16,16.1,16
				c3.1,0,6.1-0.9,8.5-2.5l27.8,27.8c-4.1,6.5-6.4,14.3-6.4,22.5c0,2.2,0.2,4.3,0.5,6.3L79.8,194c-5.6-12-19.3-18.3-32.3-14.3
				c-14.1,4.4-21.9,19.4-17.5,33.5c4.4,14.1,19.4,21.9,33.5,17.5c12.8-4,20.4-16.8,18.4-29.6l36.7-11.5
				c4.2,12.4,13.8,22.2,26.1,26.6l-5.8,19.8c-2.5-0.2-5.1,0.3-7.5,1.6c-6.5,3.6-8.8,11.7-5.3,18.2c3.6,6.5,11.7,8.8,18.2,5.3
				c6.5-3.6,8.8-11.7,5.3-18.2c-0.9-1.7-2.2-3.1-3.7-4.2l6-20.6c2.3,0.4,4.7,0.6,7.2,0.6c8.3,0,16-2.4,22.5-6.4l42.1,42.1
				c-1.5,2.7-2.3,5.8-2.3,9c0,10.3,8.4,18.7,18.7,18.7c10.3,0,18.7-8.4,18.7-18.7C259,253.1,250.6,244.8,240.2,244.8z M246.9,185.5
				c2,2.6,1.5,6.3-1.1,8.3c-2.6,2-6.3,1.5-8.3-1.1c-2-2.6-1.5-6.3,1.1-8.3C241.2,182.4,244.9,182.9,246.9,185.5z M218.9,104
				c7.5-7.5,19.7-7.5,27.2,0c7.5,7.5,7.5,19.7,0,27.2c-7.5,7.5-19.7,7.5-27.2,0C211.4,123.7,211.4,111.5,218.9,104z M86.5,120.7
				c-4.7,0-8.6-3.8-8.6-8.6c0-4.7,3.8-8.6,8.6-8.6c4.7,0,8.6,3.8,8.6,8.6C95.1,116.8,91.2,120.7,86.5,120.7z M61.3,223.6
				c-10.1,3.2-21-2.5-24.1-12.6c-3.2-10.1,2.5-21,12.6-24.1c10.1-3.2,21,2.5,24.1,12.6C77.1,209.6,71.5,220.4,61.3,223.6z
				 M140.8,254.6c-2.8,1.6-6.4,0.5-8-2.3c-1.6-2.8-0.5-6.4,2.3-8c2.8-1.6,6.4-0.5,8,2.3C144.7,249.5,143.7,253.1,140.8,254.6z
				 M140.8,32.4c0-10.6,8.6-19.3,19.3-19.3c10.6,0,19.3,8.6,19.3,19.3s-8.6,19.3-19.3,19.3C149.4,51.6,140.8,43,140.8,32.4z
				 M159.2,211.3c-19.5,0-35.3-15.8-35.3-35.3s15.8-35.3,35.3-35.3c19.5,0,35.3,15.8,35.3,35.3S178.7,211.3,159.2,211.3z
				 M240.2,274.7c-6.2,0-11.2-5-11.2-11.2c0-6.2,5-11.2,11.2-11.2c6.2,0,11.2,5,11.2,11.2C251.5,269.7,246.4,274.7,240.2,274.7z"/>
			<linearGradient id="SVGID_2_" gradientUnits="userSpaceOnUse" x1="195.4248" y1="302.5829" x2="94.3557" y2="24.8979">
				<stop  offset="0" style="stop-color:#0E3E61"/>
				<stop  offset="1" style="stop-color:#9DD9DD"/>
			</linearGradient>
			<path class="st1" d="M240.2,284.9c-11.8,0-21.4-9.6-21.4-21.4c0-2.9,0.6-5.8,1.8-8.5l-39.2-39.2c-8.2,4.6-17.7,6.5-27.4,5.4
				l-4.9,16.7c1.2,1.1,2.2,2.4,3,3.9c4.3,7.8,1.4,17.6-6.4,21.8c-7.7,4.3-17.5,1.4-21.8-6.4c-2.1-3.8-2.5-8.1-1.3-12.2
				c1.2-4.1,3.9-7.5,7.7-9.6c2.1-1.1,4.4-1.8,6.7-1.9l4.5-15.5c-11.1-4.7-20-13.8-24.5-24.9l-32.1,10.1c1,13.4-7.5,26.2-20.5,30.3
				c-7.5,2.4-15.5,1.7-22.4-2c-7-3.6-12.1-9.8-14.5-17.3c-4.9-15.5,3.8-32,19.3-36.9c13.3-4.2,27.7,1.6,34.4,13.6l32.8-10.3
				c-0.1-1.5-0.2-3-0.2-4.5c0-7.8,2-15.3,5.7-22.1L94.6,129c-2.5,1.2-5.3,1.8-8.1,1.8c-10.3,0-18.7-8.4-18.7-18.7
				s8.4-18.7,18.7-18.7s18.7,8.4,18.7,18.7c0,2.6-0.6,5.3-1.7,7.7l23.7,23.7c6.9-6.7,16.3-11.3,25.9-12.7V61
				C140,58,130.5,46,130.5,32.4c0-16.2,13.2-29.4,29.5-29.4c16.2,0,29.4,13.2,29.4,29.4c0,13.9-9.9,25.9-23.4,28.8V131
				c11,1.6,20.7,7.1,27.9,15.6l13.6-13.5c-7.1-11.4-5.5-26.7,4.2-36.3c11.5-11.5,30.2-11.5,41.6,0c5.6,5.6,8.6,13,8.6,20.8
				c0,7.9-3.1,15.3-8.6,20.8c-9.9,9.9-25.3,11.4-36.8,3.9L201,157.8c2.5,5.7,3.8,11.8,3.8,18.1c0,0.2,0,0.5,0,0.7l24.4,3.2
				c0.9-1.3,2.1-2.5,3.4-3.5c3.4-2.6,7.6-3.8,11.9-3.2c4.3,0.6,8,2.7,10.7,6.1c2.6,3.4,3.8,7.6,3.2,11.9c-0.6,4.2-2.7,8-6.1,10.7
				c-7,5.4-17.1,4.1-22.5-2.9c-1.5-1.9-2.5-4.1-3-6.4l-23.8-3.1c-2.1,7-5.9,13.3-11,18.5l37.4,37.4c3.4-2.1,7.2-3.2,11.2-3.2
				c11.8,0,21.4,9.6,21.4,21.4C261.7,275.3,252.1,284.9,240.2,284.9z M182.2,209l45,45l-1,1.8c-1.3,2.3-2,5-2,7.7
				c0,8.8,7.2,16,16,16c8.8,0,16-7.2,16-16c0-8.8-7.2-16-16-16c-3.6,0-7,1.2-9.9,3.4l-1.9,1.5l-44.6-44.6l2.1-1.9
				c6-5.4,10.2-12.3,12.1-20l0.6-2.3l32.7,4.2l0.2,2.2c0.2,2.1,0.9,4,2.2,5.7c3.6,4.7,10.3,5.5,15,1.9c4.7-3.6,5.5-10.3,1.9-15
				c-1.7-2.3-4.3-3.7-7.1-4.1c-2.8-0.4-5.6,0.4-7.9,2.1c-1.2,0.9-2.2,2.1-2.9,3.4l-0.9,1.6l-32.9-4.3l0.2-2.5
				c0.1-0.9,0.1-1.9,0.1-2.9c0-6.1-1.4-12-4-17.5l-0.8-1.7l21.5-21.5l1.9,1.4c9.5,7.3,23.2,6.4,31.7-2.1c4.6-4.5,7.1-10.6,7.1-17
				c0-6.4-2.5-12.5-7-17c-9.1-9.1-24.9-9.1-34,0c-8.4,8.4-9.4,21.8-2.4,31.3l1.4,1.9l-21.2,21.1l-1.9-2.5
				c-6.9-9.3-17-15.1-28.4-16.2l-2.4-0.2V56.5l2.3-0.3c11.8-1.6,21-12,21-23.9c0-13.3-10.8-24.1-24-24.1
				c-13.3,0-24.1,10.8-24.1,24.1c0,11.8,8.8,22,20.4,23.8l2.3,0.3v79.3L156,136c-10,0.8-20,5.7-26.7,13.2l-1.9,2.1l-30.5-30.6
				l1.1-1.8c1.3-2.1,1.9-4.5,1.9-6.8c0-7.4-6-13.4-13.3-13.4c-7.4,0-13.3,6-13.3,13.4c0,7.4,6,13.4,13.4,13.4c2.5,0,5-0.7,7.1-2.1
				l1.8-1.1l30.8,30.8l-1.1,1.8c-3.9,6.3-6,13.6-6,21.1c0,2,0.1,4,0.4,6l0.3,2.3l-41.5,13l-1-2.1c-5.1-10.9-17.6-16.4-29-12.8
				c-12.6,4-19.7,17.5-15.7,30.2c1.9,6.1,6.1,11.1,11.8,14.1c5.7,3,12.2,3.5,18.3,1.6c11.3-3.5,18.4-15,16.6-26.6l-0.4-2.3l41.4-13
				l0.8,2.5c3.9,11.5,13,20.9,24.5,25l2.4,0.9L141,239l-2.2-0.2c-2.1-0.1-4.1,0.3-6,1.3c-2.5,1.4-4.3,3.6-5.1,6.4
				c-0.8,2.7-0.5,5.6,0.9,8.1c1.4,2.5,3.6,4.3,6.4,5.1c2.7,0.8,5.6,0.5,8.1-0.9c5.2-2.8,7.1-9.3,4.2-14.5c-0.7-1.3-1.7-2.5-2.9-3.4
				l-1.5-1.1l7.2-24.7l2.4,0.4c10,1.7,19.7-0.3,27.9-5.4L182.2,209z M240.2,277.4c-7.7,0-13.9-6.2-13.9-13.9
				c0-7.7,6.2-13.9,13.9-13.9c7.7,0,13.9,6.2,13.9,13.9C254.2,271.2,247.9,277.4,240.2,277.4z M240.2,254.9c-4.7,0-8.5,3.8-8.5,8.5
				c0,4.7,3.8,8.5,8.5,8.5s8.5-3.8,8.5-8.5C248.8,258.8,245,254.9,240.2,254.9z M138,258c-0.8,0-1.6-0.1-2.4-0.4
				c-2.2-0.6-4-2.1-5.1-4.1c-1.1-2-1.4-4.3-0.7-6.5c0.6-2.2,2.1-4,4.1-5.1c2-1.1,4.3-1.4,6.5-0.7c2.2,0.6,4,2.1,5.1,4.1
				c1.1,2,1.4,4.3,0.7,6.5c-0.6,2.2-2.1,4-4.1,5.1C140.8,257.7,139.4,258,138,258z M138,246.3c-0.5,0-1,0.1-1.5,0.4
				c-0.8,0.4-1.3,1.1-1.5,1.9c-0.2,0.8-0.1,1.7,0.3,2.4c0.4,0.8,1.1,1.3,1.9,1.5c0.8,0.2,1.7,0.1,2.4-0.3h0c0.7-0.4,1.3-1.1,1.5-1.9
				c0.2-0.8,0.1-1.7-0.3-2.4c-0.4-0.8-1.1-1.3-1.9-1.5C138.6,246.3,138.3,246.3,138,246.3z M55.6,227.2c-3.5,0-7-0.8-10.1-2.5
				c-5.2-2.7-9-7.3-10.8-12.9c-1.8-5.6-1.2-11.5,1.5-16.7s7.3-9,12.9-10.8c11.6-3.6,23.9,2.8,27.5,14.4c1.8,5.6,1.2,11.5-1.5,16.7
				c-2.7,5.2-7.3,9-12.9,10.8C60,226.9,57.8,227.2,55.6,227.2z M55.6,188.7c-1.6,0-3.3,0.3-5,0.8c-4.2,1.3-7.7,4.2-9.7,8.1
				c-2.1,3.9-2.4,8.4-1.1,12.6c1.3,4.2,4.2,7.7,8.1,9.7c3.9,2,8.4,2.4,12.6,1.1c8.7-2.7,13.6-12.1,10.8-20.8
				C69.2,193.2,62.6,188.7,55.6,188.7z M159.2,214c-21,0-38-17-38-38c0-21,17-38,38-38c21,0,38,17,38,38
				C197.2,197,180.2,214,159.2,214z M159.2,143.4c-18,0-32.6,14.6-32.6,32.6s14.6,32.6,32.6,32.6s32.6-14.6,32.6-32.6
				S177.2,143.4,159.2,143.4z M242.2,197.6c-2.6,0-5.1-1.1-6.8-3.3c-1.4-1.8-2-4.1-1.7-6.3s1.5-4.3,3.3-5.7c1.8-1.4,4-2,6.3-1.7
				c2.3,0.3,4.3,1.5,5.7,3.3l0,0c2.9,3.7,2.2,9.1-1.6,12C245.9,197.1,244.1,197.6,242.2,197.6z M242.2,185.9c-0.7,0-1.4,0.2-1.9,0.7
				c-1.4,1.1-1.7,3.1-0.6,4.5c1.1,1.4,3.1,1.6,4.5,0.6c1.4-1.1,1.7-3.1,0.6-4.5l0,0c-0.5-0.7-1.3-1.1-2.1-1.2
				C242.5,185.9,242.4,185.9,242.2,185.9z M232.5,139.5c-5.6,0-11.2-2.1-15.5-6.4c-4.1-4.1-6.4-9.7-6.4-15.5
				c0-5.9,2.3-11.4,6.4-15.5h0c8.6-8.5,22.5-8.6,31,0c8.6,8.6,8.6,22.5,0,31C243.7,137.4,238.1,139.5,232.5,139.5z M220.8,105.9
				c-6.5,6.5-6.5,17,0,23.4c6.4,6.4,17,6.5,23.4,0c6.5-6.5,6.5-17,0-23.4C237.8,99.4,227.2,99.4,220.8,105.9L220.8,105.9z
				 M86.5,123.4c-6.2,0-11.2-5-11.2-11.3c0-6.2,5-11.3,11.2-11.3c6.2,0,11.3,5,11.3,11.3C97.8,118.3,92.7,123.4,86.5,123.4z
				 M86.5,106.3c-3.2,0-5.9,2.6-5.9,5.9c0,3.2,2.6,5.9,5.9,5.9c3.2,0,5.9-2.6,5.9-5.9C92.4,108.9,89.8,106.3,86.5,106.3z M160,54.3
				c-12.1,0-22-9.8-22-22c0-12.1,9.9-22,22-22c12.1,0,21.9,9.8,21.9,22C182,44.5,172.1,54.3,160,54.3z M160,15.8
				c-9.1,0-16.6,7.4-16.6,16.6c0,9.1,7.4,16.6,16.6,16.6c9.1,0,16.6-7.4,16.6-16.6C176.6,23.2,169.2,15.8,160,15.8z"/>
		</g>
	</g>
</g>
</svg>
