<?xml version="1.0" encoding="utf-8"?>
<!-- Generator: Adobe Illustrator 24.1.3, SVG Export Plug-In . SVG Version: 6.00 Build 0)  -->
<svg version="1.1" id="Layer_1" xmlns="http://www.w3.org/2000/svg" xmlns:xlink="http://www.w3.org/1999/xlink" x="0px" y="0px"
	 viewBox="0 0 288 288" style="enable-background:new 0 0 288 288;" xml:space="preserve">
<style type="text/css">
	.st0{fill:url(#SVGID_1_);}
	.st1{fill:url(#SVGID_2_);}
	.st2{fill:url(#SVGID_3_);}
	.st3{fill:url(#SVGID_4_);}
	.st4{fill:url(#SVGID_5_);}
	.st5{fill:url(#SVGID_6_);}
</style>
<g>
	<g>
		<g>
			<linearGradient id="SVGID_1_" gradientUnits="userSpaceOnUse" x1="143.7919" y1="267.2425" x2="143.7919" y2="122.3099">
				<stop  offset="0" style="stop-color:#0E3E61"/>
				<stop  offset="1" style="stop-color:#9DD9DD"/>
			</linearGradient>
			<path class="st0" d="M163.1,122.3h-38.6c-2.7,0-4.8,2.2-4.8,4.8v135.3c0,2.7,2.2,4.8,4.8,4.8h38.6c2.7,0,4.8-2.2,4.8-4.8V127.1
				C167.9,124.5,165.8,122.3,163.1,122.3z M158.3,257.6h-29V132h29V257.6z"/>
		</g>
	</g>
	<g>
		<g>
			<linearGradient id="SVGID_2_" gradientUnits="userSpaceOnUse" x1="259.738" y1="267.2425" x2="259.738" y2="102.9855">
				<stop  offset="0" style="stop-color:#0E3E61"/>
				<stop  offset="1" style="stop-color:#9DD9DD"/>
			</linearGradient>
			<path class="st1" d="M279.1,103h-38.6c-2.7,0-4.8,2.2-4.8,4.8v154.6c0,2.7,2.2,4.8,4.8,4.8h38.6c2.7,0,4.8-2.2,4.8-4.8V107.8
				C283.9,105.1,281.7,103,279.1,103z M274.2,257.6h-29V112.6h29V257.6z"/>
		</g>
	</g>
	<g>
		<g>
			<linearGradient id="SVGID_3_" gradientUnits="userSpaceOnUse" x1="201.7649" y1="267.2425" x2="201.7649" y2="209.2694">
				<stop  offset="0" style="stop-color:#0E3E61"/>
				<stop  offset="1" style="stop-color:#9DD9DD"/>
			</linearGradient>
			<path class="st2" d="M221.1,209.3h-38.6c-2.7,0-4.8,2.2-4.8,4.8v48.3c0,2.7,2.2,4.8,4.8,4.8h38.6c2.7,0,4.8-2.2,4.8-4.8v-48.3
				C225.9,211.4,223.8,209.3,221.1,209.3z M216.3,257.6h-29v-38.6h29V257.6z"/>
		</g>
	</g>
	<g>
		<g>
			<linearGradient id="SVGID_4_" gradientUnits="userSpaceOnUse" x1="27.8458" y1="267.2425" x2="27.8458" y2="141.6342">
				<stop  offset="0" style="stop-color:#0E3E61"/>
				<stop  offset="1" style="stop-color:#9DD9DD"/>
			</linearGradient>
			<path class="st3" d="M47.2,141.6H8.5c-2.7,0-4.8,2.2-4.8,4.8v115.9c0,2.7,2.2,4.8,4.8,4.8h38.6c2.7,0,4.8-2.2,4.8-4.8V146.5
				C52,143.8,49.8,141.6,47.2,141.6z M42.3,257.6h-29V151.3h29V257.6z"/>
		</g>
	</g>
	<g>
		<g>
			<linearGradient id="SVGID_5_" gradientUnits="userSpaceOnUse" x1="85.8188" y1="267.2425" x2="85.8188" y2="170.6207">
				<stop  offset="0" style="stop-color:#0E3E61"/>
				<stop  offset="1" style="stop-color:#9DD9DD"/>
			</linearGradient>
			<path class="st4" d="M105.1,170.6H66.5c-2.7,0-4.8,2.2-4.8,4.8v87c0,2.7,2.2,4.8,4.8,4.8h38.6c2.7,0,4.8-2.2,4.8-4.8v-87
				C110,172.8,107.8,170.6,105.1,170.6z M100.3,257.6h-29v-77.3h29V257.6z"/>
		</g>
	</g>
	<g>
		<g>
			<linearGradient id="SVGID_6_" gradientUnits="userSpaceOnUse" x1="143.924" y1="165.9125" x2="143.924" y2="20.5769">
				<stop  offset="0" style="stop-color:#0E3E61"/>
				<stop  offset="1" style="stop-color:#9DD9DD"/>
			</linearGradient>
			<path class="st5" d="M260,20.6c-10.7-0.1-19.5,8.6-19.6,19.3c0,5.4,2.2,10.6,6.1,14.3l-40.1,73.5c-3.6-1-7.5-0.8-11,0.5l-37.3-56
				c7.1-7.9,6.5-20.1-1.4-27.3s-20.1-6.5-27.3,1.4c-5.3,5.8-6.5,14.2-3.1,21.3L97.1,92.2c-8-5.9-19.3-4.6-25.7,3L46.7,82.9
				c2.2-10.4-4.4-20.7-14.9-22.9c-10.4-2.2-20.7,4.4-22.9,14.9c-2.2,10.4,4.4,20.7,14.9,22.9c1.3,0.3,2.7,0.4,4.1,0.4
				c5.6,0,10.9-2.5,14.5-6.7l24.6,12.3c-2.3,10.4,4.2,20.7,14.7,23.1c10.4,2.3,20.7-4.2,23.1-14.7c0.9-4.2,0.4-8.7-1.4-12.6
				l29.3-24.4c5.1,3.7,11.7,4.7,17.6,2.5l37.3,56c-7.1,7.9-6.5,20.2,1.5,27.3c7.9,7.1,20.2,6.5,27.3-1.5c7-7.8,6.5-19.9-1.2-27.1
				L255,58.9c1.5,0.4,3.1,0.6,4.7,0.6c10.7,0.1,19.5-8.6,19.6-19.3C279.4,29.4,270.8,20.7,260,20.6z M27.8,88.5
				c-5.3,0-9.7-4.3-9.7-9.7s4.3-9.7,9.7-9.7s9.7,4.3,9.7,9.7S33.2,88.5,27.8,88.5z M85.8,117.5c-5.3,0-9.7-4.3-9.7-9.7
				c0-5.3,4.3-9.7,9.7-9.7c5.3,0,9.7,4.3,9.7,9.7C95.5,113.2,91.2,117.5,85.8,117.5z M143.8,69.2c-5.3,0-9.7-4.3-9.7-9.7
				s4.3-9.7,9.7-9.7c5.3,0,9.7,4.3,9.7,9.7S149.1,69.2,143.8,69.2z M201.8,156.1c-5.3,0-9.7-4.3-9.7-9.7c0-5.3,4.3-9.7,9.7-9.7
				s9.7,4.3,9.7,9.7C211.4,151.8,207.1,156.1,201.8,156.1z M259.7,49.8c-5.3,0-9.7-4.3-9.7-9.7s4.3-9.7,9.7-9.7s9.7,4.3,9.7,9.7
				S265.1,49.8,259.7,49.8z"/>
		</g>
	</g>
</g>
</svg>
