<?xml version="1.0" encoding="utf-8"?>
<!-- Generator: Adobe Illustrator 24.1.3, SVG Export Plug-In . SVG Version: 6.00 Build 0)  -->
<svg version="1.1" id="Layer_1" xmlns="http://www.w3.org/2000/svg" xmlns:xlink="http://www.w3.org/1999/xlink" x="0px" y="0px"
	 viewBox="0 0 288 288" style="enable-background:new 0 0 288 288;" xml:space="preserve">
<style type="text/css">
	.st0{fill:url(#SVGID_1_);}
	.st1{fill:url(#SVGID_2_);}
	.st2{fill:url(#SVGID_3_);}
	.st3{fill:url(#SVGID_4_);}
	.st4{fill:url(#SVGID_5_);}
	.st5{fill:url(#SVGID_6_);}
</style>
<g>
	<linearGradient id="SVGID_1_" gradientUnits="userSpaceOnUse" x1="184.2879" y1="283.3705" x2="184.2879" y2="224.2727">
		<stop  offset="0" style="stop-color:#0E3E61"/>
		<stop  offset="1" style="stop-color:#9DD9DD"/>
	</linearGradient>
	<path class="st0" d="M242.1,283.4H114.9c-9.9,0-18-8.1-18-18c0-8.7,6.2-16.1,14.7-17.7l125.2-22.9c1.9-0.4,3.7-0.5,5.4-0.5
		c16.3,0,29.5,13.3,29.5,29.5S258.4,283.4,242.1,283.4z M113.9,260.3c-2.4,0.5-4.2,2.6-4.2,5.1c0,2.8,2.3,5.2,5.2,5.2h127.3
		c9.2,0,16.7-7.5,16.7-16.7s-7.5-16.7-16.7-16.7c-1,0-2.1,0.1-3,0.3L113.9,260.3z"/>
	<linearGradient id="SVGID_2_" gradientUnits="userSpaceOnUse" x1="143.7919" y1="80.8907" x2="143.7919" y2="4.4365">
		<stop  offset="0" style="stop-color:#0E3E61"/>
		<stop  offset="1" style="stop-color:#9DD9DD"/>
	</linearGradient>
	<path class="st1" d="M143.8,80.9c-16.3,0-29.5-13.3-29.5-29.5V34c0-16.3,13.3-29.5,29.5-29.5s29.5,13.3,29.5,29.5v17.4
		C173.3,67.6,160.1,80.9,143.8,80.9z M143.8,17.3c-9.2,0-16.7,7.5-16.7,16.7v17.4c0,9.2,7.5,16.7,16.7,16.7
		c9.2,0,16.7-7.5,16.7-16.7V34C160.5,24.8,153,17.3,143.8,17.3z"/>
	<linearGradient id="SVGID_3_" gradientUnits="userSpaceOnUse" x1="143.7919" y1="213.9453" x2="143.7919" y2="91.2185">
		<stop  offset="0" style="stop-color:#0E3E61"/>
		<stop  offset="1" style="stop-color:#9DD9DD"/>
	</linearGradient>
	<path class="st2" d="M265.3,213.9h-25.2L205.2,189c-6.2-4.4-10-11.7-10-19.3v-45.9c0-7.8-5.7-14.5-13.6-16.1
		c-25.1-4.9-50.6-4.9-75.9,0c-7.8,1.5-13.4,8.3-13.4,16v45.9c0,7.7-3.7,14.9-10,19.3l-34.9,24.9H22.3c-3.5,0-6.4-2.9-6.4-6.4
		s2.9-6.4,6.4-6.4h21.1l31.6-22.5c2.9-2.1,4.6-5.4,4.6-8.9v-45.9c0-13.9,10-25.9,23.8-28.6c26.9-5.3,54.1-5.3,80.8,0
		c13.9,2.7,23.9,14.8,23.9,28.6v45.9c0,3.5,1.7,6.9,4.6,8.9l31.6,22.5h21.1c3.5,0,6.4,2.9,6.4,6.4S268.8,213.9,265.3,213.9z"/>
	<linearGradient id="SVGID_4_" gradientUnits="userSpaceOnUse" x1="83.0479" y1="283.3705" x2="83.0479" y2="224.2727">
		<stop  offset="0" style="stop-color:#0E3E61"/>
		<stop  offset="1" style="stop-color:#9DD9DD"/>
	</linearGradient>
	<path class="st3" d="M114.9,283.4H45.4c-16.3,0-29.5-13.3-29.5-29.5s13.3-29.5,29.5-29.5c1.7,0,3.4,0.2,5.4,0.5l94.2,17.2
		c3.5,0.6,5.8,4,5.1,7.5c-0.6,3.5-3.9,5.8-7.5,5.1l-94.2-17.2c-1-0.2-2-0.3-3-0.3c-9.2,0-16.7,7.5-16.7,16.7s7.5,16.7,16.7,16.7
		h69.4c3.5,0,6.4,2.9,6.4,6.4S118.4,283.4,114.9,283.4z"/>
	<linearGradient id="SVGID_5_" gradientUnits="userSpaceOnUse" x1="185.2436" y1="245.9415" x2="185.2436" y2="125.9245">
		<stop  offset="0" style="stop-color:#0E3E61"/>
		<stop  offset="1" style="stop-color:#9DD9DD"/>
	</linearGradient>
	<path class="st4" d="M192,245.9c-2.8,0-5.4-1.9-6.2-4.7l-7.7-28.2c-4-14.7-6-29.8-6-44.8v-35.9c0-3.5,2.9-6.4,6.4-6.4
		s6.4,2.9,6.4,6.4v35.9c0,13.9,1.9,27.9,5.6,41.5l7.7,28.2c0.9,3.4-1.1,6.9-4.5,7.9C193.1,245.9,192.5,245.9,192,245.9z"/>
	<linearGradient id="SVGID_6_" gradientUnits="userSpaceOnUse" x1="102.3401" y1="245.9415" x2="102.3401" y2="125.9245">
		<stop  offset="0" style="stop-color:#0E3E61"/>
		<stop  offset="1" style="stop-color:#9DD9DD"/>
	</linearGradient>
	<path class="st5" d="M95.6,245.9c-0.6,0-1.1-0.1-1.7-0.2c-3.4-0.9-5.4-4.5-4.5-7.9l7.7-28.2c3.7-13.6,5.6-27.5,5.6-41.5v-35.9
		c0-3.5,2.9-6.4,6.4-6.4c3.5,0,6.4,2.9,6.4,6.4v35.9c0,15.1-2,30.2-6,44.8l-7.7,28.2C101,244.1,98.4,245.9,95.6,245.9z"/>
</g>
</svg>
