<?xml version="1.0" encoding="utf-8"?>
<!-- Generator: Adobe Illustrator 24.1.3, SVG Export Plug-In . SVG Version: 6.00 Build 0)  -->
<svg version="1.1" id="Layer_1" xmlns="http://www.w3.org/2000/svg" xmlns:xlink="http://www.w3.org/1999/xlink" x="0px" y="0px"
	 viewBox="0 0 288 288" style="enable-background:new 0 0 288 288;" xml:space="preserve">
<style type="text/css">
	.st0{fill:url(#SVGID_1_);}
	.st1{fill:url(#SVGID_2_);}
</style>
<g>
	<g>
		<linearGradient id="SVGID_1_" gradientUnits="userSpaceOnUse" x1="211.7112" y1="261.5199" x2="75.8881" y2="26.2673">
			<stop  offset="0" style="stop-color:#0E3E61"/>
			<stop  offset="1" style="stop-color:#9DD9DD"/>
		</linearGradient>
		<path class="st0" d="M143.8,279.7c74.8,0,135.8-60.6,135.8-135.8C279.6,68.1,218,8.1,143.8,8.1C68.8,8.1,8,68.9,8,143.9
			C8,219,68.9,279.7,143.8,279.7z M20.4,177.4l10.7-6.2c0.3-0.2,0.6-0.2,0.9,0l31.5,18.2c0.1,0.4,0.2,0.7,0.4,1
			c0.1,0.2,0.3,0.4,0.4,0.6v36.2c0,0.3-0.2,0.6-0.4,0.8L53.1,234C37.3,218.1,26.1,198.6,20.4,177.4z M15.9,143.9
			c0-8.6,0.9-17.1,2.5-25.4l8.6,5c1.4,0.8,2.9,1.2,4.4,1.2c3.2,0,1.3,0.6,36.3-19.6c0.1,0,0.1-0.1,0.1-0.1l34.8,20.1
			c0,0.3,0,0.6,0,0.9v36.5c0,0.3,0,0.6,0,0.9l-34.2,19.8c-0.2-0.2-0.4-0.3-0.7-0.4l-31.9-18.4c-2.7-1.6-6.1-1.6-8.8,0l-8.6,5
			C16.8,161,15.9,152.5,15.9,143.9L15.9,143.9z M53.1,53.8l10.7,6.2c0.3,0.2,0.4,0.4,0.4,0.8v36.8c0,0,0,0,0,0
			c-0.1,0.2-0.3,0.4-0.4,0.6c0,0.1-0.1,0.1-0.1,0.2l-31.8,18.4c-0.3,0.2-0.6,0.2-0.9,0l-10.7-6.2C26.3,88.5,37.8,69.2,53.1,53.8z
			 M143.8,16.1c10.9,0,21.9,1.4,32.7,4.2v12.3c0,0.3-0.2,0.6-0.4,0.8l-6.4,3.7c-1.9,1.1-2.6,3.5-1.5,5.4c1.1,1.9,3.5,2.6,5.4,1.5
			l6.4-3.7c2.7-1.6,4.4-4.5,4.4-7.6v-10c16.1,5.4,31,14,43.9,25.4l-8.6,5c-2.7,1.6-4.4,4.5-4.4,7.6v36.8c0,0.3,0,0.5,0,0.8
			l-34.5,19.9c-0.2-0.2-0.5-0.3-0.7-0.5l-31.6-18.3c-0.3-0.1-0.5-0.3-0.8-0.4V58.9c0.1-0.1,0.3-0.2,0.4-0.2l9.3-5.4
			c1.9-1.1,2.6-3.5,1.5-5.4c-1.1-1.9-3.5-2.6-5.4-1.5l-9.3,5.4c-0.3,0.2-0.6,0.2-0.9,0l-31.9-18.4c-0.3-0.2-0.4-0.4-0.4-0.8V20.3
			C121.7,17.5,132.7,16.1,143.8,16.1L143.8,16.1z M267.2,110.4l-10.7,6.2c-0.3,0.2-0.6,0.2-0.9,0l-31.8-18.4c0-0.1-0.1-0.1-0.1-0.2
			c-0.1-0.2-0.2-0.4-0.4-0.6c0,0,0,0,0,0V60.7c0-0.3,0.2-0.6,0.4-0.8l10.7-6.2C249.8,69.2,261.3,88.6,267.2,110.4L267.2,110.4z
			 M271.6,143.9c0,8.6-0.9,17.1-2.5,25.4l-8.6-5c-2.7-1.6-6.1-1.6-8.8,0l-31.9,18.4c-0.2,0.1-0.5,0.3-0.7,0.4l-34.2-19.8
			c0-0.3,0-0.6,0-0.9v-9.3c0-2.2-1.8-4-4-4s-4,1.8-4,4v9.3c0,0.6-0.3,1.1-0.8,1.4l-31.6,18.3c-0.5,0.3-1.1,0.3-1.6,0l-31.6-18.3
			c-0.5-0.3-0.8-0.8-0.8-1.4V126c0-0.6,0.3-1.1,0.8-1.4l31.6-18.3c0.5-0.3,1.1-0.3,1.6,0l31.6,18.3c0.5,0.3,0.8,0.8,0.8,1.4v8.7
			c0,2.2,1.8,4,4,4s4-1.8,4-4V126c0-0.3,0-0.6,0-0.9l34.8-20.1c0,0,0.1,0.1,0.1,0.1h0l31.9,18.4c1.4,0.8,2.9,1.2,4.4,1.2
			c1.5,0,3.1-0.4,4.4-1.2l8.6-5C270.8,126.8,271.6,135.3,271.6,143.9L271.6,143.9z M234.5,234l-10.7-6.2c-0.3-0.2-0.4-0.4-0.4-0.8
			V191c0.1-0.2,0.3-0.4,0.4-0.6c0.2-0.3,0.3-0.7,0.4-1l31.5-18.2c0.1-0.1,0.3-0.1,0.4-0.1c0.2,0,0.3,0,0.4,0.1l0,0l10.7,6.2
			C261.3,199.2,249.8,218.6,234.5,234L234.5,234z M143.8,271.7c-10.9,0-21.9-1.4-32.7-4.2v-12.3c0-0.3,0.2-0.6,0.4-0.8l31.2-18
			c0.3,0.1,0.7,0.2,1.1,0.2s0.7-0.1,1.1-0.2l31.2,18c0.3,0.2,0.4,0.4,0.4,0.8v12.3C165.9,270.3,154.9,271.7,143.8,271.7L143.8,271.7
			z M67.8,234.8c2.7-1.6,4.4-4.5,4.4-7.6v-36.8c0-0.1,0-0.1,0-0.2l34.5-19.9c0.2,0.2,0.5,0.3,0.7,0.5L139,189
			c0.3,0.1,0.5,0.3,0.8,0.4v39.5c-0.1,0.1-0.3,0.2-0.4,0.2l-31.9,18.4c-2.7,1.6-4.4,4.5-4.4,7.6v10c-16.1-5.4-31-14-43.9-25.4
			L67.8,234.8z M180.1,247.5l-31.9-18.4c-0.1-0.1-0.3-0.2-0.4-0.2v-39.5c0.3-0.1,0.5-0.3,0.8-0.4l31.6-18.3c0.3-0.1,0.5-0.3,0.7-0.5
			l34.5,19.9c0,0.1,0,0.1,0,0.2v36.8c0,3.1,1.7,6.1,4.4,7.6l8.6,5c-13,11.5-27.9,20.1-43.9,25.4v-10
			C184.5,252,182.8,249.1,180.1,247.5L180.1,247.5z M107.5,40.3l31.9,18.4c0.1,0.1,0.3,0.2,0.4,0.2V99c-0.3,0.1-0.5,0.3-0.8,0.4
			l-31.6,18.3c-0.3,0.1-0.5,0.3-0.7,0.5L72.1,98.3c0-0.3,0-0.5,0-0.8V60.7c0-3.1-1.7-6.1-4.4-7.6l-8.6-5C72.1,36.6,87,28,103.1,22.6
			v10C103.1,35.8,104.8,38.7,107.5,40.3L107.5,40.3z"/>
		<linearGradient id="SVGID_2_" gradientUnits="userSpaceOnUse" x1="213.5122" y1="264.6621" x2="74.072" y2="23.1446">
			<stop  offset="0" style="stop-color:#0E3E61"/>
			<stop  offset="1" style="stop-color:#9DD9DD"/>
		</linearGradient>
		<path class="st1" d="M143.8,283.4c-76.9,0-139.5-62.6-139.5-139.5C4.3,67,66.9,4.4,143.8,4.4S283.3,67,283.3,143.9
			C283.3,220.8,220.7,283.4,143.8,283.4z M143.8,11.8C70.9,11.8,11.7,71,11.7,143.9c0,72.9,59.3,132.1,132.1,132.1
			s132.1-59.3,132.1-132.1C275.9,71,216.7,11.8,143.8,11.8z M143.8,275.4c-11.4,0-22.7-1.5-33.7-4.4l-2.7-0.7v-15.2
			c0-1.6,0.9-3.2,2.3-4l32.5-18.8l1.5,0.4l1.5-0.4l1.5,0.8l31.2,18c1.4,0.8,2.3,2.3,2.3,3.9v15.2l-2.7,0.7
			C166.5,273.9,155.2,275.4,143.8,275.4z M114.7,264.7c18.9,4.5,39.2,4.5,58.1,0v-7.9l-28.7-16.6c-0.2,0-0.5,0-0.7,0l-28.7,16.6
			V264.7z M174.2,257.6C174.2,257.6,174.3,257.6,174.2,257.6L174.2,257.6z M113.4,257.6L113.4,257.6
			C113.4,257.6,113.4,257.6,113.4,257.6z M180.8,270.3v-15.1c0-1.8-1-3.6-2.6-4.5l-33.7-19.4l-0.4-2.4v-41.8l2.1-1l34-19.9l2.5,0.9
			l36.3,21l0,39.1c0,1.8,1,3.6,2.6,4.5l13,7.5l-3.8,3.4c-13.3,11.8-28.5,20.6-45.2,26.2L180.8,270.3z M151.4,226.8l30.5,17.6
			c3.8,2.2,6.2,6.4,6.2,10.8v4.8c12.3-4.7,23.7-11.3,33.9-19.6L218,238c-3.9-2.2-6.2-6.4-6.2-10.8v-34.8L181,174.5l-29.5,17.1V226.8
			z M106.8,270.3l-4.8-1.6c-16.7-5.6-31.9-14.4-45.2-26.2l-3.8-3.4l13-7.5c1.6-0.9,2.6-2.6,2.6-4.5v-38.9l1.8-1.2l36.5-21.1l1.9,1.4
			l34.2,19.5l0.5,2.6v41.7l-1.9,1l-32.2,18.6c-1.6,0.9-2.6,2.6-2.6,4.5V270.3z M65.5,240.3c10.3,8.4,21.6,15,33.9,19.6v-4.8
			c0-4.4,2.4-8.6,6.2-10.8l30.5-17.6v-35.2l-29.5-17.1l-30.8,17.8l0,34.8c0,4.4-2.4,8.6-6.2,10.8h0L65.5,240.3z M52.5,238.6l-2-2
			c-16.1-16.2-27.8-36.4-33.7-58.3l-0.7-2.7l13.1-7.6c1.4-0.8,3.1-0.8,4.6,0L66.6,187l0.4,1.5l0.9,1l0.1,1.5v36.2
			c0,1.6-0.9,3.2-2.3,4L52.5,238.6z M24.7,179.1c5.5,18.8,15.5,36.1,29.1,50.3l6.8-3.9v-33.5c0-0.1-0.1-0.1-0.1-0.1l-29-16.7
			L24.7,179.1z M62,224.7C61.9,224.7,61.9,224.7,62,224.7L62,224.7z M30.1,174.4C30.1,174.4,30.1,174.4,30.1,174.4L30.1,174.4z
			 M32.9,174.3L32.9,174.3C32.9,174.4,32.9,174.4,32.9,174.3z M235.1,238.6l-13.1-7.6c-1.4-0.8-2.3-2.3-2.3-3.9v-37.5l0.9-1l0.4-1.5
			l1.4-0.9l32.3-18.7l1.4-0.1c0.8,0,1.6,0.2,2.3,0.6l13.1,7.6l-0.7,2.7c-5.9,21.9-17.6,42.1-33.7,58.3L235.1,238.6z M227,225.5
			l6.8,3.9c13.6-14.3,23.6-31.6,29.1-50.3l-6.8-3.9l-29,16.7c0,0.1-0.1,0.1-0.1,0.2V225.5z M68.3,187.5l-1.9-1.3l-32.3-18.7
			c-1.6-0.9-3.6-0.9-5.2,0L15.9,175l-1-5c-1.7-8.5-2.6-17.3-2.6-26.1c0-8.8,0.9-17.6,2.6-26.1l1-5l13,7.5c0.8,0.5,1.6,0.7,2.6,0.7
			c1.4,0,2.4-0.5,17.4-9.2l18.8-10.9l2,1l36.8,21.2l-0.2,2.4l0,37.1l0.2,2.3l-2,1.7L68.3,187.5z M31.5,159.5c2.2,0,4.3,0.6,6.3,1.7
			l30.7,17.7L99,161.3v-34.1l-31-17.9l-15.3,8.9c-17.7,10.3-17.7,10.2-20.9,10.2c-2.4,0-4.6-0.6-6.5-1.7l-4.1-2.4
			c-1,6.5-1.5,13-1.5,19.6c0,6.6,0.5,13.1,1.5,19.6l4.1-2.4C27.2,160,29.3,159.5,31.5,159.5z M219.7,187.2l-2.4-0.9l-36.2-20.9
			l0.2-2.3l0-9.9l-0.6,9.3c0,1.9-1,3.6-2.6,4.5l-31.6,18.3c-1.6,0.9-3.6,0.9-5.2,0L109.5,167c-1.6-0.9-2.6-2.7-2.6-4.5V126
			c0-1.9,1-3.6,2.6-4.5l31.6-18.3c1.6-0.9,3.6-0.9,5.2,0l31.6,18.3c1.6,0.9,2.6,2.7,2.6,4.5v8.7l0.6-8.7l-0.2-2.3l2-1.7l36.7-21.2
			l1.9,1.2l31.9,18.4c1.6,0.9,3.6,0.9,5.2,0l13.1-7.5l1,5c1.7,8.5,2.6,17.3,2.6,26.1c0,8.8-0.9,17.6-2.6,26.1l-1,5l-13-7.5
			c-1.6-0.9-3.6-0.9-5.2,0L219.7,187.2z M188.6,161.3l30.5,17.6l30.7-17.7c3.9-2.2,8.6-2.2,12.5,0l4.1,2.4c1-6.4,1.5-13,1.5-19.6
			c0-6.6-0.5-13.1-1.5-19.6l-4.1,2.4c-3.8,2.2-8.7,2.2-12.5,0l-30.2-17.4l-31,17.9v7.4c0,4.2-3.4,7.6-7.6,7.6
			c-4.2,0-7.6-3.4-7.6-7.6v-7.4l-29.5-17.1l-29.5,17.1v34.1l29.5,17.1l29.5-17.1v-8.1c0-4.2,3.4-7.6,7.6-7.6c4.2,0,7.6,3.4,7.6,7.6
			V161.3z M180.7,122.6l-1.9-1.4l-34.2-19.5l-0.5-2.6V56.7l2-1l9.6-5.5l-9.6,4.8c-1.4,0.8-3.1,0.8-4.5,0l-31.9-18.4
			c-1.4-0.8-2.3-2.3-2.3-3.9V17.5l2.7-0.7c21.9-5.8,45.4-5.8,67.3,0l2.7,0.7v15.2c0,1.6-0.9,3.1-2.3,3.9l-6.4,3.7l6.7-3.1
			c1.6-0.9,2.6-2.6,2.6-4.5V17.6l4.8,1.6c16.7,5.6,31.9,14.4,45.2,26.2l3.8,3.4l-13,7.5c-1.6,0.9-2.6,2.6-2.6,4.5l0.2,39.1l-2,1.6
			L180.7,122.6z M151.4,96.9l29.5,17.1l30.8-17.8V60.7c0-4.5,2.4-8.6,6.2-10.8l4.1-2.4c-10.3-8.4-21.6-15-33.9-19.6v4.8
			c0,4.5-2.4,8.6-6.2,10.8l-6.4,3.7c-3.7,2.1-8.3,0.8-10.4-2.8c-1-1.8-1.3-3.8-0.8-5.8c0.5-2,1.8-3.6,3.6-4.6l5-2.9v-7.9
			c-19-4.5-39.2-4.5-58.1,0V31l29.1,16.8l7.9-4.6c3.6-2.1,8.3-0.8,10.4,2.8c2.1,3.7,0.9,8.3-2.8,10.4l-7.9,4.6V96.9z M113.3,30.2
			L113.3,30.2C113.3,30.2,113.3,30.2,113.3,30.2z M174.2,30.2C174.2,30.2,174.2,30.2,174.2,30.2L174.2,30.2z M107.3,122.3l-2.5-0.9
			l-36.5-21.1l0.2-2.3l0-37.2c0-1.8-1-3.6-2.6-4.5l-13-7.5l3.8-3.4C70,33.6,85.3,24.7,101.9,19.2l4.8-1.6v15.1c0,1.8,1,3.6,2.6,4.5
			L143,56.6l0.4,2.3v42.5l-2.1,1L107.3,122.3z M75.8,96.2l30.8,17.8l29.5-17.1V61l-30.5-17.6c-3.9-2.2-6.2-6.4-6.2-10.8v-4.8
			c-12.3,4.7-23.7,11.3-33.9,19.6l4.1,2.4c3.9,2.2,6.2,6.4,6.2,10.8V96.2z M31.5,120.4c-0.8,0-1.5-0.2-2.2-0.6l-13.2-7.6l0.7-2.7
			c5.9-21.9,17.6-42.1,33.7-58.3l2-2l13.1,7.6c1.4,0.8,2.3,2.3,2.3,3.9v38.1l-1.3,2l-1,0.6l-31.8,18.4
			C33.1,120.2,32.3,120.4,31.5,120.4z M24.7,108.7l6.8,3.9l29.1-16.8l0-33.6l-6.8-3.9C40.2,72.6,30.2,89.9,24.7,108.7z M256.1,120.4
			c-0.8,0-1.5-0.2-2.2-0.6l-32.8-18.9l-1.3-2l0-1.4V60.7c0-1.6,0.9-3.1,2.2-3.9l13.1-7.6l2,2c16.1,16.2,27.8,36.4,33.7,58.3l0.7,2.7
			l-13.1,7.6C257.6,120.2,256.9,120.4,256.1,120.4z M227,95.8l29.1,16.8l6.8-3.9c-5.5-18.8-15.5-36.1-29.1-50.3l-6.8,3.9V95.8z"/>
	</g>
</g>
</svg>
