<?xml version="1.0" encoding="utf-8"?>
<!-- Generator: Adobe Illustrator 24.1.3, SVG Export Plug-In . SVG Version: 6.00 Build 0)  -->
<svg version="1.1" id="Layer_1" xmlns="http://www.w3.org/2000/svg" xmlns:xlink="http://www.w3.org/1999/xlink" x="0px" y="0px"
	 viewBox="0 0 288 288" style="enable-background:new 0 0 288 288;" xml:space="preserve">
<style type="text/css">
	.st0{fill:url(#SVGID_1_);}
	.st1{fill:url(#SVGID_2_);}
	.st2{fill:url(#SVGID_3_);}
	.st3{fill:url(#SVGID_4_);}
	.st4{fill:url(#SVGID_5_);}
	.st5{fill:url(#SVGID_6_);}
</style>
<g>
	<g>
		<linearGradient id="SVGID_1_" gradientUnits="userSpaceOnUse" x1="28.2628" y1="257.5738" x2="135.8382" y2="129.3704">
			<stop  offset="0" style="stop-color:#0E3E61"/>
			<stop  offset="1" style="stop-color:#9DD9DD"/>
		</linearGradient>
		<path class="st0" d="M193.1,252.3c-51.8,1.6-104.3,0.7-156-2.9c-9.7-0.7-17.5-8.1-18.6-17.7c-5.7-48.6-5.7-97.9,0-146.5
			c1.1-9.6,9-17,18.6-17.7c4.7-0.3,9-0.6,13.2-0.8c2.2-0.1,3.9-2,3.8-4.3c-0.1-2.2-2-3.9-4.3-3.8c-4.3,0.3-8.6,0.5-13.3,0.9
			C23,60.4,12.1,70.8,10.5,84.3c-5.8,49.2-5.8,99.2,0,148.4c1.6,13.4,12.5,23.9,26.1,24.8c4.9,0.3,9.9,0.6,14.8,0.9c0,0,0,0,0,0
			l2.8,12c0.4,1.9,2.1,3.1,3.9,3.1c0.3,0,0.6,0,0.9-0.1c2.2-0.5,3.5-2.7,3-4.8l-2.3-9.8c28,1.5,56.1,2.3,84.2,2.3
			c16.5,0,33-0.3,49.4-0.8c2.2-0.1,4-1.9,3.9-4.2C197.2,254,195.3,252.2,193.1,252.3z"/>
		<linearGradient id="SVGID_2_" gradientUnits="userSpaceOnUse" x1="27.3381" y1="258.6717" x2="136.7494" y2="128.2804">
			<stop  offset="0" style="stop-color:#0E3E61"/>
			<stop  offset="1" style="stop-color:#9DD9DD"/>
		</linearGradient>
		<path class="st1" d="M58.1,275c-2.6,0-4.7-1.7-5.3-4.2l-2.6-11c-4.6-0.3-9.2-0.6-13.8-0.9c-14.2-1-25.8-11.9-27.4-26.1
			c-5.8-49.3-5.8-99.4,0-148.7C10.7,70,22.2,59,36.5,58.1c4.7-0.3,9-0.6,13.3-0.9c3-0.2,5.6,2.1,5.8,5.1c0.1,1.5-0.4,2.9-1.4,4
			c-1,1.1-2.3,1.7-3.8,1.8c-4.2,0.3-8.5,0.5-13.2,0.8c-9,0.6-16.2,7.5-17.3,16.4c-5.7,48.5-5.7,97.7,0,146.2
			c1,8.9,8.3,15.8,17.3,16.4c51.6,3.5,104.1,4.5,155.8,2.9l0,0c1.5,0,2.8,0.5,3.9,1.5c1.1,1,1.7,2.4,1.7,3.8c0.1,3-2.3,5.5-5.3,5.6
			c-16.5,0.5-33.1,0.8-49.4,0.8c-27.3,0-55-0.7-82.4-2.2l1.8,7.9c0.7,2.9-1.1,5.9-4.1,6.6C59,275,58.5,275,58.1,275z M50.1,60.1
			c-0.1,0-0.1,0-0.2,0c-4.2,0.3-8.6,0.5-13.3,0.8c-12.8,0.9-23.3,10.8-24.8,23.5c-5.8,49.1-5.8,98.9,0,148.1
			c1.5,12.8,11.9,22.6,24.8,23.5c4.9,0.3,9.9,0.6,14.8,0.9l1.4,0.1v1.4l2.8,11.7c0.3,1.4,1.8,2.3,3.1,1.9c1.4-0.3,2.3-1.7,2-3.1
			L58,257.3l1.9,0.1c28,1.5,56.3,2.3,84.1,2.3c16.3,0,32.9-0.3,49.3-0.8c1.4,0,2.6-1.3,2.5-2.7c0-0.7-0.3-1.3-0.8-1.8
			c-0.5-0.5-1.2-0.7-1.8-0.7h0c-51.9,1.6-104.4,0.7-156.1-2.9c-10.3-0.7-18.7-8.7-19.9-18.9c-5.7-48.7-5.7-98.1,0-146.8
			c1.2-10.3,9.6-18.2,19.9-18.9c4.6-0.3,9-0.6,13.2-0.9c0.7,0,1.3-0.3,1.8-0.9c0.5-0.5,0.7-1.2,0.6-1.9
			C52.6,61.1,51.4,60.1,50.1,60.1z"/>
	</g>
	<g>
		<linearGradient id="SVGID_3_" gradientUnits="userSpaceOnUse" x1="129.2765" y1="193.9266" x2="249.2544" y2="50.9425">
			<stop  offset="0" style="stop-color:#0E3E61"/>
			<stop  offset="1" style="stop-color:#9DD9DD"/>
		</linearGradient>
		<path class="st2" d="M277.1,84.3c-1.6-13.4-12.5-23.9-26.1-24.8c-28.2-1.9-56.6-3.1-85-3.5l30.2-35.1c1.5-1.7,1.3-4.2-0.4-5.7
			s-4.2-1.3-5.7,0.4l-34.6,40.2c-7.4-0.1-14.9-0.1-22.3,0L98.6,15.7c-1.5-1.7-4-1.9-5.7-0.4c-1.7,1.5-1.9,4-0.4,5.7L122.7,56
			c-19,0.3-37.9,0.8-56.7,1.8c-2.2,0.1-3.9,2-3.8,4.2c0.1,2.2,2,3.9,4.2,3.8c61.1-3,123-2.5,184.1,1.7c9.7,0.7,17.5,8.1,18.6,17.7
			c5.7,48.6,5.7,97.9,0,146.5c-1.1,9.6-9,17-18.6,17.7c-13.7,0.9-27.6,1.7-41.4,2.3c-2.2,0.1-4,2-3.9,4.2c0.1,2.2,1.9,3.9,4,3.9
			c0.1,0,0.1,0,0.2,0c6.1-0.3,12.3-0.6,18.4-0.9l-2.3,9.7c-0.5,2.2,0.8,4.3,3,4.8c0.3,0.1,0.6,0.1,0.9,0.1c1.8,0,3.5-1.3,3.9-3.1
			l2.8-12c0,0,0,0,0,0c5-0.3,9.9-0.6,14.8-0.9c13.5-0.9,24.5-11.3,26.1-24.8C282.9,183.4,282.9,133.5,277.1,84.3L277.1,84.3z"/>
		<linearGradient id="SVGID_4_" gradientUnits="userSpaceOnUse" x1="128.3648" y1="195.0146" x2="250.1783" y2="49.8428">
			<stop  offset="0" style="stop-color:#0E3E61"/>
			<stop  offset="1" style="stop-color:#9DD9DD"/>
		</linearGradient>
		<path class="st3" d="M229.5,275c-0.4,0-0.8,0-1.2-0.1c-1.4-0.3-2.6-1.2-3.4-2.4c-0.8-1.2-1-2.7-0.7-4.1l1.8-7.9
			c-5.5,0.3-11,0.5-16.5,0.8c0,0,0,0,0,0c-3.2,0-5.6-2.3-5.7-5.2c-0.1-1.5,0.4-2.9,1.4-3.9c1-1.1,2.3-1.7,3.8-1.8
			c13.9-0.6,27.8-1.4,41.4-2.3c9-0.6,16.3-7.5,17.3-16.4c5.7-48.5,5.7-97.7,0-146.2c-1-8.9-8.3-15.8-17.3-16.4
			c-61.1-4.2-123-4.8-183.9-1.7c-3,0-5.6-2.2-5.7-5.2c-0.2-3,2.2-5.6,5.2-5.7c17.7-0.9,35.8-1.5,53.7-1.7L91.4,21.9
			c-2-2.3-1.7-5.7,0.6-7.7c1.1-1,2.5-1.4,4-1.3c1.5,0.1,2.8,0.8,3.7,1.9l34.2,39.7c7,0,14,0,21,0l34.2-39.7c1-1.1,2.3-1.8,3.7-1.9
			c1.4-0.1,2.9,0.3,4,1.3c2.3,2,2.5,5.4,0.6,7.7l-28.2,32.8c27.4,0.4,55,1.6,82,3.5c14.2,1,25.7,11.9,27.4,26l0,0
			c5.8,49.4,5.8,99.4,0,148.7c-1.7,14.1-13.2,25.1-27.4,26c-4.6,0.3-9.2,0.6-13.8,0.9l-2.5,11C234.2,273.3,232,275,229.5,275z
			 M229.6,257.3l-2.7,11.6c-0.2,0.7,0,1.4,0.3,2c0.4,0.6,0.9,1,1.6,1.2c1.3,0.3,2.8-0.6,3.1-1.9l2.8-12v-1.4l1.3,0.2
			c5-0.3,9.9-0.6,14.8-0.9c12.8-0.9,23.3-10.8,24.8-23.5c5.8-49.1,5.8-98.9,0-148.1l0,0c-1.5-12.8-11.9-22.6-24.8-23.5
			c-28-1.9-56.5-3.1-84.9-3.5l-3.1,0L195.2,20c0.9-1.1,0.8-2.7-0.3-3.7c-0.5-0.5-1.2-0.7-1.9-0.6c-0.7,0.1-1.3,0.4-1.8,0.9
			l-35.1,40.7l-0.7,0c-7.4-0.1-14.8-0.1-22.3,0l-0.7,0l-35-40.7c-0.9-1.1-2.6-1.2-3.7-0.3c-0.5,0.5-0.8,1.1-0.9,1.8
			c-0.1,0.7,0.2,1.4,0.6,1.9l32.2,37.4l-3.1,0c-18.9,0.3-37.9,0.9-56.7,1.8c-1.4,0.1-2.5,1.3-2.5,2.7c0.1,1.4,1.3,2.7,2.7,2.5
			c61.1-3,123.1-2.5,184.3,1.7c10.3,0.7,18.7,8.7,19.9,18.9c5.7,48.7,5.7,98.1,0,146.8c-1.2,10.3-9.6,18.2-20,18.9
			c-13.5,0.9-27.5,1.7-41.4,2.3c-0.7,0-1.3,0.3-1.8,0.8c-0.5,0.5-0.7,1.2-0.7,1.9c0.1,1.4,1.2,2.5,2.6,2.5
			c6.2-0.3,12.4-0.6,18.5-0.9L229.6,257.3z"/>
	</g>
	<g>
		<linearGradient id="SVGID_5_" gradientUnits="userSpaceOnUse" x1="63.145" y1="254.5941" x2="224.4404" y2="62.3697">
			<stop  offset="0" style="stop-color:#0E3E61"/>
			<stop  offset="1" style="stop-color:#9DD9DD"/>
		</linearGradient>
		<path class="st4" d="M32,94.8c-5.6,42.3-5.6,85.1,0,127.4c1.1,8.6,8.3,15.3,17,15.9c31.5,2.2,63.1,3.3,94.8,3.3s63.3-1.1,94.8-3.3
			c8.7-0.6,15.9-7.3,17-15.9c5.6-42.3,5.6-85.1,0-127.4c-1.1-8.6-8.3-15.3-17-15.9c-62.9-4.3-126.7-4.3-189.6,0
			C40.3,79.4,33.1,86.1,32,94.8L32,94.8z M143.8,83.6c31.5,0,63,1.1,94.2,3.2c4.9,0.3,8.9,4.1,9.6,9c5.5,41.6,5.5,83.7,0,125.3
			c-0.6,4.8-4.7,8.6-9.6,9c-62.5,4.3-126,4.3-188.5,0c-4.9-0.3-8.9-4.1-9.6-9c-5.5-41.6-5.5-83.7,0-125.3c0.6-4.8,4.7-8.6,9.6-9
			C80.8,84.7,112.3,83.6,143.8,83.6L143.8,83.6z"/>
		<linearGradient id="SVGID_6_" gradientUnits="userSpaceOnUse" x1="62.2231" y1="255.6931" x2="225.3629" y2="61.2707">
			<stop  offset="0" style="stop-color:#0E3E61"/>
			<stop  offset="1" style="stop-color:#9DD9DD"/>
		</linearGradient>
		<path class="st5" d="M143.8,242.8c-31.6,0-63.5-1.1-94.9-3.3c-9.4-0.6-17.1-7.9-18.3-17.2C25,180,25,137,30.6,94.6v0
			c1.2-9.3,8.9-16.5,18.3-17.2c63-4.4,126.8-4.4,189.8,0c9.4,0.6,17.1,7.9,18.3,17.2c5.6,42.4,5.6,85.4,0,127.8
			c-1.2,9.3-8.9,16.5-18.3,17.2C207.3,241.7,175.4,242.8,143.8,242.8z M143.8,77c-31.6,0-63.3,1.1-94.7,3.2
			c-8,0.6-14.6,6.7-15.7,14.7l0,0c-5.6,42.1-5.6,84.9,0,127c1,8,7.6,14.1,15.7,14.7c62.6,4.3,126.8,4.3,189.4,0
			c8-0.6,14.6-6.7,15.7-14.7c5.6-42.1,5.6-84.9,0-127c-1-8-7.6-14.1-15.7-14.7C207.1,78.1,175.4,77,143.8,77z M143.8,234.8
			c-31.5,0-63-1.1-94.3-3.2c-5.6-0.4-10.1-4.7-10.9-10.2c-5.5-41.7-5.5-84,0-125.7c0.7-5.5,5.3-9.8,10.9-10.2
			c62.3-4.3,126.4-4.3,188.7,0c5.6,0.4,10.2,4.7,10.9,10.2c5.5,41.7,5.5,84,0,125.7c-0.7,5.5-5.3,9.8-10.9,10.2
			C206.8,233.7,175.3,234.8,143.8,234.8z M143.8,85.1c-31.4,0-63.1,1.1-94.1,3.2c-4.2,0.3-7.7,3.5-8.2,7.7
			c-5.5,41.4-5.5,83.5,0,124.9c0.6,4.2,4,7.4,8.2,7.7c62.5,4.3,125.8,4.3,188.3,0c4.2-0.3,7.7-3.5,8.2-7.7
			c5.5-41.4,5.5-83.5,0-124.9c-0.5-4.2-4-7.4-8.2-7.7C206.9,86.2,175.2,85.1,143.8,85.1z"/>
	</g>
</g>
</svg>
