<?xml version="1.0" encoding="utf-8"?>
<!-- Generator: Adobe Illustrator 24.1.3, SVG Export Plug-In . SVG Version: 6.00 Build 0)  -->
<svg version="1.1" id="Layer_1" xmlns="http://www.w3.org/2000/svg" xmlns:xlink="http://www.w3.org/1999/xlink" x="0px" y="0px"
	 viewBox="0 0 288 288" style="enable-background:new 0 0 288 288;" xml:space="preserve">
<style type="text/css">
	.st0{fill:url(#SVGID_1_);}
	.st1{fill:url(#SVGID_2_);}
	.st2{fill:url(#SVGID_3_);}
</style>
<g>
	<linearGradient id="SVGID_1_" gradientUnits="userSpaceOnUse" x1="148.0346" y1="54.1821" x2="148.0346" y2="2.6599">
		<stop  offset="0" style="stop-color:#0E3E61"/>
		<stop  offset="1" style="stop-color:#9DD9DD"/>
	</linearGradient>
	<path class="st0" d="M132.3,28.4c0-4.3,1.8-8.3,4.6-11.1c2.9-2.9,6.8-4.6,11.1-4.6c4.4,0,8.3,1.8,11.2,4.6
		c2.9,2.9,4.6,6.8,4.6,11.1c0,4.4-1.8,8.3-4.6,11.1c-2.9,2.9-6.8,4.6-11.2,4.6c-4.3,0-8.2-1.8-11.1-4.6
		C134,36.7,132.3,32.8,132.3,28.4L132.3,28.4z M166.2,46.6c4.7-4.6,7.6-11.1,7.6-18.2c0-7.1-2.9-13.6-7.6-18.2
		c-4.6-4.6-11.1-7.6-18.2-7.5c-7.1,0-13.6,2.9-18.2,7.5c-4.7,4.7-7.6,11.1-7.6,18.2c0,7.1,2.9,13.6,7.6,18.2
		c4.6,4.7,11.1,7.6,18.2,7.6C155.1,54.2,161.6,51.3,166.2,46.6L166.2,46.6z"/>
	<linearGradient id="SVGID_2_" gradientUnits="userSpaceOnUse" x1="143.7919" y1="285.1482" x2="143.7919" y2="33.6516">
		<stop  offset="0" style="stop-color:#0E3E61"/>
		<stop  offset="1" style="stop-color:#9DD9DD"/>
	</linearGradient>
	<path class="st1" d="M99.3,43.6c2.5,0,4.7,1,6.4,2.6c1.6,1.6,2.6,3.9,2.6,6.4c0,0.3,0,0.6-0.1,0.9c-0.2,2-1.1,3.8-2.4,5.2
		c-1.4,1.4-3.1,2.4-5.1,2.7l-0.1,0c-0.4,0.1-0.7,0.1-1.1,0.1c-1.3,0-2.5-0.3-3.8-0.9c-1.2-0.6-2.4-1.4-3.4-2.5v0
		c-1-1.1-1.6-2.2-2-3.1c-0.1-0.2-0.1-0.4-0.2-0.6c0.1-0.5,0.2-1.1,0.1-1.7c0-0.1,0-0.2,0-0.2v0v0c0-2.5,1-4.7,2.6-6.4
		C94.6,44.7,96.8,43.6,99.3,43.6L99.3,43.6z M109.8,93.6c0.2-1.8,1.2-3.3,2.6-4.1l28-16.5l0.2-0.1c0.3-0.2,0.5-0.3,0.8-0.6
		c2.5-2.2,5.6-3.4,9.1-3.4c2.3,0,4.5,0.6,6.4,1.6c1.9,1,3.6,2.5,5,4.3c0.9,1.2,2.2,1.9,3.7,2l22.3,1.7c1.8,0.1,3.5-0.7,4.5-2.3
		l15.2-23.2c0.5-0.8,1.2-1.4,1.9-1.7c0.7-0.4,1.5-0.6,2.3-0.6c0.9,0,1.9,0.3,2.8,0.9c0.7,0.5,1.3,1.2,1.7,2c0.4,0.8,0.6,1.7,0.6,2.6
		c0,1.1-0.3,2.1-0.9,3.1l-18.4,28.1c-1,1.5-2.6,2.3-4.2,2.3c-0.1,0-0.2,0-0.4,0l-22.7-1.7c-1.4-0.1-2.7,0.4-3.8,1.3
		c-1,0.9-1.6,2.2-1.6,3.6l-0.2,13.2h-31.8l0.2-9.4c0-2.8-2.2-5-4.9-5.1c-2.8,0-5,2.2-5.1,4.9l-0.1,9.6h-3.6H109L109.8,93.6
		L109.8,93.6z M192.8,246.2c1.4,0,2.6,0.6,3.5,1.5c0.9,0.9,1.5,2.2,1.5,3.5v19c0,1.4-0.6,2.6-1.5,3.5c-0.9,0.9-2.2,1.5-3.5,1.5h-97
		c-1.4,0-2.6-0.5-3.5-1.5c-0.9-0.9-1.5-2.2-1.5-3.5v-19c0-1.4,0.6-2.6,1.5-3.5c0.9-0.9,2.2-1.5,3.5-1.5h11.5c0.5,0,0.9-0.1,1.4-0.2
		h70.2c0.4,0.1,0.9,0.2,1.4,0.2H192.8L192.8,246.2z M175.3,235.9h-63v-33h63V235.9L175.3,235.9z M63.3,68.2v38h-9.5
		c-2.9,0-5.7,0.9-7.9,2.8c-1.1,0.9-1.9,2.1-2.5,3.4c-0.6,1.3-0.9,2.8-0.9,4.2c0,0.8,0.1,1.5,0.2,2.3v0l16.2,75.7v0
		c0.3,1.5,1,2.8,1.8,3.8c1.3,1.6,2.8,2.7,4.5,3.5c1.7,0.8,3.6,1.2,5.6,1.2h31.3v33h-6.5c-4.1,0-7.9,1.7-10.6,4.4
		c-2.7,2.7-4.4,6.5-4.4,10.6v19c0,4.1,1.7,7.9,4.4,10.6c2.7,2.7,6.5,4.4,10.6,4.4h97c4.1,0,7.9-1.7,10.6-4.4
		c2.7-2.7,4.4-6.5,4.4-10.6v-19c0-4.1-1.7-7.9-4.4-10.6c-2.7-2.7-6.5-4.4-10.6-4.4h-7.5v-33h31.3c2.7,0,5.2-0.8,7.3-2.1
		c1.1-0.7,2-1.5,2.9-2.6c0.8-1.1,1.5-2.3,1.8-3.8v0l4.9-22.7c0.6-2.7-1.1-5.4-3.8-5.9c-2.7-0.6-5.4,1.1-5.9,3.8l0,0l-4.8,22.5
		c-0.1,0.1-0.4,0.3-0.8,0.5c-0.4,0.2-1,0.3-1.5,0.3h-35.4c-0.4-0.1-0.9-0.2-1.4-0.2h-73c-0.5,0-1,0.1-1.4,0.2H71
		c-0.7,0-1.5-0.2-2-0.6c-0.2-0.1-0.3-0.2-0.3-0.3l-16.2-75.5c0-0.1,0-0.2,0-0.2l0-0.1c0,0,0-0.1,0.2-0.2c0.2-0.1,0.5-0.2,1.1-0.2
		h14.5c0.5,0,0.9-0.1,1.4-0.2l28.5,0.2h0h21h8.7h40h65.8c0.8,0,1.2,0.2,1.2,0.3l0.1,0.1l0,0.1c0,0,0,0.1,0,0.2v0l-2.8,13
		c-0.6,2.7,1.1,5.4,3.8,5.9c2.7,0.6,5.4-1.1,6-3.8l2.8-13v0c0.2-0.8,0.2-1.5,0.2-2.3c0-1.5-0.3-2.9-0.9-4.2c-0.9-2-2.4-3.6-4.3-4.7
		c-1.8-1.1-4-1.6-6.1-1.6h-59.2l0.1-7.7l17.5,1.3l0,0c0.3,0,0.7,0,1.1,0c5.1,0,9.8-2.6,12.5-6.9l18.4-28.1c1.7-2.6,2.6-5.6,2.5-8.6
		c0-2.4-0.6-4.9-1.7-7.1c-1.1-2.2-2.8-4.2-4.9-5.7c-2.6-1.8-5.6-2.7-8.5-2.7c-2.4,0-4.9,0.6-7,1.8c-2.2,1.2-4.1,2.9-5.5,5.1
		l-13.5,20.7L168.4,67c-1.9-2.2-4.2-4-6.8-5.4c-3.3-1.8-7.1-2.7-11.1-2.7c-5.7,0-11,2.1-15.1,5.5l0,0l-28,16.6
		c-4.2,2.5-6.9,6.8-7.4,11.7l0,0.2L99,106.2h-0.7l-25-0.2V68.2c0-0.9,0.4-1.7,1.2-2.1l0,0l7.7-4.8c0.7,1.2,1.6,2.5,2.7,3.8
		c1.8,2,4,3.7,6.5,4.8c2.5,1.2,5.2,1.8,8.1,1.8c0.8,0,1.7-0.1,2.5-0.2l0.2,0l0.2,0v0c4.2-0.7,7.9-2.8,10.7-5.7
		c2.8-3,4.7-6.8,5.1-11.1v0c0.1-0.6,0.1-1.3,0.1-1.9c0-5.2-2.1-10-5.6-13.4c-3.4-3.4-8.2-5.6-13.4-5.6c-5.2,0-10,2.1-13.4,5.6
		c-3,3-5,6.9-5.4,11.3l-11.2,7v0C65.5,59.8,63.3,63.8,63.3,68.2L63.3,68.2z"/>
	<linearGradient id="SVGID_3_" gradientUnits="userSpaceOnUse" x1="84.9452" y1="64.9689" x2="84.9452" y2="64.9637">
		<stop  offset="0" style="stop-color:#0E3E61"/>
		<stop  offset="1" style="stop-color:#9DD9DD"/>
	</linearGradient>
	<path class="st2" d="M84.9,65C84.9,65,84.9,65,84.9,65L84.9,65L84.9,65L84.9,65z"/>
</g>
</svg>
