<?xml version="1.0" encoding="utf-8"?>
<!-- Generator: Adobe Illustrator 24.1.3, SVG Export Plug-In . SVG Version: 6.00 Build 0)  -->
<svg version="1.1" id="Layer_1" xmlns="http://www.w3.org/2000/svg" xmlns:xlink="http://www.w3.org/1999/xlink" x="0px" y="0px"
	 viewBox="0 0 288 288" style="enable-background:new 0 0 288 288;" xml:space="preserve">
<style type="text/css">
	.st0{fill:url(#SVGID_1_);}
	.st1{fill:url(#SVGID_2_);}
	.st2{fill:url(#SVGID_3_);}
	.st3{fill:url(#SVGID_4_);}
	.st4{fill:url(#SVGID_5_);}
	.st5{fill:url(#SVGID_6_);}
</style>
<g>
	<g>
		<g>
			
				<linearGradient id="SVGID_1_" gradientUnits="userSpaceOnUse" x1="151.1319" y1="139.9254" x2="104.8711" y2="59.7994" gradientTransform="matrix(0.8114 0.5844 -0.5844 0.8114 111.2678 -56.8708)">
				<stop  offset="0" style="stop-color:#0E3E61"/>
				<stop  offset="1" style="stop-color:#9DD9DD"/>
			</linearGradient>
			<path class="st0" d="M168.3,145.8l-59.6-42.9c-2.7-2-3.3-5.8-1.4-8.5l29.5-40.9c2-2.7,5.8-3.3,8.5-1.4L204.8,95
				c2.7,2,3.3,5.8,1.4,8.5l-29.5,40.9C174.8,147.1,171,147.8,168.3,145.8z M142.5,55.9c-0.6-0.5-1.5-0.3-2,0.3l-29.5,40.9
				c-0.5,0.6-0.3,1.5,0.3,2L171,142c0.6,0.5,1.5,0.3,2-0.3l29.5-40.9c0.5-0.6,0.3-1.5-0.3-2L142.5,55.9z"/>
			
				<linearGradient id="SVGID_2_" gradientUnits="userSpaceOnUse" x1="152.5178" y1="142.3263" x2="103.4842" y2="57.3975" gradientTransform="matrix(0.8114 0.5844 -0.5844 0.8114 111.2678 -56.8708)">
				<stop  offset="0" style="stop-color:#0E3E61"/>
				<stop  offset="1" style="stop-color:#9DD9DD"/>
			</linearGradient>
			<path class="st1" d="M166.6,148.1l-59.6-42.9c-4-2.9-4.9-8.4-2-12.4l29.5-40.9c2.9-4,8.4-4.9,12.4-2l59.6,42.9
				c4,2.9,4.9,8.4,2,12.4L179,146.1C176.1,150,170.6,150.9,166.6,148.1z M114.2,97.7l57.4,41.3l27.9-38.7L142,59L114.2,97.7z"/>
		</g>
	</g>
	<g>
		<g>
			
				<linearGradient id="SVGID_3_" gradientUnits="userSpaceOnUse" x1="145.1669" y1="76.4318" x2="109.1332" y2="14.0197" gradientTransform="matrix(0.8114 0.5844 -0.5844 0.8114 111.2678 -56.8708)">
				<stop  offset="0" style="stop-color:#0E3E61"/>
				<stop  offset="1" style="stop-color:#9DD9DD"/>
			</linearGradient>
			<path class="st2" d="M157.2,33.8l-1.4,2l0.1,0.1c-2,3.2-3.5,6.7-4.5,10.4c-0.8,3.1-1.2,6.2-1.3,9.3l5.1,3.7
				c-0.4-4-0.1-7.9,0.9-11.7c0.8-3.1,2.1-6,3.7-8.8L212.9,77c-2.2,2.6-4.8,4.8-7.7,6.6c-3.2,2-6.6,3.5-10.3,4.3l5.1,3.6
				c2.7-1,5.4-2.2,7.9-3.8c3.4-2.2,6.5-4.8,9.1-7.9L217,80l1.4-2l1.5-2l-0.1-0.1c2.3-3.6,3.9-7.5,4.8-11.6c1.1-4.8,1.2-9.6,0.4-14.5
				c-0.8-4.8-2.5-9.4-5-13.6c-2.6-4.3-6.1-8-10.2-11c-4.1-3-8.7-5.1-13.7-6.2c-4.8-1.1-9.6-1.2-14.5-0.4c-4.8,0.8-9.4,2.5-13.6,5
				c-3.6,2.2-6.8,5-9.5,8.2l-0.1-0.1L157.2,33.8C157.2,33.8,157.2,33.8,157.2,33.8z M182.5,23.5c8.7-1.4,17.4,0.6,24.5,5.8
				c7.1,5.1,11.8,12.7,13.2,21.4c1.3,7.8-0.3,15.7-4.4,22.4l-53.2-38.3C167.7,28.7,174.7,24.7,182.5,23.5z"/>
			
				<linearGradient id="SVGID_4_" gradientUnits="userSpaceOnUse" x1="146.7313" y1="79.1382" x2="107.7468" y2="11.6151" gradientTransform="matrix(0.8114 0.5844 -0.5844 0.8114 111.2678 -56.8708)">
				<stop  offset="0" style="stop-color:#0E3E61"/>
				<stop  offset="1" style="stop-color:#9DD9DD"/>
			</linearGradient>
			<path class="st3" d="M199.6,94.7l-11.1-8l5.9-1.4c3.3-0.8,6.5-2.1,9.5-4c1.8-1.1,3.4-2.4,5-3.9l-48-34.6c-0.8,1.7-1.5,3.5-2,5.4
				c-0.9,3.5-1.2,7.1-0.9,10.8l0.6,6.1L147.3,57l0-1.4c0-3.4,0.5-6.8,1.4-10c0.8-3.1,2-6.1,3.5-8.9l-0.2-0.2l6-8.6l0.3,0.2
				c2.5-2.7,5.3-5,8.5-6.9c4.5-2.7,9.4-4.5,14.6-5.4c5.2-0.8,10.4-0.7,15.5,0.5c10.6,2.4,20,9.2,25.6,18.5c2.7,4.5,4.5,9.4,5.4,14.6
				c0.8,5.2,0.7,10.4-0.5,15.5c-0.8,3.6-2.1,7-3.9,10.2l0.2,0.2l-1.6,2.3l-4.5,6.2l-0.3-0.2c-2.4,2.5-5.1,4.7-8,6.5
				c-2.7,1.7-5.5,3-8.4,4.1L199.6,94.7z M166.8,34.3L214.9,69c2.7-5.5,3.6-11.8,2.6-17.9c-1.3-7.9-5.6-14.9-12.1-19.6
				c-6.5-4.7-14.5-6.6-22.4-5.3l0,0C176.9,27.2,171.2,30,166.8,34.3z"/>
		</g>
		<g>
			
				<linearGradient id="SVGID_5_" gradientUnits="userSpaceOnUse" x1="175.4659" y1="265.3951" x2="100.6616" y2="135.8303" gradientTransform="matrix(0.8114 0.5844 -0.5844 0.8114 111.2678 -56.8708)">
				<stop  offset="0" style="stop-color:#0E3E61"/>
				<stop  offset="1" style="stop-color:#9DD9DD"/>
			</linearGradient>
			<path class="st4" d="M142,246.3L142,246.3c0.6-2.7,0.7-5.4,0.3-8.1c-0.4-2.7-1.4-5.3-2.8-7.6c-1.5-2.4-3.4-4.5-5.7-6.1
				c-2.3-1.7-4.9-2.8-7.6-3.5c-2.7-0.6-5.4-0.7-8.1-0.3c-2.7,0.4-5.3,1.4-7.6,2.8c-2.4,1.5-4.5,3.4-6.1,5.7l-5.4,7.4l-7.3,10.1
				c-2.4,3.3-6,5.5-10.1,6.2c0,0,0,0,0,0c-4.1,0.7-8.1-0.3-11.4-2.7c-6.8-4.9-8.3-14.5-3.4-21.3l5-7c1,0.3,2.1,0.3,3.2,0.1
				c2.1-0.3,3.9-1.5,5.1-3.2l5.3-7.4c0,0,0,0,0,0c0.2,0,0.4,0,0.5-0.1c2.7-0.4,5.1-1.8,6.9-3.9l9.2-10.5l0,0l1.5-1.7l1.8-2l0,0
				l48.8-57.7l-4-2.9l-48.8,57.7l-6.9-4.9l-6.9-4.9l39.3-64.5l-4-2.9l-39.3,64.5l0,0l-1.4,2.3l-0.6,1l-0.6,1l0,0L74,193.9
				c-1.5,2.5-2,5.5-1.4,8.3c0,0,0,0,0,0l-5.3,7.4c-1.9,2.7-1.9,6.2-0.2,8.8l-5,7c-1.7,2.3-2.8,4.9-3.5,7.6c-0.6,2.7-0.7,5.4-0.3,8.1
				c0.4,2.7,1.4,5.3,2.8,7.6c1.5,2.4,3.4,4.5,5.7,6.1c2.3,1.7,4.9,2.8,7.6,3.5c2.7,0.6,5.4,0.7,8.1,0.3c2.7-0.4,5.3-1.4,7.6-2.8
				c2.4-1.5,4.5-3.4,6.1-5.7l5.4-7.4l7.2-10.1c4.9-6.9,14.5-8.5,21.3-3.6c4.9,3.5,7.3,9.6,6.1,15.5c-0.2,0.9,0.2,1.8,0.9,2.4l1,0.7
				c0.6,0.5,1.5,0.6,2.2,0.3C141.3,247.7,141.8,247.1,142,246.3z M78.3,196.4l6.8-11.7l13,9.4l-8.9,10.2c-2.3,2.7-6.2,3.1-9.1,1
				C77.3,203.3,76.5,199.5,78.3,196.4z M72,216.7c-1.3-1-1.6-2.8-0.7-4.1l3.8-5.2c0.6,0.8,1.4,1.4,2.2,2c0.8,0.6,1.7,1.1,2.6,1.4
				l-3.8,5.2c-0.5,0.6-1.1,1.1-1.9,1.2C73.4,217.3,72.6,217.2,72,216.7z"/>
			
				<linearGradient id="SVGID_6_" gradientUnits="userSpaceOnUse" x1="177.3774" y1="267.4965" x2="99.2342" y2="132.1486" gradientTransform="matrix(0.8114 0.5844 -0.5844 0.8114 111.2678 -56.8708)">
				<stop  offset="0" style="stop-color:#0E3E61"/>
				<stop  offset="1" style="stop-color:#9DD9DD"/>
			</linearGradient>
			<path class="st5" d="M65.2,257.2c-2.6-1.9-4.8-4.2-6.4-7c-1.6-2.6-2.7-5.5-3.2-8.6c-0.5-3.1-0.4-6.1,0.3-9.1c0.7-3.1,2-6,3.9-8.6
				l4-5.6c-1.4-3.4-0.9-7.2,1.2-10.2l4.7-6.5c-0.4-3.1,0.3-6.3,1.9-9.1l11.1-19l0.1,0.1l39.3-64.5l8.5,6.1l-39.3,64.5l9.6,6.9
				l48.8-57.7l8.5,6.1l-48.8,57.7l0,0L95,209.4c-2.1,2.4-4.9,4-8,4.7l-4.7,6.5c-1.7,2.3-4.1,3.8-6.9,4.3c-0.8,0.1-1.6,0.2-2.4,0.1
				l-4,5.6c-4,5.6-2.8,13.4,2.8,17.5c0,0,0,0,0,0c2.5,1.8,5.7,2.6,8.8,2.2l0.4-0.2l0.5,0.1c3.2-0.6,6-2.4,7.9-5l12.6-17.4
				c1.9-2.6,4.2-4.8,6.9-6.4c2.6-1.6,5.5-2.7,8.6-3.2c3.1-0.5,6.1-0.4,9.1,0.3c6.2,1.4,11.8,5.4,15.1,10.9c1.6,2.6,2.7,5.5,3.2,8.6
				c0.5,3.1,0.4,6.1-0.3,9.2l0,0c-0.4,1.7-1.6,3.1-3.2,3.7c-1.6,0.6-3.4,0.4-4.8-0.6l-1-0.7c-1.6-1.2-2.4-3.2-2-5.2
				c1-4.8-1-9.8-4.9-12.6c0,0,0,0-0.1-0.1c-5.6-4-13.4-2.6-17.5,3l-12.6,17.4c-1.9,2.6-4.2,4.8-7,6.4c-2.6,1.6-5.5,2.7-8.6,3.2
				c-3.1,0.5-6.1,0.4-9.2-0.3C70.8,260.4,67.8,259.1,65.2,257.2z M70.3,218.9l-6,8.3c-1.4,2-2.5,4.2-3,6.6c-0.5,2.3-0.6,4.7-0.2,7
				c0.4,2.4,1.2,4.6,2.4,6.6c2.6,4.2,6.8,7.2,11.6,8.3c2.3,0.5,4.7,0.6,7,0.2c2.3-0.4,4.6-1.2,6.6-2.4c2.1-1.3,3.9-2.9,5.3-4.9
				l12.6-17.4c5.8-8.1,17.1-10,25.2-4.3c0,0,0.1,0.1,0.1,0.1c5.7,4.1,8.5,11.3,7.1,18.2l0.3,0.1c0.4-2,0.5-4.3,0.1-6.6
				c-0.4-2.3-1.2-4.6-2.4-6.6c-2.5-4.2-6.8-7.3-11.6-8.3c-2.3-0.5-4.7-0.6-7-0.2c-2.4,0.4-4.6,1.2-6.6,2.4c-2.1,1.3-3.9,2.9-5.3,4.9
				l-12.6,17.4c-2.8,3.8-6.8,6.4-11.4,7.2l-0.5,0.1l0,0l-0.4,0.1c-4.6,0.6-9.2-0.5-13-3.2c0,0,0,0-0.1,0c-8-5.8-9.8-17.1-4-25.2
				l6-8.3C70.4,219,70.3,218.9,70.3,218.9z M75.5,211.5l-1.9,2.9c0,0,0.1,0,0.1,0l2-2.8C75.7,211.6,75.6,211.6,75.5,211.5z
				 M139.9,245.4l-0.2,0l0.2,0.1L139.9,245.4z M80.7,197.8c-1.1,1.8-0.6,4.1,1.1,5.3c1.7,1.2,4,1,5.4-0.6l6.9-7.9l-8.1-5.8
				L80.7,197.8z"/>
		</g>
	</g>
</g>
</svg>
