<?xml version="1.0" encoding="utf-8"?>
<!-- Generator: Adobe Illustrator 24.1.3, SVG Export Plug-In . SVG Version: 6.00 Build 0)  -->
<svg version="1.1" id="Layer_1" xmlns="http://www.w3.org/2000/svg" xmlns:xlink="http://www.w3.org/1999/xlink" x="0px" y="0px"
	 viewBox="0 0 288 288" style="enable-background:new 0 0 288 288;" xml:space="preserve">
<style type="text/css">
	.st0{fill:url(#SVGID_1_);}
	.st1{fill:url(#SVGID_2_);}
	.st2{fill:url(#SVGID_3_);}
	.st3{fill:url(#SVGID_4_);}
	.st4{fill:url(#SVGID_5_);}
	.st5{fill:url(#SVGID_6_);}
	.st6{fill:url(#SVGID_7_);}
	.st7{fill:url(#SVGID_8_);}
	.st8{fill:url(#SVGID_9_);}
	.st9{fill:url(#SVGID_10_);}
	.st10{fill:url(#SVGID_11_);}
	.st11{fill:url(#SVGID_12_);}
	.st12{fill:url(#SVGID_13_);}
	.st13{fill:url(#SVGID_14_);}
	.st14{fill:url(#SVGID_15_);}
	.st15{fill:url(#SVGID_16_);}
	.st16{fill:url(#SVGID_17_);}
</style>
<g>
	<linearGradient id="SVGID_1_" gradientUnits="userSpaceOnUse" x1="143.7919" y1="220.3188" x2="143.7919" y2="67.4883">
		<stop  offset="0" style="stop-color:#0E3E61"/>
		<stop  offset="1" style="stop-color:#9DD9DD"/>
	</linearGradient>
	<path class="st0" d="M143.8,67.5c-42.1,0-76.4,34.3-76.4,76.4s34.3,76.4,76.4,76.4s76.4-34.3,76.4-76.4S185.9,67.5,143.8,67.5z
		 M143.8,203.8c-33,0-59.9-26.9-59.9-59.9S110.8,84,143.8,84s59.9,26.9,59.9,59.9S176.8,203.8,143.8,203.8z"/>
	<linearGradient id="SVGID_2_" gradientUnits="userSpaceOnUse" x1="143.7919" y1="48.0508" x2="143.7919" y2="3.1675">
		<stop  offset="0" style="stop-color:#0E3E61"/>
		<stop  offset="1" style="stop-color:#9DD9DD"/>
	</linearGradient>
	<path class="st1" d="M143.8,48.1c4.6,0,8.2-3.7,8.2-8.2V11.4c0-4.6-3.7-8.2-8.2-8.2c-4.6,0-8.2,3.7-8.2,8.2v28.4
		C135.5,44.4,139.2,48.1,143.8,48.1z"/>
	<linearGradient id="SVGID_3_" gradientUnits="userSpaceOnUse" x1="262.0863" y1="152.1498" x2="262.0863" y2="135.6573">
		<stop  offset="0" style="stop-color:#0E3E61"/>
		<stop  offset="1" style="stop-color:#9DD9DD"/>
	</linearGradient>
	<path class="st2" d="M276.3,135.7h-28.4c-4.6,0-8.2,3.7-8.2,8.2c0,4.6,3.7,8.2,8.2,8.2h28.4c4.6,0,8.2-3.7,8.2-8.2
		C284.5,139.3,280.8,135.7,276.3,135.7z"/>
	<linearGradient id="SVGID_4_" gradientUnits="userSpaceOnUse" x1="143.7919" y1="284.6396" x2="143.7919" y2="239.7563">
		<stop  offset="0" style="stop-color:#0E3E61"/>
		<stop  offset="1" style="stop-color:#9DD9DD"/>
	</linearGradient>
	<path class="st3" d="M143.8,239.8c-4.6,0-8.2,3.7-8.2,8.2v28.4c0,4.6,3.7,8.2,8.2,8.2c4.6,0,8.2-3.7,8.2-8.2V248
		C152,243.4,148.3,239.8,143.8,239.8z"/>
	<linearGradient id="SVGID_5_" gradientUnits="userSpaceOnUse" x1="25.4975" y1="152.1498" x2="25.4975" y2="135.6573">
		<stop  offset="0" style="stop-color:#0E3E61"/>
		<stop  offset="1" style="stop-color:#9DD9DD"/>
	</linearGradient>
	<path class="st4" d="M47.9,143.9c0-4.6-3.7-8.2-8.2-8.2H11.3c-4.6,0-8.2,3.7-8.2,8.2c0,4.6,3.7,8.2,8.2,8.2h28.4
		C44.2,152.1,47.9,148.5,47.9,143.9z"/>
	<linearGradient id="SVGID_6_" gradientUnits="userSpaceOnUse" x1="227.4386" y1="78.5405" x2="227.4386" y2="41.9725">
		<stop  offset="0" style="stop-color:#0E3E61"/>
		<stop  offset="1" style="stop-color:#9DD9DD"/>
	</linearGradient>
	<path class="st5" d="M217.4,78.5c2.1,0,4.2-0.8,5.8-2.4L243.3,56c3.2-3.2,3.2-8.4,0-11.7c-3.2-3.2-8.4-3.2-11.7,0l-20.1,20.1
		c-3.2,3.2-3.2,8.4,0,11.7C213.2,77.7,215.3,78.5,217.4,78.5L217.4,78.5z"/>
	<linearGradient id="SVGID_7_" gradientUnits="userSpaceOnUse" x1="227.4386" y1="245.8344" x2="227.4386" y2="209.2673">
		<stop  offset="0" style="stop-color:#0E3E61"/>
		<stop  offset="1" style="stop-color:#9DD9DD"/>
	</linearGradient>
	<path class="st6" d="M223.2,211.7c-3.2-3.2-8.4-3.2-11.7,0c-3.2,3.2-3.2,8.4,0,11.7l20.1,20.1c1.6,1.6,3.7,2.4,5.8,2.4
		c2.1,0,4.2-0.8,5.8-2.4c3.2-3.2,3.2-8.4,0-11.7L223.2,211.7z"/>
	<linearGradient id="SVGID_8_" gradientUnits="userSpaceOnUse" x1="60.1444" y1="245.8344" x2="60.1444" y2="209.2664">
		<stop  offset="0" style="stop-color:#0E3E61"/>
		<stop  offset="1" style="stop-color:#9DD9DD"/>
	</linearGradient>
	<path class="st7" d="M64.4,211.7l-20.1,20.1c-3.2,3.2-3.2,8.4,0,11.7c1.6,1.6,3.7,2.4,5.8,2.4c2.1,0,4.2-0.8,5.8-2.4L76,223.3
		c3.2-3.2,3.2-8.4,0-11.7C72.8,208.5,67.6,208.5,64.4,211.7L64.4,211.7z"/>
	<linearGradient id="SVGID_9_" gradientUnits="userSpaceOnUse" x1="60.1446" y1="78.5405" x2="60.1446" y2="41.9725">
		<stop  offset="0" style="stop-color:#0E3E61"/>
		<stop  offset="1" style="stop-color:#9DD9DD"/>
	</linearGradient>
	<path class="st8" d="M64.4,76.1c1.6,1.6,3.7,2.4,5.8,2.4c2.1,0,4.2-0.8,5.8-2.4c3.2-3.2,3.2-8.4,0-11.7L55.9,44.4
		c-3.2-3.2-8.4-3.2-11.7,0c-3.2,3.2-3.2,8.4,0,11.7L64.4,76.1z"/>
	<linearGradient id="SVGID_10_" gradientUnits="userSpaceOnUse" x1="189.189" y1="56.0232" x2="189.189" y2="13.3098">
		<stop  offset="0" style="stop-color:#0E3E61"/>
		<stop  offset="1" style="stop-color:#9DD9DD"/>
	</linearGradient>
	<path class="st9" d="M180.6,55.4c1,0.4,2.1,0.6,3.2,0.6c3.2,0,6.3-1.9,7.6-5.1l10.9-26.2c1.7-4.2-0.2-9-4.5-10.8
		c-4.2-1.7-9,0.2-10.8,4.5l-10.9,26.2C174.4,48.8,176.4,53.6,180.6,55.4z"/>
	<linearGradient id="SVGID_11_" gradientUnits="userSpaceOnUse" x1="253.0286" y1="202.9967" x2="253.0286" y2="175.6052">
		<stop  offset="0" style="stop-color:#0E3E61"/>
		<stop  offset="1" style="stop-color:#9DD9DD"/>
	</linearGradient>
	<path class="st10" d="M269.3,187.1l-26.2-10.9c-4.2-1.7-9,0.2-10.8,4.5c-1.7,4.2,0.2,9,4.5,10.8l26.2,10.9c1,0.4,2.1,0.6,3.2,0.6
		c3.2,0,6.3-1.9,7.6-5.1C275.5,193.7,273.5,188.9,269.3,187.1L269.3,187.1z"/>
	<linearGradient id="SVGID_12_" gradientUnits="userSpaceOnUse" x1="98.3947" y1="274.4967" x2="98.3947" y2="231.7838">
		<stop  offset="0" style="stop-color:#0E3E61"/>
		<stop  offset="1" style="stop-color:#9DD9DD"/>
	</linearGradient>
	<path class="st11" d="M107,232.4c-4.2-1.7-9,0.2-10.8,4.5l-10.9,26.2c-1.7,4.2,0.2,9,4.5,10.8c1,0.4,2.1,0.6,3.2,0.6
		c3.2,0,6.3-1.9,7.6-5.1l10.9-26.2C113.2,239,111.2,234.2,107,232.4L107,232.4z"/>
	<linearGradient id="SVGID_13_" gradientUnits="userSpaceOnUse" x1="34.5552" y1="112.2017" x2="34.5552" y2="84.8106">
		<stop  offset="0" style="stop-color:#0E3E61"/>
		<stop  offset="1" style="stop-color:#9DD9DD"/>
	</linearGradient>
	<path class="st12" d="M18.3,100.7l26.2,10.9c1,0.4,2.1,0.6,3.2,0.6c3.2,0,6.3-1.9,7.6-5.1c1.7-4.2-0.2-9-4.5-10.8L24.6,85.4
		c-4.2-1.7-9,0.2-10.8,4.5C12.1,94.1,14.1,98.9,18.3,100.7z"/>
	<linearGradient id="SVGID_14_" gradientUnits="userSpaceOnUse" x1="253.1347" y1="112.4276" x2="253.1347" y2="85.0968">
		<stop  offset="0" style="stop-color:#0E3E61"/>
		<stop  offset="1" style="stop-color:#9DD9DD"/>
	</linearGradient>
	<path class="st13" d="M232.4,107.3c1.3,3.2,4.4,5.1,7.6,5.1c1,0,2.1-0.2,3.1-0.6l26.2-10.8c4.2-1.7,6.2-6.6,4.5-10.8
		c-1.7-4.2-6.6-6.2-10.8-4.5l-26.2,10.8C232.7,98.3,230.7,103.1,232.4,107.3L232.4,107.3z"/>
	<linearGradient id="SVGID_15_" gradientUnits="userSpaceOnUse" x1="188.933" y1="274.616" x2="188.933" y2="231.877">
		<stop  offset="0" style="stop-color:#0E3E61"/>
		<stop  offset="1" style="stop-color:#9DD9DD"/>
	</linearGradient>
	<path class="st14" d="M191.1,237c-1.7-4.2-6.6-6.2-10.8-4.5c-4.2,1.7-6.2,6.6-4.5,10.8l10.8,26.2c1.3,3.2,4.4,5.1,7.6,5.1
		c1,0,2.1-0.2,3.1-0.6c4.2-1.7,6.2-6.6,4.5-10.8L191.1,237z"/>
	<linearGradient id="SVGID_16_" gradientUnits="userSpaceOnUse" x1="34.4488" y1="202.7103" x2="34.4488" y2="175.3791">
		<stop  offset="0" style="stop-color:#0E3E61"/>
		<stop  offset="1" style="stop-color:#9DD9DD"/>
	</linearGradient>
	<path class="st15" d="M55.2,180.5c-1.7-4.2-6.6-6.2-10.8-4.5l-26.2,10.8c-4.2,1.7-6.2,6.6-4.5,10.8c1.3,3.2,4.4,5.1,7.6,5.1
		c1,0,2.1-0.2,3.1-0.6l26.2-10.8C54.9,189.5,56.9,184.7,55.2,180.5z"/>
	<linearGradient id="SVGID_17_" gradientUnits="userSpaceOnUse" x1="98.6508" y1="55.9303" x2="98.6508" y2="13.1911">
		<stop  offset="0" style="stop-color:#0E3E61"/>
		<stop  offset="1" style="stop-color:#9DD9DD"/>
	</linearGradient>
	<path class="st16" d="M96.4,50.8c1.3,3.2,4.4,5.1,7.6,5.1c1,0,2.1-0.2,3.1-0.6c4.2-1.7,6.2-6.6,4.5-10.8l-10.8-26.2
		c-1.7-4.2-6.6-6.2-10.8-4.5c-4.2,1.7-6.2,6.6-4.5,10.8L96.4,50.8z"/>
</g>
</svg>
