<svg id="Layer_1" data-name="Layer 1" xmlns="http://www.w3.org/2000/svg" xmlns:xlink="http://www.w3.org/1999/xlink" viewBox="0 0 135 40" width="170" height="51"><defs><style>.cls-1{fill:#a6a6a6;}.cls-10,.cls-2,.cls-3{fill:#fff;}.cls-2{stroke:#fff;stroke-miterlimit:10;stroke-width:0.2px;}.cls-4{fill:url(#linear-gradient);}.cls-5{fill:url(#linear-gradient-2);}.cls-6{fill:url(#linear-gradient-3);}.cls-7{fill:url(#linear-gradient-4);}.cls-8{opacity:0.2;}.cls-10,.cls-8,.cls-9{isolation:isolate;}.cls-9{opacity:0.12;}.cls-10{opacity:0.25;}</style><linearGradient id="linear-gradient" x1="635.8" y1="553.29" x2="619.02" y2="536.51" gradientTransform="matrix(1, 0, 0, -1, 0, 770)" gradientUnits="userSpaceOnUse"><stop offset="0" stop-color="#00a0ff"/><stop offset="0.01" stop-color="#00a1ff"/><stop offset="0.26" stop-color="#00beff"/><stop offset="0.51" stop-color="#00d2ff"/><stop offset="0.76" stop-color="#00dfff"/><stop offset="1" stop-color="#00e3ff"/></linearGradient><linearGradient id="linear-gradient-2" x1="647.83" y1="542" x2="623.64" y2="542" gradientTransform="matrix(1, 0, 0, -1, 0, 770)" gradientUnits="userSpaceOnUse"><stop offset="0" stop-color="#ffe000"/><stop offset="0.41" stop-color="#ffbd00"/><stop offset="0.78" stop-color="orange"/><stop offset="1" stop-color="#ff9c00"/></linearGradient><linearGradient id="linear-gradient-3" x1="638.83" y1="539.7" x2="616.07" y2="516.95" gradientTransform="matrix(1, 0, 0, -1, 0, 770)" gradientUnits="userSpaceOnUse"><stop offset="0" stop-color="#ff3a44"/><stop offset="1" stop-color="#c31162"/></linearGradient><linearGradient id="linear-gradient-4" x1="621.3" y1="561.82" x2="631.46" y2="551.66" gradientTransform="matrix(1, 0, 0, -1, 0, 770)" gradientUnits="userSpaceOnUse"><stop offset="0" stop-color="#32a071"/><stop offset="0.07" stop-color="#2da771"/><stop offset="0.48" stop-color="#15cf74"/><stop offset="0.8" stop-color="#06e775"/><stop offset="1" stop-color="#00f076"/></linearGradient></defs><title>google-play</title><rect width="135" height="40" rx="5"/><path class="cls-1" d="M744,208.8a4.2,4.2,0,0,1,4.2,4.2v30a4.2,4.2,0,0,1-4.2,4.2H619a4.2,4.2,0,0,1-4.2-4.2V213a4.2,4.2,0,0,1,4.2-4.2H744m0-.8H619a5,5,0,0,0-5,5v30a5,5,0,0,0,5,5H744a5,5,0,0,0,5-5V213a5,5,0,0,0-5-5Z" transform="translate(-614 -208)"/><path class="cls-2" d="M661.42,218.24a2.72,2.72,0,0,1-.75,2,2.9,2.9,0,0,1-2.2.88,3,3,0,0,1-2.21-.9,3.19,3.19,0,0,1,0-4.46,3.16,3.16,0,0,1,3.44-.65,2.54,2.54,0,0,1,.94.67l-.53.53a2,2,0,0,0-1.64-.72,2.4,2.4,0,1,0,1.68,4.13,1.92,1.92,0,0,0,.5-1.22h-2.18v-.72h2.91A3.75,3.75,0,0,1,661.42,218.24Z" transform="translate(-614 -208)"/><path class="cls-2" d="M666,215.74H663.3v1.9h2.46v.72H663.3v1.9H666V221h-3.51v-6H666Z" transform="translate(-614 -208)"/><path class="cls-2" d="M669.28,221h-.77v-5.26h-1.68V215H671v.74h-1.67Z" transform="translate(-614 -208)"/><path class="cls-2" d="M673.94,221v-6h.77v6Z" transform="translate(-614 -208)"/><path class="cls-2" d="M678.13,221h-.77v-5.26h-1.68V215h4.12v.74h-1.67Z" transform="translate(-614 -208)"/><path class="cls-2" d="M687.61,220.22a3.11,3.11,0,0,1-4.4,0,3.24,3.24,0,0,1,0-4.44,2.93,2.93,0,0,1,2.2-.91,3,3,0,0,1,2.2.91,3.07,3.07,0,0,1,.88,2.22A3,3,0,0,1,687.61,220.22Zm-3.83-.5a2.29,2.29,0,0,0,3.26,0,2.54,2.54,0,0,0,0-3.44,2.29,2.29,0,0,0-3.26,0,2.54,2.54,0,0,0,0,3.44Z" transform="translate(-614 -208)"/><path class="cls-2" d="M689.58,221v-6h.93l2.92,4.67h0l0-1.16V215h.77v6h-.8l-3-4.89h0l0,1.15V221Z" transform="translate(-614 -208)"/><path class="cls-3" d="M682.14,229.75a4.26,4.26,0,1,0,4.27,4.25A4.19,4.19,0,0,0,682.14,229.75Zm0,6.83a2.58,2.58,0,1,1,2.4-2.58A2.46,2.46,0,0,1,682.14,236.58Zm-9.32-6.83a4.26,4.26,0,1,0,4.27,4.25A4.19,4.19,0,0,0,672.82,229.75Zm0,6.83a2.58,2.58,0,1,1,2.4-2.58A2.46,2.46,0,0,1,672.82,236.58Zm-11.08-5.52v1.8h4.32a3.77,3.77,0,0,1-1,2.27,4.42,4.42,0,0,1-3.34,1.32,4.8,4.8,0,0,1,0-9.6,4.64,4.64,0,0,1,3.26,1.29l1.27-1.27a6.3,6.3,0,0,0-4.53-1.82,6.61,6.61,0,1,0,0,13.21,6.07,6.07,0,0,0,4.61-1.85,6,6,0,0,0,1.56-4.23,6.27,6.27,0,0,0-.09-1.12Zm45.31,1.4a4,4,0,0,0-3.64-2.71,4,4,0,0,0-4,4.25,4.23,4.23,0,0,0,7.76,2.37l-1.45-1a2.41,2.41,0,0,1-2.09,1.17,2.15,2.15,0,0,1-2.06-1.29l5.69-2.35Zm-5.8,1.42a2.34,2.34,0,0,1,2.23-2.49,1.64,1.64,0,0,1,1.57.91ZM696.63,238h1.87V225.5h-1.87Zm-3.06-7.3h-.07a2.94,2.94,0,0,0-2.24-.95,4.26,4.26,0,0,0,0,8.51,2.88,2.88,0,0,0,2.24-1h.07v.61c0,1.63-.87,2.5-2.27,2.5a2.36,2.36,0,0,1-2.15-1.51l-1.62.67a4,4,0,0,0,3.77,2.52c2.19,0,4-1.29,4-4.43V230h-1.77Zm-2.15,5.88a2.58,2.58,0,0,1,0-5.15,2.59,2.59,0,0,1,0,5.15Zm24.39-11.08h-4.48V238h1.87v-4.74h2.61a3.89,3.89,0,1,0,0-7.76Zm0,6H713.2v-4.28h2.65a2.14,2.14,0,1,1,0,4.28Zm11.54-1.79a3.49,3.49,0,0,0-3.33,1.91l1.65.69a1.78,1.78,0,0,1,1.71-.91,1.8,1.8,0,0,1,2,1.61v.12a4.18,4.18,0,0,0-2-.48c-1.78,0-3.6,1-3.6,2.82a2.89,2.89,0,0,0,3.11,2.75,2.65,2.65,0,0,0,2.38-1.23h.06v1h1.8v-4.79C731.18,231,729.52,229.73,727.39,229.73Zm-.23,6.85c-.61,0-1.46-.31-1.46-1.06,0-1,1.06-1.34,2-1.34a3.32,3.32,0,0,1,1.7.42A2.26,2.26,0,0,1,727.16,236.58ZM737.74,230l-2.14,5.42h-.06L733.32,230h-2l3.33,7.58-1.9,4.21h2L739.82,230Zm-16.8,8h1.86V225.5h-1.86Z" transform="translate(-614 -208)"/><path class="cls-4" d="M624.44,215.54a2,2,0,0,0-.47,1.4v22.12a1.94,1.94,0,0,0,.47,1.4l.07.08,12.39-12.39v-.3l-12.39-12.38Z" transform="translate(-614 -208)"/><path class="cls-5" d="M641,232.28l-4.13-4.13v-.3l4.13-4.13.09.06,4.89,2.78c1.4.79,1.4,2.09,0,2.89l-4.89,2.78Z" transform="translate(-614 -208)"/><path class="cls-6" d="M641.12,232.22,636.9,228l-12.46,12.46a1.62,1.62,0,0,0,2.07.07l14.61-8.31" transform="translate(-614 -208)"/><path class="cls-7" d="M641.12,223.78l-14.61-8.3a1.61,1.61,0,0,0-2.07.06L636.9,228Z" transform="translate(-614 -208)"/><path class="cls-8" d="M641,232.13l-14.52,8.25a1.66,1.66,0,0,1-2,0h0l-.07.07h0l.07.08h0a1.66,1.66,0,0,0,2,0l14.61-8.31Z" transform="translate(-614 -208)"/><path class="cls-9" d="M624.44,240.32a2,2,0,0,1-.47-1.41v.15a1.94,1.94,0,0,0,.47,1.4l.07-.07Z" transform="translate(-614 -208)"/><path class="cls-9" d="M646,229.3l-5,2.83.09.09,4.89-2.78a1.75,1.75,0,0,0,1-1.44h0A1.86,1.86,0,0,1,646,229.3Z" transform="translate(-614 -208)"/><path class="cls-10" d="M626.51,215.62,646,226.7a1.86,1.86,0,0,1,1,1.3h0a1.75,1.75,0,0,0-1-1.44l-19.5-11.08c-1.39-.8-2.54-.14-2.54,1.46v.15C624,215.49,625.12,214.83,626.51,215.62Z" transform="translate(-614 -208)"/></svg>
