<svg xmlns="http://www.w3.org/2000/svg" viewBox="0 0 135 40" width="170" height="51"><defs><linearGradient id="a" x1="22.85" x2="3.97" y1="12.232" y2="21.968" gradientUnits="userSpaceOnUse"><stop offset="0" stop-color="#00a0ff"/><stop offset=".01" stop-color="#00a1ff"/><stop offset=".26" stop-color="#00beff"/><stop offset=".51" stop-color="#00d2ff"/><stop offset=".76" stop-color="#00dfff"/><stop offset="1" stop-color="#00e3ff"/></linearGradient><linearGradient id="b" x1="33.83" x2="9.64" y1="20" y2="20" gradientUnits="userSpaceOnUse"><stop offset="0" stop-color="#ffe000"/><stop offset=".41" stop-color="#ffbd00"/><stop offset=".78" stop-color="orange"/><stop offset="1" stop-color="#ff9c00"/></linearGradient><linearGradient id="c" x1="24.528" x2="2.372" y1="19.31" y2="48.04" gradientUnits="userSpaceOnUse"><stop offset="0" stop-color="#ff3a44"/><stop offset="1" stop-color="#c31162"/></linearGradient><linearGradient id="d" x1="7.436" x2="17.324" y1="-1.154" y2="11.674" gradientUnits="userSpaceOnUse"><stop offset="0" stop-color="#32a071"/><stop offset=".07" stop-color="#2da771"/><stop offset=".48" stop-color="#15cf74"/><stop offset=".8" stop-color="#06e775"/><stop offset="1" stop-color="#00f076"/></linearGradient></defs><path d="M0 5v30c0 2.77 2.23 5 5 5h125c2.76 0 5-2.24 5-5V5c0-2.77-2.23-5-5-5H5C2.23 0 0 2.23 0 5z"/><path fill="#a6a6a6" d="M130 .8a4.2 4.2 0 0 1 4.2 4.2v30a4.2 4.2 0 0 1-4.2 4.2H5A4.2 4.2 0 0 1 .8 35V5A4.2 4.2 0 0 1 5 .8zm0-.8H5C2.24 0 0 2.24 0 5v30c0 2.76 2.24 5 5 5h125c2.76 0 5-2.24 5-5V5c0-2.76-2.24-5-5-5z"/><path fill="#fff" d="M71.18 22.97c.8.8 1.25 1.89 1.23 3.03 0 2.34-1.9 4.25-4.24 4.25a4.26 4.26 0 0 1-4.26-4.24 4.25 4.25 0 0 1 4.23-4.26c1.14-.02 2.23.42 3.04 1.22zm-1.3 4.83c.45-.49.69-1.13.66-1.8 0-1.06-.65-2.01-1.64-2.4a2.578 2.578 0 0 0-3.27 3.51c.46.96 1.45 1.54 2.51 1.46.66-.02 1.29-.3 1.74-.78zm-11.06-6.05A4.182 4.182 0 0 1 63.09 26c0 2.35-1.9 4.25-4.25 4.25s-4.25-1.9-4.25-4.24c0-2.35 1.89-4.25 4.24-4.26zm0 6.83c.66-.02 1.29-.3 1.74-.78.45-.49.69-1.13.66-1.8 0-1.06-.65-2.01-1.64-2.4a2.578 2.578 0 1 0-.75 4.97zm-5.01-5.57c.07.37.1.75.1 1.13.05 1.56-.51 3.07-1.56 4.22a6.013 6.013 0 0 1-4.61 1.85c-2.42.09-4.7-1.14-5.94-3.23a6.607 6.607 0 0 1 0-6.76 6.633 6.633 0 0 1 5.94-3.23c1.7-.01 3.33.66 4.53 1.87L51 20.13a4.585 4.585 0 0 0-3.27-1.29 4.801 4.801 0 0 0 0 9.6c1.25.05 2.46-.43 3.33-1.32.58-.62.93-1.42 1-2.27h-4.32v-1.8zm39.45 1.9l-5.69 2.35c.36.81 1.17 1.32 2.06 1.29.86 0 1.65-.45 2.09-1.18l1.45 1a4.23 4.23 0 0 1-3.54 1.88c-1.13.02-2.22-.43-3.01-1.23-.8-.8-1.23-1.89-1.21-3.02-.07-1.1.32-2.19 1.08-2.99.76-.81 1.81-1.26 2.92-1.26 1.66.06 3.11 1.14 3.64 2.71zm-2.21-.61c-.3-.59-.92-.94-1.58-.9-.63.03-1.21.31-1.63.77a2.33 2.33 0 0 0-.59 1.71zm-8.42-6.8h1.87V30h-1.87zM79.57 22h1.72v7.57c0 3.14-1.81 4.43-4 4.43-1.65.01-3.14-.98-3.77-2.51l1.63-.68c.34.89 1.19 1.49 2.14 1.51 1.4 0 2.27-.87 2.27-2.5v-.61h-.06c-.56.65-1.38 1.01-2.24 1a4.256 4.256 0 0 1-4.05-4.26 4.27 4.27 0 0 1 4.05-4.26c.86 0 1.67.36 2.24 1h.07zm-2.14 6.58h-.01zm1.68-.8c.43-.49.64-1.13.59-1.78.05-.65-.16-1.28-.59-1.77a2.37 2.37 0 0 0-1.68-.81A2.589 2.589 0 0 0 75.07 26c0 1.34 1.02 2.46 2.36 2.58a2.42 2.42 0 0 0 1.69-.8zm22.71-10.28a3.894 3.894 0 0 1 3.6 5.91 3.914 3.914 0 0 1-3.6 1.86h-2.61v4.74h-1.87v-12.5zm.03 6.03c1.18 0 2.14-.96 2.14-2.14 0-1.18-.96-2.14-2.14-2.14H99.2v4.26h2.61zm11.54-1.8c2.13 0 3.79 1.27 3.79 3.46V30h-1.8v-1h-.06c-.52.81-1.44 1.27-2.4 1.2-.78.06-1.55-.2-2.13-.72-.58-.52-.93-1.25-.97-2.03 0-1.81 1.81-2.81 3.6-2.81.68 0 1.35.16 1.95.48v-.13c-.05-.48-.29-.92-.66-1.22-.38-.3-.86-.44-1.34-.39-.7-.06-1.37.3-1.7.92l-1.66-.69a3.51 3.51 0 0 1 3.33-1.91zm-.23 6.85a2.26 2.26 0 0 0 2.19-2c-.52-.29-1.11-.43-1.7-.42-.94 0-2 .33-2 1.33 0 .75.85 1.06 1.46 1.06zM125.82 22l-5.12 11.79h-1.95l1.9-4.21-3.33-7.58h2l2.22 5.42h.06l2.14-5.42zm-18.89-4.5h1.87V30h-1.87z"/><path fill="#fff" stroke="#fff" stroke-width=".2" d="M47.42 10.24c.03.74-.24 1.46-.75 2-.57.6-1.37.92-2.2.89a3.15 3.15 0 0 1-2.21-5.37c.58-.59 1.38-.92 2.21-.9.42 0 .84.08 1.23.25.36.15.68.38.94.67l-.53.53c-.4-.48-1.01-.74-1.64-.71-.63 0-1.24.25-1.68.7-.44.45-.68 1.07-.65 1.7-.01.95.55 1.82 1.42 2.2.87.38 1.89.19 2.58-.47.31-.33.49-.77.5-1.22h-2.17v-.72h2.91c.03.15.04.3.04.45zM52 7.74h-2.7v1.9h2.46v.72H49.3v1.9H52V13h-3.5V7H52zM55.28 13h-.77V7.74h-1.68V7H57v.74h-1.72zm4.66 0V7h.77v6zm4.19 0h-.77V7.74h-1.68V7h4.12v.74h-1.67zm9.48-.78a3.12 3.12 0 0 1-4.4 0 3.24 3.24 0 0 1 0-4.45c.58-.59 1.37-.92 2.2-.92.83 0 1.62.33 2.2.92a3.24 3.24 0 0 1 0 4.45zm-3.83-.5c.9.9 2.36.9 3.26 0 .89-.98.89-2.46 0-3.44-.9-.9-2.36-.9-3.26 0a2.55 2.55 0 0 0 0 3.44zm5.8 1.28V7h.94l2.92 4.67V7h.77v6h-.8l-3.05-4.89V13z"/><path fill="url(#a)" d="M10.44 7.54c-.33.39-.49.89-.46 1.4v22.12c-.03.51.13 1.01.46 1.4l.07.07L22.9 20.15v-.29L10.51 7.47z"/><path fill="url(#b)" d="M27.11 24.23L32 21.45c1.4-.8 1.4-2.1 0-2.89l-4.91-2.79-.09-.05-4.1 4.14v.29l4.1 4.13z"/><path fill="url(#c)" d="M27.12 24.22L22.9 20 10.44 32.46c.59.52 1.46.54 2.08.06l14.61-8.3"/><path fill="url(#d)" d="M27.12 15.78l-14.61-8.3a1.63 1.63 0 0 0-2.08.06L22.9 20z"/><path d="M27 24.13l-14.49 8.25c-.59.44-1.41.44-2 0l-.07.07.07.07c.59.45 1.41.45 2 0l14.61-8.3z" opacity=".2"/><path d="M10.44 32.32c-.28-.34-.45-.77-.46-1.21-.02.49.15.98.46 1.36l.07-.07zm-.46-1.25v-.15.15zM32 21.3l-5 2.83.09.09L32 21.44c.57-.27.95-.82 1-1.44a1.86 1.86 0 0 1-1 1.3z" opacity=".122"/><path fill="#fff" d="M12.51 7.62L32 18.7c.52.26.89.74 1 1.3-.05-.62-.43-1.17-1-1.44L12.51 7.48c-1.4-.79-2.54-.13-2.54 1.47v.15c.03-1.61 1.15-2.27 2.54-1.48z" opacity=".251"/></svg>